<svg width="24" height="24" viewBox="0 0 24 24" fill="none" xmlns="http://www.w3.org/2000/svg">
<path d="M23 5.4667C23 5.07768 22.8456 4.70478 22.5703 4.42973C22.2953 4.15437 21.9224 4 21.5333 4H2.4667C2.07763 4 1.70473 4.15437 1.42973 4.42973C1.15437 4.70478 1 5.07768 1 5.4667V17.9334C1 18.3224 1.15437 18.6953 1.42973 18.9703C1.70473 19.2457 2.07763 19.4 2.4667 19.4H21.5333C21.9224 19.4 22.2953 19.2457 22.5703 18.9703C22.8456 18.6953 23 18.3224 23 17.9334V5.4667Z" stroke="black" stroke-width="2" stroke-miterlimit="10" stroke-linecap="round" stroke-linejoin="round"/>
<path d="M7.60003 9.86667C8.61207 9.86667 9.43338 10.688 9.43338 11.7C9.43338 12.712 8.61207 13.5334 7.60003 13.5334C6.58803 13.5334 5.76672 12.712 5.76672 11.7C5.76672 10.688 6.58803 9.86667 7.60003 9.86667Z" stroke="black" stroke-width="2" stroke-miterlimit="10" stroke-linecap="round" stroke-linejoin="round"/>
<path d="M7.59997 13.5334C9.21885 13.5334 10.5333 14.8478 10.5333 16.4667H4.66663C4.66663 14.8478 5.98115 13.5334 7.59997 13.5334Z" stroke="black" stroke-width="2" stroke-miterlimit="10" stroke-linecap="round" stroke-linejoin="round"/>
<path d="M14.2001 10.6H19.3334" stroke="black" stroke-width="2" stroke-miterlimit="10" stroke-linecap="round" stroke-linejoin="round"/>
<path d="M4.66663 6.93333H19.3333" stroke="black" stroke-width="2" stroke-miterlimit="10" stroke-linecap="round" stroke-linejoin="round"/>
<path d="M14.2001 13.5334H19.3334" stroke="black" stroke-width="2" stroke-miterlimit="10" stroke-linecap="round" stroke-linejoin="round"/>
<path d="M14.2001 16.4667H17.8667" stroke="black" stroke-width="2" stroke-miterlimit="10" stroke-linecap="round" stroke-linejoin="round"/>
</svg>
