<svg width="26" height="24" viewBox="0 0 26 24" fill="none" xmlns="http://www.w3.org/2000/svg">
<path d="M22.7549 14.4039C23.5013 13.6503 24.2114 12.8127 24.8802 11.8994C25.0399 11.6812 25.0399 11.3838 24.8802 11.1656C21.68 6.79532 17.5328 4.1582 13 4.1582C8.46825 4.1582 4.32001 6.79527 1.11982 11.1656C0.960061 11.3838 0.960061 11.6812 1.11982 11.8994C4.32001 16.2697 8.46825 18.9068 13 18.9068C15.2211 18.9068 17.3497 18.2736 19.3196 17.1135" stroke="black" stroke-width="2" stroke-miterlimit="10" stroke-linecap="round" stroke-linejoin="round"/>
<path d="M12.8707 4.1593C8.85756 4.22857 5.62585 7.5032 5.62585 11.5325C5.62585 14.2275 7.07156 16.585 9.2298 17.8709" stroke="black" stroke-width="2" stroke-miterlimit="10" stroke-linecap="round" stroke-linejoin="round"/>
<path d="M11.1313 14.7125C10.043 14.0715 9.31226 12.8871 9.31226 11.5325C9.31226 9.49591 10.9635 7.8447 13.0001 7.8447C13.682 7.8447 14.321 8.02957 14.8688 8.3525" fill="black"/>
<path d="M18.603 2L7.39722 21.065" stroke="black" stroke-width="2" stroke-miterlimit="10" stroke-linecap="round" stroke-linejoin="round"/>
</svg>
