<svg width="24" height="25" viewBox="0 0 24 25" fill="none" xmlns="http://www.w3.org/2000/svg">
<path d="M19.9235 2.5H4.07648C3.67418 2.50034 3.28063 2.62428 2.94357 2.8568C2.60652 3.08931 2.34046 3.4204 2.17769 3.80988C2.01492 4.19935 1.96244 4.63047 2.02661 5.05092C2.09078 5.47136 2.26884 5.86304 2.53919 6.17843L9.40698 14.1745V21.7157C9.40704 21.8631 9.44634 22.0075 9.52038 22.1323C9.59442 22.2572 9.70019 22.3574 9.82557 22.4216C9.92578 22.4739 10.0361 22.5007 10.1478 22.5C10.3162 22.4998 10.4795 22.439 10.6109 22.3274L12 21.151L14.3152 19.1902C14.4018 19.1168 14.4718 19.0237 14.5199 18.9178C14.5679 18.8119 14.5929 18.6959 14.593 18.5784V14.1745L21.4608 6.17843C21.7312 5.86304 21.9092 5.47136 21.9734 5.05092C22.0376 4.63047 21.9851 4.19935 21.8223 3.80988C21.6595 3.4204 21.3935 3.08931 21.0564 2.8568C20.7194 2.62428 20.3258 2.50034 19.9235 2.5Z" fill="#070B22"/>
</svg>
