<svg width="24" height="24" viewBox="0 0 24 24" fill="none" xmlns="http://www.w3.org/2000/svg">
<path d="M19.9235 2H4.07648C3.67418 2.00034 3.28063 2.12428 2.94357 2.3568C2.60652 2.58931 2.34046 2.9204 2.17769 3.30988C2.01492 3.69935 1.96244 4.13047 2.02661 4.55092C2.09078 4.97136 2.26884 5.36304 2.53919 5.67843L9.40698 13.6745V21.2157C9.40704 21.3631 9.44634 21.5075 9.52038 21.6323C9.59442 21.7572 9.70019 21.8574 9.82557 21.9216C9.92578 21.9739 10.0361 22.0007 10.1478 22C10.3162 21.9998 10.4795 21.939 10.6109 21.8274L12 20.651L14.3152 18.6902C14.4018 18.6168 14.4718 18.5237 14.5199 18.4178C14.5679 18.3119 14.5929 18.1959 14.593 18.0784V13.6745L21.4608 5.67843C21.7312 5.36304 21.9092 4.97136 21.9734 4.55092C22.0376 4.13047 21.9851 3.69935 21.8223 3.30988C21.6595 2.9204 21.3935 2.58931 21.0564 2.3568C20.7194 2.12428 20.3258 2.00034 19.9235 2Z" fill="#0099FF"/>
</svg>
