<svg width="245" height="245" viewBox="0 0 245 245" fill="none" xmlns="http://www.w3.org/2000/svg">
<path d="M95.4718 25.2173L100.412 1.46592L140.335 0.760469L146.109 24.3248L146.217 24.766L146.658 24.8745C155.31 27.0037 163.639 30.2795 171.424 34.6149L171.821 34.8359L172.2 34.5867L192.459 21.2934L221.188 49.0308L208.62 69.7583L208.384 70.1462L208.619 70.5346C213.222 78.1644 216.788 86.3736 219.223 94.9455L219.347 95.3822L219.791 95.4748L243.534 100.423L244.24 140.339L220.676 146.121L220.235 146.23L220.126 146.671C217.996 155.32 214.72 163.647 210.386 171.43L210.165 171.826L210.414 172.206L223.707 192.466L195.979 221.187L175.26 208.618L174.872 208.383L174.484 208.618C166.854 213.221 158.645 216.787 150.074 219.222L149.637 219.346L149.544 219.791L144.604 243.542L104.681 244.24L98.9073 220.675L98.7991 220.234L98.3578 220.125C89.7044 218 81.3751 214.724 73.5921 210.385L73.1953 210.164L72.8155 210.413L52.5562 223.707L23.8122 196.001L36.3884 175.266L36.6235 174.878L36.3895 174.49C31.7927 166.861 28.2371 158.651 25.8174 150.08L25.6938 149.642L25.2482 149.549L1.45803 144.609L0.760353 104.685L24.324 98.9105L24.7652 98.8024L24.8737 98.3613C27.0028 89.7112 30.2785 81.3845 34.6138 73.6023L34.8348 73.2056L34.5857 72.8259L21.2927 52.5663L49.0214 23.8445L69.7642 36.4137L70.9028 37.1037V36.1726C78.4262 31.673 86.5084 28.1808 94.9424 25.786L95.3793 25.6619L95.4718 25.2173ZM82.0453 83.4641C74.3237 91.4644 69.1476 101.575 67.1717 112.517C65.1957 123.459 66.5085 134.741 70.9441 144.937C75.3798 155.133 82.739 163.784 92.0912 169.798C101.444 175.811 112.369 178.916 123.486 178.72C134.603 178.525 145.412 175.037 154.547 168.698C163.681 162.359 170.731 153.453 174.805 143.108C178.879 132.762 179.794 121.441 177.434 110.575C175.074 99.7093 169.545 89.7875 161.547 82.064C156.235 76.935 149.965 72.9025 143.095 70.197C136.225 67.4915 128.889 66.1659 121.506 66.2959C114.123 66.4259 106.839 68.009 100.068 70.9547C93.2972 73.9005 87.1731 78.1512 82.0453 83.4641Z" fill="#FDFDFD" stroke="#323F4B" stroke-width="1.5"/>
</svg>
