<svg width="149" height="149" viewBox="0 0 149 149" fill="none" xmlns="http://www.w3.org/2000/svg">
<path d="M58.3501 15.3961L61.3068 1.1812L85.1168 0.760469L88.5725 14.8634L88.6806 15.3046L89.1217 15.4131C94.3584 16.7017 99.3994 18.6843 104.111 21.3083L104.508 21.5292L104.887 21.2801L117.012 13.3244L134.145 29.8671L126.623 42.272L126.388 42.6599L126.623 43.0484C129.409 47.6661 131.567 52.6346 133.041 57.8227L133.165 58.2593L133.609 58.352L147.819 61.3134L148.24 85.1198L134.137 88.5803L133.696 88.6885L133.587 89.1293C132.298 94.3644 130.315 99.4039 127.692 104.114L127.471 104.511L127.721 104.891L135.676 117.015L119.139 134.145L106.739 126.623L106.351 126.387L105.963 126.622C101.345 129.408 96.3768 131.566 91.1889 133.04L90.7521 133.164L90.6596 133.609L87.7029 147.824L63.8929 148.24L60.4372 134.137L60.3291 133.695L59.8877 133.587C54.6506 132.3 49.6095 130.318 44.8991 127.692L44.5023 127.471L44.1225 127.72L31.9977 135.676L14.8548 119.152L22.3814 106.743L22.6165 106.355L22.3825 105.967C19.6004 101.349 17.4485 96.3809 15.984 91.1931L15.8604 90.7551L15.4148 90.6625L1.17645 87.7056L0.760353 63.895L14.8629 60.4392L15.3041 60.3311L15.4127 59.89C16.7012 54.6547 18.6838 49.6152 21.3076 44.9052L21.5286 44.5085L21.2794 44.1288L13.324 32.004L29.8614 14.8743L42.2757 22.3968L43.4144 23.0868V22.1658C47.9271 19.4836 52.7697 17.3991 57.8207 15.9648L58.2577 15.8407L58.3501 15.3961ZM49.6855 50.5557C44.9491 55.463 41.7742 61.6646 40.5621 68.3763C39.3501 75.088 40.1554 82.0084 42.8761 88.2624C45.5969 94.5165 50.111 99.8233 55.8476 103.512C61.5842 107.2 68.2857 109.105 75.1047 108.985C81.9237 108.865 88.5539 106.725 94.1571 102.837C99.7603 98.9489 104.085 93.4865 106.584 87.1405C109.082 80.7945 109.644 73.8501 108.196 67.1852C106.748 60.5204 103.357 54.4344 98.4509 49.6969C95.1928 46.5508 91.3468 44.0773 87.1327 42.4178C82.9185 40.7583 78.4187 39.9451 73.8903 40.0249C69.3619 40.1046 64.8935 41.0757 60.7404 42.8826C56.5873 44.6895 52.8308 47.2968 49.6855 50.5557Z" fill="#0099FF" stroke="#323F4B" stroke-width="1.5"/>
</svg>
