<svg width="24" height="24" viewBox="0 0 24 24" fill="none" xmlns="http://www.w3.org/2000/svg">
<path fill-rule="evenodd" clip-rule="evenodd" d="M2.00003 11.4445C1.99621 12.911 2.33884 14.3577 3.00003 15.6667C4.59896 18.8659 7.8679 20.8875 11.4445 20.8889C12.911 20.8927 14.3577 20.5501 15.6667 19.8889L22 22L19.8889 15.6667C20.5501 14.3577 20.8927 12.911 20.8889 11.4445C20.8875 7.8679 18.8659 4.59896 15.6667 3.00003C14.3577 2.33884 12.911 1.99621 11.4445 2.00003H10.8889C6.09357 2.26459 2.26459 6.09357 2.00003 10.8889V11.4445Z" fill="#0099FF" stroke="#0099FF" stroke-width="2" stroke-linecap="round" stroke-linejoin="round"/>
<circle cx="7.5" cy="11.5" r="1.5" fill="white"/>
<circle cx="11.5" cy="11.5" r="1.5" fill="white"/>
<circle cx="15.5" cy="11.5" r="1.5" fill="white"/>
</svg>
