<svg width="24" height="26" viewBox="0 0 24 26" fill="none" xmlns="http://www.w3.org/2000/svg">
<path d="M14.2029 14.83H18.2705C19.1464 14.83 19.9229 15.3901 20.2001 16.2203L22.2339 22.3217C22.5894 23.3873 22.0134 24.5393 20.9478 24.8948C20.7343 24.9663 20.5168 25 20.3043 25C19.4523 25 18.6588 24.4608 18.3748 23.6087L16.8047 18.8976H14.2029C11.9657 18.8976 10.1353 17.0672 10.1353 14.83V9.13529C10.1353 8.01206 11.0458 7.10147 12.1691 7.10147H18.2705C19.3891 7.10147 20.3043 8.01669 20.3043 9.13529C20.3043 10.2539 19.3891 11.1691 18.2705 11.1691H14.2029V14.83Z" stroke="black" stroke-width="2" stroke-miterlimit="10" stroke-linecap="round" stroke-linejoin="round"/>
<path d="M12.1691 5.06763C13.2923 5.06763 14.2029 4.15706 14.2029 3.03382C14.2029 1.91057 13.2923 1 12.1691 1C11.0458 1 10.1353 1.91057 10.1353 3.03382C10.1353 4.15706 11.0458 5.06763 12.1691 5.06763Z" stroke="black" stroke-width="2" stroke-miterlimit="10" stroke-linecap="round" stroke-linejoin="round"/>
<path d="M14.1901 23.918C12.9964 24.6057 11.6118 24.999 10.1353 24.999C5.64226 24.999 2 21.3568 2 16.8638C2 13.8525 3.636 11.2235 6.06763 9.81683" stroke="black" stroke-width="2" stroke-miterlimit="10" stroke-linecap="round" stroke-linejoin="round"/>
</svg>
