<svg width="24" height="24" viewBox="0 0 24 24" fill="none" xmlns="http://www.w3.org/2000/svg">
<path d="M18 12.3294C18 11.9294 17.7132 11.6235 17.3382 11.6235C16.9632 11.6235 16.6765 11.9294 16.6765 12.3294C16.6765 15.0824 14.5809 17.3177 12 17.3177C9.41912 17.3177 7.32353 15.0824 7.32353 12.3294C7.32353 11.9294 7.03676 11.6235 6.66176 11.6235C6.28676 11.6235 6 11.9294 6 12.3294C6 15.6 8.29412 18.353 11.3382 18.7059V20.5883H8.93382C8.55882 20.5883 8.27206 20.8941 8.27206 21.2941C8.27206 21.6941 8.55882 22 8.93382 22H15.0662C15.4412 22 15.7279 21.6941 15.7279 21.2941C15.7279 20.8941 15.4412 20.5883 15.0662 20.5883H12.6618V18.7059C15.7059 18.353 18 15.6 18 12.3294Z" fill="#0099FF"/>
<path d="M12.0002 2C9.97082 2 8.31641 3.76471 8.31641 5.92942V12.3059C8.31641 14.4941 9.97082 16.2353 12.0002 16.2588C14.0296 16.2588 15.6841 14.4941 15.6841 12.3294V5.92942C15.6841 3.76471 14.0296 2 12.0002 2Z" fill="#0099FF"/>
</svg>
