<svg width="25" height="25" viewBox="0 0 25 25" fill="none" xmlns="http://www.w3.org/2000/svg">
<path d="M24.341 3.34694L16.9938 23.053C16.5266 24.306 15.1433 24.9743 13.9041 24.5456C13.2224 24.3097 12.6946 23.7734 12.4694 23.0879L9.95894 15.4436C9.84436 15.0947 9.57312 14.8235 9.22423 14.7089L1.57998 12.1984C0.333686 11.7891 -0.313475 10.4363 0.134503 9.17673C0.380917 8.48392 0.9256 7.93101 1.61485 7.67403L21.3209 0.326872C22.5739 -0.140311 23.9373 0.485547 24.366 1.72477C24.5464 2.24616 24.5375 2.81973 24.341 3.34694ZM22.6581 2.76474C22.7073 2.63294 22.7095 2.48955 22.6644 2.3592C22.5648 2.07152 22.2639 1.91607 21.9705 1.98884L21.9031 2.00973L2.19705 9.35689C2.02473 9.42113 1.88856 9.55936 1.82696 9.73256C1.72296 10.025 1.85504 10.3375 2.1239 10.4625L2.18833 10.488L9.83258 12.9985C10.6563 13.269 11.307 13.8889 11.618 14.6917L11.6694 14.8353L14.1799 22.4795C14.2361 22.6509 14.3681 22.785 14.5385 22.8439C14.8262 22.9435 15.1449 22.8065 15.2825 22.5356L15.3109 22.4708L22.6581 2.76474Z" fill="white"/>
<path d="M22.6581 2.76474C22.7073 2.63294 22.7095 2.48955 22.6644 2.3592C22.5648 2.07152 22.2639 1.91607 21.9705 1.98884L21.9031 2.00973L2.19705 9.35689C2.02473 9.42113 1.88856 9.55936 1.82696 9.73256C1.72296 10.025 1.85504 10.3375 2.1239 10.4625L2.18833 10.488L9.83258 12.9985C10.6563 13.269 11.307 13.8889 11.618 14.6917L11.6694 14.8353L14.1799 22.4795C14.2361 22.6509 14.3681 22.785 14.5385 22.8439C14.8262 22.9435 15.1449 22.8065 15.2825 22.5356L15.3109 22.4708L22.6581 2.76474Z" fill="white"/>
</svg>
