<svg width="24" height="24" viewBox="0 0 24 24" fill="none" xmlns="http://www.w3.org/2000/svg">
<path fill-rule="evenodd" clip-rule="evenodd" d="M12 0C14.8836 0 17.5296 1.0164 19.5984 2.712L17.532 4.3644C15.978 3.2364 14.0664 2.5716 11.9988 2.5716C6.7908 2.5716 2.5704 6.7932 2.5704 12C2.5704 17.208 6.792 21.4284 11.9988 21.4284C17.2068 21.4284 21.4272 17.2068 21.4272 12C21.4272 11.88 21.4248 11.76 21.4212 11.64L23.8176 9.9096C23.9376 10.5888 23.9988 11.2872 23.9988 12C23.9988 18.6276 18.6264 24 11.9988 24C5.3712 24 0 18.6276 0 12C0 5.3724 5.3724 0 12 0Z" fill="white"/>
<path fill-rule="evenodd" clip-rule="evenodd" d="M7.4856 9.07558L12 12L21.7416 4.85999L23.1888 7.21078L12 15.3876L7.4856 12.57V9.07558Z" fill="white"/>
</svg>
