<svg width="24" height="24" viewBox="0 0 24 24" fill="none" xmlns="http://www.w3.org/2000/svg">
<path fill-rule="evenodd" clip-rule="evenodd" d="M0 12C0 5.38317 5.38317 0 12 0C18.6168 0 24 5.38317 24 12C24 18.6168 18.6168 24 12 24C5.38317 24 0 18.6168 0 12ZM5.88694 16.0509C6.51469 16.0509 7.10269 15.8655 7.54392 15.528C8.08087 15.1172 8.38008 14.4983 8.3865 13.7852C8.39311 13.0468 8.09198 12.4505 7.49147 12.013C7.03903 11.6834 6.4927 11.496 5.96438 11.3148C5.93853 11.3059 5.90434 11.2942 5.86829 11.2818C5.77513 11.2498 5.66958 11.2135 5.66377 11.2117C4.74361 10.8707 4.58475 10.6252 4.58836 10.2236C4.59562 9.40987 5.43431 9.34861 5.68964 9.35156C6.16547 9.35367 6.92039 9.5887 6.92039 10.2104C6.92039 10.5987 7.2352 10.9135 7.62352 10.9135C8.01183 10.9135 8.32664 10.5987 8.32664 10.2104C8.32664 8.74683 6.97125 7.95103 5.69592 7.94531C5.06119 7.94203 4.46925 8.12822 4.02469 8.4683C3.48778 8.87906 3.18853 9.49795 3.18216 10.211C3.16777 11.8226 4.62609 12.3378 5.32697 12.5854C5.33745 12.5891 5.37124 12.6001 5.40768 12.6119C5.44637 12.6245 5.48806 12.6381 5.50805 12.6449C6.63492 13.0315 6.98508 13.2375 6.98025 13.7727C6.97303 14.5791 6.15047 14.6447 5.88605 14.6447L5.87897 14.6447C5.40314 14.6426 4.64822 14.4075 4.64822 13.7859C4.64822 13.3976 4.33341 13.0828 3.94509 13.0828C3.55678 13.0828 3.24197 13.3976 3.24197 13.7859C3.24197 15.2494 4.59736 16.0452 5.87269 16.0509H5.88694ZM12.4507 16.0547C13.6138 16.0547 14.5601 15.1084 14.5601 13.9453V10.0547C14.5601 8.89158 13.6138 7.94531 12.4507 7.94531H11.3726C10.2095 7.94531 9.2632 8.89158 9.2632 10.0547V13.9453C9.2632 15.1084 10.2095 16.0547 11.3726 16.0547H12.4507ZM18.3183 16.0509C18.946 16.0509 19.534 15.8655 19.9753 15.528C20.5122 15.1172 20.8114 14.4983 20.8178 13.7853C20.8245 13.0468 20.5233 12.4506 19.9228 12.013C19.4704 11.6834 18.924 11.496 18.3957 11.3148C18.3699 11.3059 18.3358 11.2942 18.2998 11.2818C18.2066 11.2498 18.1009 11.2135 18.0951 11.2117C17.175 10.8707 17.0161 10.6252 17.0198 10.2236C17.0271 9.40987 17.8627 9.35137 18.121 9.35156C18.5969 9.35367 19.3518 9.5887 19.3518 10.2104C19.3518 10.5987 19.6666 10.9135 20.0549 10.9135C20.4432 10.9135 20.758 10.5987 20.758 10.2104C20.758 8.74683 19.4026 7.95103 18.1273 7.94531L18.1131 7.94527C17.4853 7.94527 16.8973 8.1308 16.4561 8.4683C15.9192 8.87906 15.6199 9.49795 15.6135 10.211C15.5991 11.8226 17.0574 12.3377 17.7582 12.5853L17.7583 12.5854C17.7688 12.5891 17.8026 12.6001 17.839 12.6119C17.8777 12.6245 17.9194 12.6381 17.9394 12.6449C19.0663 13.0315 19.4164 13.2375 19.4116 13.7727C19.4043 14.5864 18.5675 14.6446 18.3103 14.6447C17.8344 14.6426 17.0796 14.4075 17.0796 13.7859C17.0796 13.3976 16.7648 13.0828 16.3764 13.0828C15.9881 13.0828 15.6733 13.3976 15.6733 13.7859C15.6733 15.2494 17.0287 16.0452 18.304 16.0509H18.3183ZM11.3358 9.4H12.4642C12.8699 9.4 13.2 9.70965 13.2 10.0903V13.9097C13.2 14.2903 12.8699 14.6 12.4642 14.6H11.3358C10.9301 14.6 10.6 14.2903 10.6 13.9097V10.0903C10.6 9.70965 10.9301 9.4 11.3358 9.4Z" fill="#E02B2B"/>
</svg>
