<svg width="345" height="260" viewBox="0 0 345 260" fill="none" xmlns="http://www.w3.org/2000/svg">
<rect x="0.9375" width="344" height="258" rx="16" fill="white"/>
<path d="M149.527 8.29545H145.982C145.845 7.53788 145.591 6.87121 145.22 6.29545C144.849 5.7197 144.394 5.23106 143.857 4.82954C143.319 4.42803 142.716 4.125 142.05 3.92045C141.391 3.71591 140.69 3.61364 139.947 3.61364C138.607 3.61364 137.406 3.95076 136.345 4.625C135.292 5.29924 134.459 6.28788 133.845 7.59091C133.239 8.89394 132.936 10.4848 132.936 12.3636C132.936 14.2576 133.239 15.8561 133.845 17.1591C134.459 18.4621 135.296 19.447 136.357 20.1136C137.417 20.7803 138.61 21.1136 139.936 21.1136C140.671 21.1136 141.368 21.0152 142.027 20.8182C142.694 20.6136 143.296 20.3144 143.834 19.9205C144.372 19.5265 144.826 19.0455 145.197 18.4773C145.576 17.9015 145.838 17.2424 145.982 16.5L149.527 16.5114C149.338 17.6553 148.97 18.7083 148.425 19.6705C147.887 20.625 147.194 21.4508 146.345 22.1477C145.504 22.8371 144.542 23.3712 143.459 23.75C142.375 24.1288 141.194 24.3182 139.913 24.3182C137.898 24.3182 136.103 23.8409 134.527 22.8864C132.951 21.9242 131.709 20.5492 130.8 18.7614C129.898 16.9735 129.447 14.8409 129.447 12.3636C129.447 9.87879 129.902 7.74621 130.811 5.96591C131.72 4.17803 132.963 2.80682 134.538 1.85227C136.114 0.890151 137.906 0.40909 139.913 0.40909C141.148 0.40909 142.3 0.587121 143.368 0.943182C144.444 1.29167 145.41 1.80682 146.266 2.48864C147.122 3.16288 147.83 3.98864 148.391 4.96591C148.951 5.93561 149.33 7.04545 149.527 8.29545ZM158.536 24.3864C157.429 24.3864 156.429 24.1818 155.536 23.7727C154.642 23.3561 153.933 22.7538 153.411 21.9659C152.895 21.178 152.638 20.2121 152.638 19.0682C152.638 18.0833 152.827 17.2727 153.206 16.6364C153.585 16 154.096 15.4962 154.74 15.125C155.384 14.7538 156.104 14.4735 156.899 14.2841C157.695 14.0947 158.505 13.9508 159.331 13.8523C160.376 13.7311 161.225 13.6326 161.876 13.5568C162.528 13.4735 163.001 13.3409 163.297 13.1591C163.592 12.9773 163.74 12.6818 163.74 12.2727V12.1932C163.74 11.2008 163.46 10.4318 162.899 9.88636C162.346 9.34091 161.52 9.06818 160.422 9.06818C159.278 9.06818 158.376 9.32197 157.717 9.82955C157.066 10.3295 156.615 10.8864 156.365 11.5L153.172 10.7727C153.551 9.71212 154.104 8.85606 154.831 8.20455C155.566 7.54545 156.411 7.06818 157.365 6.77273C158.32 6.4697 159.323 6.31818 160.376 6.31818C161.073 6.31818 161.812 6.40152 162.592 6.56818C163.38 6.72727 164.115 7.02273 164.797 7.45454C165.486 7.88636 166.051 8.50379 166.49 9.30682C166.929 10.1023 167.149 11.1364 167.149 12.4091V24H163.831V21.6136H163.695C163.475 22.053 163.145 22.4848 162.706 22.9091C162.267 23.3333 161.702 23.6856 161.013 23.9659C160.323 24.2462 159.498 24.3864 158.536 24.3864ZM159.274 21.6591C160.214 21.6591 161.017 21.4735 161.683 21.1023C162.357 20.7311 162.869 20.2462 163.217 19.6477C163.573 19.0417 163.751 18.3939 163.751 17.7045V15.4545C163.63 15.5758 163.395 15.6894 163.047 15.7955C162.706 15.8939 162.316 15.9811 161.876 16.0568C161.437 16.125 161.009 16.1894 160.592 16.25C160.176 16.303 159.827 16.3485 159.547 16.3864C158.888 16.4697 158.286 16.6098 157.74 16.8068C157.202 17.0038 156.77 17.2879 156.445 17.6591C156.126 18.0227 155.967 18.5076 155.967 19.1136C155.967 19.9545 156.278 20.5909 156.899 21.0227C157.52 21.447 158.312 21.6591 159.274 21.6591ZM171.675 24V6.54545H174.959V9.31818H175.141C175.459 8.37879 176.019 7.64015 176.822 7.10227C177.633 6.55682 178.55 6.28409 179.572 6.28409C179.785 6.28409 180.035 6.29167 180.322 6.30682C180.618 6.32197 180.849 6.34091 181.016 6.36364V9.61364C180.879 9.57576 180.637 9.53409 180.288 9.48864C179.94 9.43561 179.591 9.40909 179.243 9.40909C178.44 9.40909 177.724 9.57954 177.095 9.92045C176.474 10.2538 175.982 10.7197 175.618 11.3182C175.254 11.9091 175.072 12.5833 175.072 13.3409V24H171.675ZM189.865 24.3409C188.456 24.3409 187.198 23.9811 186.092 23.2614C184.994 22.5341 184.13 21.5 183.501 20.1591C182.88 18.8106 182.57 17.1932 182.57 15.3068C182.57 13.4205 182.884 11.8068 183.513 10.4659C184.149 9.125 185.02 8.09848 186.126 7.38636C187.232 6.67424 188.486 6.31818 189.888 6.31818C190.971 6.31818 191.842 6.5 192.501 6.86364C193.168 7.2197 193.683 7.63636 194.047 8.11364C194.418 8.59091 194.706 9.01136 194.911 9.375H195.115V0.727272H198.513V24H195.195V21.2841H194.911C194.706 21.6553 194.411 22.0795 194.024 22.5568C193.645 23.0341 193.123 23.4508 192.456 23.8068C191.789 24.1629 190.926 24.3409 189.865 24.3409ZM190.615 21.4432C191.592 21.4432 192.418 21.1856 193.092 20.6705C193.774 20.1477 194.289 19.4242 194.638 18.5C194.994 17.5758 195.172 16.5 195.172 15.2727C195.172 14.0606 194.998 13 194.649 12.0909C194.301 11.1818 193.789 10.4735 193.115 9.96591C192.441 9.45833 191.607 9.20455 190.615 9.20455C189.592 9.20455 188.74 9.4697 188.058 10C187.376 10.5303 186.861 11.2538 186.513 12.1705C186.172 13.0871 186.001 14.1212 186.001 15.2727C186.001 16.4394 186.176 17.4886 186.524 18.4205C186.873 19.3523 187.388 20.0909 188.07 20.6364C188.759 21.1742 189.607 21.4432 190.615 21.4432ZM216.442 10.8068L213.362 11.3523C213.233 10.9583 213.029 10.5833 212.749 10.2273C212.476 9.87121 212.105 9.57954 211.635 9.35227C211.165 9.125 210.578 9.01136 209.874 9.01136C208.911 9.01136 208.108 9.22727 207.464 9.65909C206.821 10.0833 206.499 10.6326 206.499 11.3068C206.499 11.8902 206.714 12.3598 207.146 12.7159C207.578 13.072 208.275 13.3636 209.237 13.5909L212.01 14.2273C213.616 14.5985 214.813 15.1705 215.601 15.9432C216.389 16.7159 216.783 17.7197 216.783 18.9545C216.783 20 216.48 20.9318 215.874 21.75C215.275 22.5606 214.438 23.197 213.362 23.6591C212.294 24.1212 211.055 24.3523 209.646 24.3523C207.692 24.3523 206.097 23.9356 204.862 23.1023C203.627 22.2614 202.87 21.0682 202.589 19.5227L205.874 19.0227C206.078 19.8788 206.499 20.5265 207.135 20.9659C207.771 21.3977 208.601 21.6136 209.624 21.6136C210.737 21.6136 211.627 21.3826 212.294 20.9205C212.961 20.4508 213.294 19.8788 213.294 19.2045C213.294 18.6591 213.089 18.2008 212.68 17.8295C212.279 17.4583 211.661 17.178 210.828 16.9886L207.874 16.3409C206.245 15.9697 205.04 15.3788 204.26 14.5682C203.487 13.7576 203.101 12.7311 203.101 11.4886C203.101 10.4583 203.389 9.55682 203.964 8.78409C204.54 8.01136 205.336 7.40909 206.351 6.97727C207.366 6.53788 208.529 6.31818 209.839 6.31818C211.726 6.31818 213.211 6.72727 214.294 7.54545C215.377 8.35606 216.093 9.44318 216.442 10.8068Z" fill="black"/>
<mask id="path-3-inside-1_32_1433" fill="white">
<path d="M16.9375 32H328.938V86H16.9375V32Z"/>
</mask>
<path d="M328.938 85H16.9375V87H328.938V85Z" fill="#E0E0E0" mask="url(#path-3-inside-1_32_1433)"/>
<circle cx="25.9375" cy="59" r="9" fill="#E6F7FF"/>
<path d="M17.5 59C17.5 54.3401 21.2776 50.5625 25.9375 50.5625C30.5974 50.5625 34.375 54.3401 34.375 59C34.375 63.6599 30.5974 67.4375 25.9375 67.4375C21.2776 67.4375 17.5 63.6599 17.5 59Z" fill="white" stroke="#AA8066" stroke-width="1.125"/>
<rect x="21.4375" y="54.5" width="9" height="9" rx="4.5" fill="#AA8066"/>
<rect x="83.9375" y="48" width="21" height="21" rx="6" fill="white"/>
<path d="M100.728 58.5506C100.728 60.7044 98.9856 62.4503 96.8359 62.4503C94.6862 62.4503 92.9435 60.7044 92.9435 58.5506C92.9435 56.3968 94.6862 54.6508 96.8359 54.6508C98.9856 54.6508 100.728 56.3968 100.728 58.5506Z" fill="#F79F1A"/>
<path d="M95.9264 58.5506C95.9264 60.7044 94.1838 62.4503 92.034 62.4503C89.8843 62.4503 88.1416 60.7044 88.1416 58.5506C88.1416 56.3968 89.8843 54.6508 92.034 54.6508C94.1838 54.6508 95.9264 56.3968 95.9264 58.5506Z" fill="#EA001B"/>
<path d="M94.435 55.4807C93.5268 56.1946 92.9438 57.304 92.9438 58.5502C92.9438 59.7965 93.5268 60.9067 94.435 61.6206C95.3431 60.9067 95.9261 59.7965 95.9261 58.5502C95.9261 57.304 95.3431 56.1946 94.435 55.4807Z" fill="#FF5F01"/>
<path d="M114.347 53.3636H116.028L119.983 63.0227H120.119L124.074 53.3636H125.756V65H124.438V56.1591H124.324L120.688 65H119.415L115.778 56.1591H115.665V65H114.347V53.3636ZM130.967 65.2045C130.414 65.2045 129.912 65.1004 129.462 64.892C129.011 64.6799 128.653 64.375 128.388 63.9773C128.123 63.5758 127.99 63.0909 127.99 62.5227C127.99 62.0227 128.089 61.6174 128.286 61.3068C128.482 60.9924 128.746 60.7462 129.075 60.5682C129.405 60.3902 129.768 60.2576 130.166 60.1705C130.568 60.0795 130.971 60.0076 131.376 59.9545C131.907 59.8864 132.337 59.8352 132.666 59.8011C133 59.7633 133.242 59.7008 133.393 59.6136C133.549 59.5265 133.626 59.375 133.626 59.1591V59.1136C133.626 58.553 133.473 58.1174 133.166 57.8068C132.863 57.4962 132.403 57.3409 131.786 57.3409C131.145 57.3409 130.643 57.4811 130.28 57.7614C129.916 58.0417 129.661 58.3409 129.513 58.6591L128.24 58.2045C128.467 57.6742 128.77 57.2614 129.149 56.9659C129.532 56.6667 129.948 56.4583 130.399 56.3409C130.854 56.2197 131.301 56.1591 131.74 56.1591C132.02 56.1591 132.342 56.1932 132.706 56.2614C133.073 56.3258 133.428 56.4602 133.768 56.6648C134.113 56.8693 134.399 57.178 134.626 57.5909C134.854 58.0038 134.967 58.5568 134.967 59.25V65H133.626V63.8182H133.558C133.467 64.0076 133.316 64.2102 133.104 64.4261C132.892 64.642 132.609 64.8258 132.257 64.9773C131.905 65.1288 131.475 65.2045 130.967 65.2045ZM131.172 64C131.702 64 132.149 63.8958 132.513 63.6875C132.88 63.4792 133.157 63.2102 133.342 62.8807C133.532 62.5511 133.626 62.2045 133.626 61.8409V60.6136C133.57 60.6818 133.445 60.7443 133.251 60.8011C133.062 60.8542 132.842 60.9015 132.592 60.9432C132.346 60.9811 132.106 61.0152 131.871 61.0455C131.64 61.072 131.452 61.0947 131.308 61.1136C130.96 61.1591 130.634 61.233 130.331 61.3352C130.032 61.4337 129.789 61.5833 129.604 61.7841C129.422 61.9811 129.331 62.25 129.331 62.5909C129.331 63.0568 129.503 63.4091 129.848 63.6477C130.196 63.8826 130.638 64 131.172 64ZM143.597 58.2273L142.392 58.5682C142.316 58.3674 142.205 58.1723 142.057 57.983C141.913 57.7898 141.716 57.6307 141.466 57.5057C141.216 57.3807 140.896 57.3182 140.506 57.3182C139.972 57.3182 139.527 57.4413 139.17 57.6875C138.818 57.9299 138.642 58.2386 138.642 58.6136C138.642 58.947 138.763 59.2102 139.006 59.4034C139.248 59.5966 139.627 59.7576 140.142 59.8864L141.438 60.2045C142.218 60.3939 142.799 60.6837 143.182 61.0739C143.564 61.4602 143.756 61.9583 143.756 62.5682C143.756 63.0682 143.612 63.5152 143.324 63.9091C143.04 64.303 142.642 64.6136 142.131 64.8409C141.619 65.0682 141.025 65.1818 140.347 65.1818C139.456 65.1818 138.72 64.9886 138.136 64.6023C137.553 64.2159 137.184 63.6515 137.028 62.9091L138.301 62.5909C138.422 63.0606 138.652 63.4129 138.989 63.6477C139.33 63.8826 139.775 64 140.324 64C140.949 64 141.445 63.8674 141.812 63.6023C142.184 63.3333 142.369 63.0114 142.369 62.6364C142.369 62.3333 142.263 62.0795 142.051 61.875C141.839 61.6667 141.513 61.5114 141.074 61.4091L139.619 61.0682C138.82 60.8788 138.233 60.5852 137.858 60.1875C137.487 59.786 137.301 59.2841 137.301 58.6818C137.301 58.1894 137.439 57.7538 137.716 57.375C137.996 56.9962 138.377 56.6989 138.858 56.483C139.343 56.267 139.892 56.1591 140.506 56.1591C141.369 56.1591 142.047 56.3485 142.54 56.7273C143.036 57.1061 143.388 57.6061 143.597 58.2273ZM149.57 56.2727V57.4091H145.047V56.2727H149.57ZM146.365 54.1818H147.706V62.5C147.706 62.8788 147.761 63.1629 147.871 63.3523C147.984 63.5379 148.128 63.6629 148.303 63.7273C148.481 63.7879 148.668 63.8182 148.865 63.8182C149.013 63.8182 149.134 63.8106 149.229 63.7955C149.323 63.7765 149.399 63.7614 149.456 63.75L149.729 64.9545C149.638 64.9886 149.511 65.0227 149.348 65.0568C149.185 65.0947 148.979 65.1136 148.729 65.1136C148.35 65.1136 147.979 65.0322 147.615 64.8693C147.255 64.7064 146.956 64.4583 146.717 64.125C146.482 63.7917 146.365 63.3712 146.365 62.8636V54.1818ZM155.152 65.1818C154.311 65.1818 153.586 64.9962 152.976 64.625C152.37 64.25 151.902 63.7273 151.572 63.0568C151.247 62.3826 151.084 61.5985 151.084 60.7045C151.084 59.8106 151.247 59.0227 151.572 58.3409C151.902 57.6553 152.36 57.1212 152.947 56.7386C153.538 56.3523 154.228 56.1591 155.016 56.1591C155.47 56.1591 155.919 56.2348 156.362 56.3864C156.805 56.5379 157.209 56.7841 157.572 57.125C157.936 57.4621 158.226 57.9091 158.442 58.4659C158.658 59.0227 158.766 59.7083 158.766 60.5227V61.0909H152.038V59.9318H157.402C157.402 59.4394 157.304 59 157.107 58.6136C156.913 58.2273 156.637 57.9223 156.277 57.6989C155.921 57.4754 155.5 57.3636 155.016 57.3636C154.482 57.3636 154.019 57.4962 153.629 57.7614C153.243 58.0227 152.946 58.3636 152.737 58.7841C152.529 59.2045 152.425 59.6553 152.425 60.1364V60.9091C152.425 61.5682 152.538 62.1269 152.766 62.5852C152.997 63.0398 153.317 63.3864 153.726 63.625C154.135 63.8598 154.61 63.9773 155.152 63.9773C155.504 63.9773 155.822 63.928 156.107 63.8295C156.394 63.7273 156.643 63.5758 156.851 63.375C157.059 63.1705 157.22 62.9167 157.334 62.6136L158.629 62.9773C158.493 63.4167 158.264 63.803 157.942 64.1364C157.62 64.4659 157.222 64.7235 156.749 64.9091C156.275 65.0909 155.743 65.1818 155.152 65.1818ZM160.805 65V56.2727H162.101V57.5909H162.192C162.351 57.1591 162.639 56.8087 163.055 56.5398C163.472 56.2708 163.942 56.1364 164.464 56.1364C164.563 56.1364 164.686 56.1383 164.834 56.142C164.982 56.1458 165.093 56.1515 165.169 56.1591V57.5227C165.124 57.5114 165.019 57.4943 164.857 57.4716C164.697 57.4451 164.529 57.4318 164.351 57.4318C163.927 57.4318 163.548 57.5208 163.214 57.6989C162.885 57.8731 162.624 58.1155 162.43 58.4261C162.241 58.733 162.146 59.0833 162.146 59.4773V65H160.805ZM170.038 65.1818C169.22 65.1818 168.516 64.9886 167.925 64.6023C167.334 64.2159 166.879 63.6837 166.561 63.0057C166.243 62.3277 166.084 61.553 166.084 60.6818C166.084 59.7955 166.247 59.0133 166.572 58.3352C166.902 57.6534 167.36 57.1212 167.947 56.7386C168.538 56.3523 169.228 56.1591 170.016 56.1591C170.629 56.1591 171.182 56.2727 171.675 56.5C172.167 56.7273 172.571 57.0455 172.885 57.4545C173.199 57.8636 173.394 58.3409 173.47 58.8864H172.129C172.027 58.4886 171.8 58.1364 171.447 57.8295C171.099 57.5189 170.629 57.3636 170.038 57.3636C169.516 57.3636 169.057 57.5 168.663 57.7727C168.273 58.0417 167.968 58.4223 167.749 58.9148C167.533 59.4034 167.425 59.9773 167.425 60.6364C167.425 61.3106 167.531 61.8977 167.743 62.3977C167.959 62.8977 168.262 63.286 168.652 63.5625C169.046 63.839 169.508 63.9773 170.038 63.9773C170.387 63.9773 170.703 63.9167 170.987 63.7955C171.271 63.6742 171.512 63.5 171.709 63.2727C171.906 63.0455 172.046 62.7727 172.129 62.4545H173.47C173.394 62.9697 173.207 63.4337 172.908 63.8466C172.612 64.2557 172.22 64.5814 171.732 64.8239C171.247 65.0625 170.682 65.1818 170.038 65.1818ZM177.999 65.2045C177.446 65.2045 176.944 65.1004 176.493 64.892C176.042 64.6799 175.684 64.375 175.419 63.9773C175.154 63.5758 175.021 63.0909 175.021 62.5227C175.021 62.0227 175.12 61.6174 175.317 61.3068C175.514 60.9924 175.777 60.7462 176.107 60.5682C176.436 60.3902 176.8 60.2576 177.197 60.1705C177.599 60.0795 178.002 60.0076 178.408 59.9545C178.938 59.8864 179.368 59.8352 179.697 59.8011C180.031 59.7633 180.273 59.7008 180.425 59.6136C180.58 59.5265 180.658 59.375 180.658 59.1591V59.1136C180.658 58.553 180.504 58.1174 180.197 57.8068C179.894 57.4962 179.434 57.3409 178.817 57.3409C178.177 57.3409 177.675 57.4811 177.311 57.7614C176.947 58.0417 176.692 58.3409 176.544 58.6591L175.271 58.2045C175.499 57.6742 175.802 57.2614 176.18 56.9659C176.563 56.6667 176.98 56.4583 177.43 56.3409C177.885 56.2197 178.332 56.1591 178.771 56.1591C179.052 56.1591 179.374 56.1932 179.737 56.2614C180.105 56.3258 180.459 56.4602 180.8 56.6648C181.144 56.8693 181.43 57.178 181.658 57.5909C181.885 58.0038 181.999 58.5568 181.999 59.25V65H180.658V63.8182H180.589C180.499 64.0076 180.347 64.2102 180.135 64.4261C179.923 64.642 179.641 64.8258 179.288 64.9773C178.936 65.1288 178.506 65.2045 177.999 65.2045ZM178.203 64C178.733 64 179.18 63.8958 179.544 63.6875C179.911 63.4792 180.188 63.2102 180.374 62.8807C180.563 62.5511 180.658 62.2045 180.658 61.8409V60.6136C180.601 60.6818 180.476 60.7443 180.283 60.8011C180.093 60.8542 179.874 60.9015 179.624 60.9432C179.377 60.9811 179.137 61.0152 178.902 61.0455C178.671 61.072 178.483 61.0947 178.339 61.1136C177.991 61.1591 177.665 61.233 177.362 61.3352C177.063 61.4337 176.821 61.5833 176.635 61.7841C176.453 61.9811 176.362 62.25 176.362 62.5909C176.362 63.0568 176.535 63.4091 176.879 63.6477C177.228 63.8826 177.669 64 178.203 64ZM184.446 65V56.2727H185.741V57.5909H185.832C185.991 57.1591 186.279 56.8087 186.696 56.5398C187.113 56.2708 187.582 56.1364 188.105 56.1364C188.204 56.1364 188.327 56.1383 188.474 56.142C188.622 56.1458 188.734 56.1515 188.81 56.1591V57.5227C188.764 57.5114 188.66 57.4943 188.497 57.4716C188.338 57.4451 188.17 57.4318 187.991 57.4318C187.567 57.4318 187.188 57.5208 186.855 57.6989C186.526 57.8731 186.264 58.1155 186.071 58.4261C185.882 58.733 185.787 59.0833 185.787 59.4773V65H184.446ZM193.429 65.1818C192.702 65.1818 192.06 64.9981 191.503 64.6307C190.946 64.2595 190.51 63.7367 190.196 63.0625C189.882 62.3845 189.724 61.5833 189.724 60.6591C189.724 59.7424 189.882 58.947 190.196 58.2727C190.51 57.5985 190.948 57.0777 191.509 56.7102C192.069 56.3428 192.717 56.1591 193.452 56.1591C194.02 56.1591 194.469 56.2538 194.798 56.4432C195.132 56.6288 195.385 56.8409 195.56 57.0795C195.738 57.3144 195.876 57.5076 195.974 57.6591H196.088V53.3636H197.429V65H196.134V63.6591H195.974C195.876 63.8182 195.736 64.0189 195.554 64.2614C195.372 64.5 195.113 64.714 194.776 64.9034C194.438 65.089 193.99 65.1818 193.429 65.1818ZM193.611 63.9773C194.149 63.9773 194.603 63.8371 194.974 63.5568C195.346 63.2727 195.628 62.8807 195.821 62.3807C196.014 61.8769 196.111 61.2955 196.111 60.6364C196.111 59.9848 196.016 59.4148 195.827 58.9261C195.637 58.4337 195.357 58.0511 194.986 57.7784C194.615 57.5019 194.156 57.3636 193.611 57.3636C193.043 57.3636 192.569 57.5095 192.19 57.8011C191.815 58.089 191.533 58.4811 191.344 58.9773C191.158 59.4697 191.065 60.0227 191.065 60.6364C191.065 61.2576 191.16 61.822 191.349 62.3295C191.543 62.8333 191.827 63.2348 192.202 63.5341C192.58 63.8295 193.05 63.9773 193.611 63.9773ZM205.548 65.0909C205.268 65.0909 205.027 64.9905 204.827 64.7898C204.626 64.589 204.526 64.3485 204.526 64.0682C204.526 63.7879 204.626 63.5473 204.827 63.3466C205.027 63.1458 205.268 63.0455 205.548 63.0455C205.829 63.0455 206.069 63.1458 206.27 63.3466C206.471 63.5473 206.571 63.7879 206.571 64.0682C206.571 64.2538 206.524 64.4242 206.429 64.5795C206.338 64.7348 206.215 64.8598 206.06 64.9545C205.908 65.0455 205.738 65.0909 205.548 65.0909ZM209.912 65.0909C209.632 65.0909 209.391 64.9905 209.19 64.7898C208.99 64.589 208.889 64.3485 208.889 64.0682C208.889 63.7879 208.99 63.5473 209.19 63.3466C209.391 63.1458 209.632 63.0455 209.912 63.0455C210.192 63.0455 210.433 63.1458 210.634 63.3466C210.834 63.5473 210.935 63.7879 210.935 64.0682C210.935 64.2538 210.887 64.4242 210.793 64.5795C210.702 64.7348 210.579 64.8598 210.423 64.9545C210.272 65.0455 210.101 65.0909 209.912 65.0909ZM214.276 65.0909C213.995 65.0909 213.755 64.9905 213.554 64.7898C213.353 64.589 213.253 64.3485 213.253 64.0682C213.253 63.7879 213.353 63.5473 213.554 63.3466C213.755 63.1458 213.995 63.0455 214.276 63.0455C214.556 63.0455 214.796 63.1458 214.997 63.3466C215.198 63.5473 215.298 63.7879 215.298 64.0682C215.298 64.2538 215.251 64.4242 215.156 64.5795C215.065 64.7348 214.942 64.8598 214.787 64.9545C214.635 65.0455 214.465 65.0909 214.276 65.0909ZM226.28 53.3636V65H224.871V54.8409H224.803L221.962 56.7273V55.2955L224.871 53.3636H226.28ZM229.626 65V63.9773L233.467 59.7727C233.918 59.2803 234.289 58.8523 234.581 58.4886C234.873 58.1212 235.089 57.7765 235.229 57.4545C235.373 57.1288 235.445 56.7879 235.445 56.4318C235.445 56.0227 235.346 55.6686 235.149 55.3693C234.956 55.0701 234.691 54.839 234.354 54.6761C234.017 54.5133 233.638 54.4318 233.217 54.4318C232.77 54.4318 232.38 54.5246 232.047 54.7102C231.717 54.892 231.462 55.1477 231.28 55.4773C231.102 55.8068 231.013 56.1932 231.013 56.6364H229.672C229.672 55.9545 229.829 55.3561 230.143 54.8409C230.458 54.3258 230.886 53.9242 231.428 53.6364C231.973 53.3485 232.585 53.2045 233.263 53.2045C233.945 53.2045 234.549 53.3485 235.075 53.6364C235.602 53.9242 236.015 54.3125 236.314 54.8011C236.613 55.2898 236.763 55.8333 236.763 56.4318C236.763 56.8598 236.685 57.2784 236.53 57.6875C236.378 58.0928 236.113 58.5455 235.734 59.0455C235.359 59.5417 234.839 60.1477 234.172 60.8636L231.558 63.6591V63.75H236.967V65H229.626ZM243.246 65.1591C242.496 65.1591 241.827 65.0303 241.24 64.7727C240.657 64.5152 240.193 64.1572 239.848 63.6989C239.507 63.2367 239.321 62.7008 239.291 62.0909H240.723C240.753 62.4659 240.882 62.7898 241.109 63.0625C241.337 63.3314 241.634 63.5398 242.001 63.6875C242.369 63.8352 242.776 63.9091 243.223 63.9091C243.723 63.9091 244.166 63.822 244.553 63.6477C244.939 63.4735 245.242 63.2311 245.462 62.9205C245.681 62.6098 245.791 62.25 245.791 61.8409C245.791 61.4129 245.685 61.036 245.473 60.7102C245.261 60.3807 244.95 60.1231 244.541 59.9375C244.132 59.7519 243.632 59.6591 243.041 59.6591H242.109V58.4091H243.041C243.503 58.4091 243.909 58.3258 244.257 58.1591C244.609 57.9924 244.884 57.7576 245.081 57.4545C245.282 57.1515 245.382 56.7955 245.382 56.3864C245.382 55.9924 245.295 55.6496 245.121 55.358C244.946 55.0663 244.7 54.839 244.382 54.6761C244.068 54.5133 243.696 54.4318 243.268 54.4318C242.867 54.4318 242.488 54.5057 242.132 54.6534C241.78 54.7973 241.492 55.0076 241.268 55.2841C241.045 55.5568 240.924 55.8864 240.905 56.2727H239.541C239.564 55.6629 239.748 55.1288 240.092 54.6705C240.437 54.2083 240.888 53.8485 241.445 53.5909C242.005 53.3333 242.621 53.2045 243.291 53.2045C244.011 53.2045 244.628 53.3504 245.143 53.642C245.659 53.9299 246.054 54.3106 246.331 54.7841C246.607 55.2576 246.746 55.7689 246.746 56.3182C246.746 56.9735 246.573 57.5322 246.229 57.9943C245.888 58.4564 245.424 58.7765 244.837 58.9545V59.0455C245.571 59.1667 246.145 59.4792 246.558 59.983C246.971 60.483 247.178 61.1023 247.178 61.8409C247.178 62.4735 247.005 63.0417 246.661 63.5455C246.32 64.0455 245.854 64.4394 245.263 64.7273C244.672 65.0152 244 65.1591 243.246 65.1591ZM249.229 62.6136V61.4545L254.342 53.3636H255.183V55.1591H254.615L250.751 61.2727V61.3636H257.638V62.6136H249.229ZM254.706 65V62.2614V61.7216V53.3636H256.047V65H254.706Z" fill="#292929"/>
<path d="M314.875 51.3104H314.687C314.79 51.3104 314.875 51.226 314.875 51.1229V51.3104H322V51.1229C322 51.226 322.084 51.3104 322.187 51.3104H322V52.9979H323.687V51.1229C323.687 50.2955 323.014 49.6229 322.187 49.6229H314.687C313.86 49.6229 313.187 50.2955 313.187 51.1229V52.9979H314.875V51.3104ZM326.687 52.9979H310.187C309.772 52.9979 309.437 53.333 309.437 53.7479V54.4979C309.437 54.601 309.522 54.6854 309.625 54.6854H311.04L311.619 66.9432C311.657 67.7424 312.318 68.3729 313.117 68.3729H323.757C324.559 68.3729 325.218 67.7447 325.255 66.9432L325.834 54.6854H327.25C327.353 54.6854 327.437 54.601 327.437 54.4979V53.7479C327.437 53.333 327.102 52.9979 326.687 52.9979ZM323.577 66.6854H313.297L312.73 54.6854H324.144L323.577 66.6854Z" fill="#AA8066"/>
<mask id="path-14-inside-2_32_1433" fill="white">
<path d="M16.9375 94H328.938V148H16.9375V94Z"/>
</mask>
<path d="M328.938 147H16.9375V149H328.938V147Z" fill="#E0E0E0" mask="url(#path-14-inside-2_32_1433)"/>
<circle cx="25.9375" cy="121" r="9" fill="#E6F7FF"/>
<path d="M17.5 121C17.5 116.34 21.2776 112.562 25.9375 112.562C30.5974 112.562 34.375 116.34 34.375 121C34.375 125.66 30.5974 129.438 25.9375 129.438C21.2776 129.438 17.5 125.66 17.5 121Z" fill="white" stroke="#BDBDBD" stroke-width="1.125"/>
<rect x="83.9375" y="110" width="21" height="21" rx="6" fill="white"/>
<path d="M100.728 120.551C100.728 122.704 98.9856 124.45 96.8359 124.45C94.6862 124.45 92.9435 122.704 92.9435 120.551C92.9435 118.397 94.6862 116.651 96.8359 116.651C98.9856 116.651 100.728 118.397 100.728 120.551Z" fill="#F79F1A"/>
<path d="M95.9264 120.551C95.9264 122.704 94.1838 124.45 92.034 124.45C89.8843 124.45 88.1416 122.704 88.1416 120.551C88.1416 118.397 89.8843 116.651 92.034 116.651C94.1838 116.651 95.9264 118.397 95.9264 120.551Z" fill="#EA001B"/>
<path d="M94.435 117.481C93.5268 118.195 92.9438 119.304 92.9438 120.55C92.9438 121.796 93.5268 122.907 94.435 123.621C95.3431 122.907 95.9261 121.796 95.9261 120.55C95.9261 119.304 95.3431 118.195 94.435 117.481Z" fill="#FF5F01"/>
<path d="M114.347 115.364H116.028L119.983 125.023H120.119L124.074 115.364H125.756V127H124.438V118.159H124.324L120.688 127H119.415L115.778 118.159H115.665V127H114.347V115.364ZM130.967 127.205C130.414 127.205 129.912 127.1 129.462 126.892C129.011 126.68 128.653 126.375 128.388 125.977C128.123 125.576 127.99 125.091 127.99 124.523C127.99 124.023 128.089 123.617 128.286 123.307C128.482 122.992 128.746 122.746 129.075 122.568C129.405 122.39 129.768 122.258 130.166 122.17C130.568 122.08 130.971 122.008 131.376 121.955C131.907 121.886 132.337 121.835 132.666 121.801C133 121.763 133.242 121.701 133.393 121.614C133.549 121.527 133.626 121.375 133.626 121.159V121.114C133.626 120.553 133.473 120.117 133.166 119.807C132.863 119.496 132.403 119.341 131.786 119.341C131.145 119.341 130.643 119.481 130.28 119.761C129.916 120.042 129.661 120.341 129.513 120.659L128.24 120.205C128.467 119.674 128.77 119.261 129.149 118.966C129.532 118.667 129.948 118.458 130.399 118.341C130.854 118.22 131.301 118.159 131.74 118.159C132.02 118.159 132.342 118.193 132.706 118.261C133.073 118.326 133.428 118.46 133.768 118.665C134.113 118.869 134.399 119.178 134.626 119.591C134.854 120.004 134.967 120.557 134.967 121.25V127H133.626V125.818H133.558C133.467 126.008 133.316 126.21 133.104 126.426C132.892 126.642 132.609 126.826 132.257 126.977C131.905 127.129 131.475 127.205 130.967 127.205ZM131.172 126C131.702 126 132.149 125.896 132.513 125.688C132.88 125.479 133.157 125.21 133.342 124.881C133.532 124.551 133.626 124.205 133.626 123.841V122.614C133.57 122.682 133.445 122.744 133.251 122.801C133.062 122.854 132.842 122.902 132.592 122.943C132.346 122.981 132.106 123.015 131.871 123.045C131.64 123.072 131.452 123.095 131.308 123.114C130.96 123.159 130.634 123.233 130.331 123.335C130.032 123.434 129.789 123.583 129.604 123.784C129.422 123.981 129.331 124.25 129.331 124.591C129.331 125.057 129.503 125.409 129.848 125.648C130.196 125.883 130.638 126 131.172 126ZM143.597 120.227L142.392 120.568C142.316 120.367 142.205 120.172 142.057 119.983C141.913 119.79 141.716 119.631 141.466 119.506C141.216 119.381 140.896 119.318 140.506 119.318C139.972 119.318 139.527 119.441 139.17 119.688C138.818 119.93 138.642 120.239 138.642 120.614C138.642 120.947 138.763 121.21 139.006 121.403C139.248 121.597 139.627 121.758 140.142 121.886L141.438 122.205C142.218 122.394 142.799 122.684 143.182 123.074C143.564 123.46 143.756 123.958 143.756 124.568C143.756 125.068 143.612 125.515 143.324 125.909C143.04 126.303 142.642 126.614 142.131 126.841C141.619 127.068 141.025 127.182 140.347 127.182C139.456 127.182 138.72 126.989 138.136 126.602C137.553 126.216 137.184 125.652 137.028 124.909L138.301 124.591C138.422 125.061 138.652 125.413 138.989 125.648C139.33 125.883 139.775 126 140.324 126C140.949 126 141.445 125.867 141.812 125.602C142.184 125.333 142.369 125.011 142.369 124.636C142.369 124.333 142.263 124.08 142.051 123.875C141.839 123.667 141.513 123.511 141.074 123.409L139.619 123.068C138.82 122.879 138.233 122.585 137.858 122.188C137.487 121.786 137.301 121.284 137.301 120.682C137.301 120.189 137.439 119.754 137.716 119.375C137.996 118.996 138.377 118.699 138.858 118.483C139.343 118.267 139.892 118.159 140.506 118.159C141.369 118.159 142.047 118.348 142.54 118.727C143.036 119.106 143.388 119.606 143.597 120.227ZM149.57 118.273V119.409H145.047V118.273H149.57ZM146.365 116.182H147.706V124.5C147.706 124.879 147.761 125.163 147.871 125.352C147.984 125.538 148.128 125.663 148.303 125.727C148.481 125.788 148.668 125.818 148.865 125.818C149.013 125.818 149.134 125.811 149.229 125.795C149.323 125.777 149.399 125.761 149.456 125.75L149.729 126.955C149.638 126.989 149.511 127.023 149.348 127.057C149.185 127.095 148.979 127.114 148.729 127.114C148.35 127.114 147.979 127.032 147.615 126.869C147.255 126.706 146.956 126.458 146.717 126.125C146.482 125.792 146.365 125.371 146.365 124.864V116.182ZM155.152 127.182C154.311 127.182 153.586 126.996 152.976 126.625C152.37 126.25 151.902 125.727 151.572 125.057C151.247 124.383 151.084 123.598 151.084 122.705C151.084 121.811 151.247 121.023 151.572 120.341C151.902 119.655 152.36 119.121 152.947 118.739C153.538 118.352 154.228 118.159 155.016 118.159C155.47 118.159 155.919 118.235 156.362 118.386C156.805 118.538 157.209 118.784 157.572 119.125C157.936 119.462 158.226 119.909 158.442 120.466C158.658 121.023 158.766 121.708 158.766 122.523V123.091H152.038V121.932H157.402C157.402 121.439 157.304 121 157.107 120.614C156.913 120.227 156.637 119.922 156.277 119.699C155.921 119.475 155.5 119.364 155.016 119.364C154.482 119.364 154.019 119.496 153.629 119.761C153.243 120.023 152.946 120.364 152.737 120.784C152.529 121.205 152.425 121.655 152.425 122.136V122.909C152.425 123.568 152.538 124.127 152.766 124.585C152.997 125.04 153.317 125.386 153.726 125.625C154.135 125.86 154.61 125.977 155.152 125.977C155.504 125.977 155.822 125.928 156.107 125.83C156.394 125.727 156.643 125.576 156.851 125.375C157.059 125.17 157.22 124.917 157.334 124.614L158.629 124.977C158.493 125.417 158.264 125.803 157.942 126.136C157.62 126.466 157.222 126.723 156.749 126.909C156.275 127.091 155.743 127.182 155.152 127.182ZM160.805 127V118.273H162.101V119.591H162.192C162.351 119.159 162.639 118.809 163.055 118.54C163.472 118.271 163.942 118.136 164.464 118.136C164.563 118.136 164.686 118.138 164.834 118.142C164.982 118.146 165.093 118.152 165.169 118.159V119.523C165.124 119.511 165.019 119.494 164.857 119.472C164.697 119.445 164.529 119.432 164.351 119.432C163.927 119.432 163.548 119.521 163.214 119.699C162.885 119.873 162.624 120.116 162.43 120.426C162.241 120.733 162.146 121.083 162.146 121.477V127H160.805ZM170.038 127.182C169.22 127.182 168.516 126.989 167.925 126.602C167.334 126.216 166.879 125.684 166.561 125.006C166.243 124.328 166.084 123.553 166.084 122.682C166.084 121.795 166.247 121.013 166.572 120.335C166.902 119.653 167.36 119.121 167.947 118.739C168.538 118.352 169.228 118.159 170.016 118.159C170.629 118.159 171.182 118.273 171.675 118.5C172.167 118.727 172.571 119.045 172.885 119.455C173.199 119.864 173.394 120.341 173.47 120.886H172.129C172.027 120.489 171.8 120.136 171.447 119.83C171.099 119.519 170.629 119.364 170.038 119.364C169.516 119.364 169.057 119.5 168.663 119.773C168.273 120.042 167.968 120.422 167.749 120.915C167.533 121.403 167.425 121.977 167.425 122.636C167.425 123.311 167.531 123.898 167.743 124.398C167.959 124.898 168.262 125.286 168.652 125.562C169.046 125.839 169.508 125.977 170.038 125.977C170.387 125.977 170.703 125.917 170.987 125.795C171.271 125.674 171.512 125.5 171.709 125.273C171.906 125.045 172.046 124.773 172.129 124.455H173.47C173.394 124.97 173.207 125.434 172.908 125.847C172.612 126.256 172.22 126.581 171.732 126.824C171.247 127.062 170.682 127.182 170.038 127.182ZM177.999 127.205C177.446 127.205 176.944 127.1 176.493 126.892C176.042 126.68 175.684 126.375 175.419 125.977C175.154 125.576 175.021 125.091 175.021 124.523C175.021 124.023 175.12 123.617 175.317 123.307C175.514 122.992 175.777 122.746 176.107 122.568C176.436 122.39 176.8 122.258 177.197 122.17C177.599 122.08 178.002 122.008 178.408 121.955C178.938 121.886 179.368 121.835 179.697 121.801C180.031 121.763 180.273 121.701 180.425 121.614C180.58 121.527 180.658 121.375 180.658 121.159V121.114C180.658 120.553 180.504 120.117 180.197 119.807C179.894 119.496 179.434 119.341 178.817 119.341C178.177 119.341 177.675 119.481 177.311 119.761C176.947 120.042 176.692 120.341 176.544 120.659L175.271 120.205C175.499 119.674 175.802 119.261 176.18 118.966C176.563 118.667 176.98 118.458 177.43 118.341C177.885 118.22 178.332 118.159 178.771 118.159C179.052 118.159 179.374 118.193 179.737 118.261C180.105 118.326 180.459 118.46 180.8 118.665C181.144 118.869 181.43 119.178 181.658 119.591C181.885 120.004 181.999 120.557 181.999 121.25V127H180.658V125.818H180.589C180.499 126.008 180.347 126.21 180.135 126.426C179.923 126.642 179.641 126.826 179.288 126.977C178.936 127.129 178.506 127.205 177.999 127.205ZM178.203 126C178.733 126 179.18 125.896 179.544 125.688C179.911 125.479 180.188 125.21 180.374 124.881C180.563 124.551 180.658 124.205 180.658 123.841V122.614C180.601 122.682 180.476 122.744 180.283 122.801C180.093 122.854 179.874 122.902 179.624 122.943C179.377 122.981 179.137 123.015 178.902 123.045C178.671 123.072 178.483 123.095 178.339 123.114C177.991 123.159 177.665 123.233 177.362 123.335C177.063 123.434 176.821 123.583 176.635 123.784C176.453 123.981 176.362 124.25 176.362 124.591C176.362 125.057 176.535 125.409 176.879 125.648C177.228 125.883 177.669 126 178.203 126ZM184.446 127V118.273H185.741V119.591H185.832C185.991 119.159 186.279 118.809 186.696 118.54C187.113 118.271 187.582 118.136 188.105 118.136C188.204 118.136 188.327 118.138 188.474 118.142C188.622 118.146 188.734 118.152 188.81 118.159V119.523C188.764 119.511 188.66 119.494 188.497 119.472C188.338 119.445 188.17 119.432 187.991 119.432C187.567 119.432 187.188 119.521 186.855 119.699C186.526 119.873 186.264 120.116 186.071 120.426C185.882 120.733 185.787 121.083 185.787 121.477V127H184.446ZM193.429 127.182C192.702 127.182 192.06 126.998 191.503 126.631C190.946 126.259 190.51 125.737 190.196 125.062C189.882 124.384 189.724 123.583 189.724 122.659C189.724 121.742 189.882 120.947 190.196 120.273C190.51 119.598 190.948 119.078 191.509 118.71C192.069 118.343 192.717 118.159 193.452 118.159C194.02 118.159 194.469 118.254 194.798 118.443C195.132 118.629 195.385 118.841 195.56 119.08C195.738 119.314 195.876 119.508 195.974 119.659H196.088V115.364H197.429V127H196.134V125.659H195.974C195.876 125.818 195.736 126.019 195.554 126.261C195.372 126.5 195.113 126.714 194.776 126.903C194.438 127.089 193.99 127.182 193.429 127.182ZM193.611 125.977C194.149 125.977 194.603 125.837 194.974 125.557C195.346 125.273 195.628 124.881 195.821 124.381C196.014 123.877 196.111 123.295 196.111 122.636C196.111 121.985 196.016 121.415 195.827 120.926C195.637 120.434 195.357 120.051 194.986 119.778C194.615 119.502 194.156 119.364 193.611 119.364C193.043 119.364 192.569 119.509 192.19 119.801C191.815 120.089 191.533 120.481 191.344 120.977C191.158 121.47 191.065 122.023 191.065 122.636C191.065 123.258 191.16 123.822 191.349 124.33C191.543 124.833 191.827 125.235 192.202 125.534C192.58 125.83 193.05 125.977 193.611 125.977ZM205.548 127.091C205.268 127.091 205.027 126.991 204.827 126.79C204.626 126.589 204.526 126.348 204.526 126.068C204.526 125.788 204.626 125.547 204.827 125.347C205.027 125.146 205.268 125.045 205.548 125.045C205.829 125.045 206.069 125.146 206.27 125.347C206.471 125.547 206.571 125.788 206.571 126.068C206.571 126.254 206.524 126.424 206.429 126.58C206.338 126.735 206.215 126.86 206.06 126.955C205.908 127.045 205.738 127.091 205.548 127.091ZM209.912 127.091C209.632 127.091 209.391 126.991 209.19 126.79C208.99 126.589 208.889 126.348 208.889 126.068C208.889 125.788 208.99 125.547 209.19 125.347C209.391 125.146 209.632 125.045 209.912 125.045C210.192 125.045 210.433 125.146 210.634 125.347C210.834 125.547 210.935 125.788 210.935 126.068C210.935 126.254 210.887 126.424 210.793 126.58C210.702 126.735 210.579 126.86 210.423 126.955C210.272 127.045 210.101 127.091 209.912 127.091ZM214.276 127.091C213.995 127.091 213.755 126.991 213.554 126.79C213.353 126.589 213.253 126.348 213.253 126.068C213.253 125.788 213.353 125.547 213.554 125.347C213.755 125.146 213.995 125.045 214.276 125.045C214.556 125.045 214.796 125.146 214.997 125.347C215.198 125.547 215.298 125.788 215.298 126.068C215.298 126.254 215.251 126.424 215.156 126.58C215.065 126.735 214.942 126.86 214.787 126.955C214.635 127.045 214.465 127.091 214.276 127.091ZM226.28 115.364V127H224.871V116.841H224.803L221.962 118.727V117.295L224.871 115.364H226.28ZM229.626 127V125.977L233.467 121.773C233.918 121.28 234.289 120.852 234.581 120.489C234.873 120.121 235.089 119.777 235.229 119.455C235.373 119.129 235.445 118.788 235.445 118.432C235.445 118.023 235.346 117.669 235.149 117.369C234.956 117.07 234.691 116.839 234.354 116.676C234.017 116.513 233.638 116.432 233.217 116.432C232.77 116.432 232.38 116.525 232.047 116.71C231.717 116.892 231.462 117.148 231.28 117.477C231.102 117.807 231.013 118.193 231.013 118.636H229.672C229.672 117.955 229.829 117.356 230.143 116.841C230.458 116.326 230.886 115.924 231.428 115.636C231.973 115.348 232.585 115.205 233.263 115.205C233.945 115.205 234.549 115.348 235.075 115.636C235.602 115.924 236.015 116.312 236.314 116.801C236.613 117.29 236.763 117.833 236.763 118.432C236.763 118.86 236.685 119.278 236.53 119.688C236.378 120.093 236.113 120.545 235.734 121.045C235.359 121.542 234.839 122.148 234.172 122.864L231.558 125.659V125.75H236.967V127H229.626ZM243.246 127.159C242.496 127.159 241.827 127.03 241.24 126.773C240.657 126.515 240.193 126.157 239.848 125.699C239.507 125.237 239.321 124.701 239.291 124.091H240.723C240.753 124.466 240.882 124.79 241.109 125.062C241.337 125.331 241.634 125.54 242.001 125.688C242.369 125.835 242.776 125.909 243.223 125.909C243.723 125.909 244.166 125.822 244.553 125.648C244.939 125.473 245.242 125.231 245.462 124.92C245.681 124.61 245.791 124.25 245.791 123.841C245.791 123.413 245.685 123.036 245.473 122.71C245.261 122.381 244.95 122.123 244.541 121.938C244.132 121.752 243.632 121.659 243.041 121.659H242.109V120.409H243.041C243.503 120.409 243.909 120.326 244.257 120.159C244.609 119.992 244.884 119.758 245.081 119.455C245.282 119.152 245.382 118.795 245.382 118.386C245.382 117.992 245.295 117.65 245.121 117.358C244.946 117.066 244.7 116.839 244.382 116.676C244.068 116.513 243.696 116.432 243.268 116.432C242.867 116.432 242.488 116.506 242.132 116.653C241.78 116.797 241.492 117.008 241.268 117.284C241.045 117.557 240.924 117.886 240.905 118.273H239.541C239.564 117.663 239.748 117.129 240.092 116.67C240.437 116.208 240.888 115.848 241.445 115.591C242.005 115.333 242.621 115.205 243.291 115.205C244.011 115.205 244.628 115.35 245.143 115.642C245.659 115.93 246.054 116.311 246.331 116.784C246.607 117.258 246.746 117.769 246.746 118.318C246.746 118.973 246.573 119.532 246.229 119.994C245.888 120.456 245.424 120.777 244.837 120.955V121.045C245.571 121.167 246.145 121.479 246.558 121.983C246.971 122.483 247.178 123.102 247.178 123.841C247.178 124.473 247.005 125.042 246.661 125.545C246.32 126.045 245.854 126.439 245.263 126.727C244.672 127.015 244 127.159 243.246 127.159ZM249.229 124.614V123.455L254.342 115.364H255.183V117.159H254.615L250.751 123.273V123.364H257.638V124.614H249.229ZM254.706 127V124.261V123.722V115.364H256.047V127H254.706Z" fill="#292929"/>
<path d="M314.875 113.31H314.687C314.79 113.31 314.875 113.226 314.875 113.123V113.31H322V113.123C322 113.226 322.084 113.31 322.187 113.31H322V114.998H323.687V113.123C323.687 112.296 323.014 111.623 322.187 111.623H314.687C313.86 111.623 313.187 112.296 313.187 113.123V114.998H314.875V113.31ZM326.687 114.998H310.187C309.772 114.998 309.437 115.333 309.437 115.748V116.498C309.437 116.601 309.522 116.685 309.625 116.685H311.04L311.619 128.943C311.657 129.742 312.318 130.373 313.117 130.373H323.757C324.559 130.373 325.218 129.745 325.255 128.943L325.834 116.685H327.25C327.353 116.685 327.437 116.601 327.437 116.498V115.748C327.437 115.333 327.102 114.998 326.687 114.998ZM323.577 128.685H313.297L312.73 116.685H324.144L323.577 128.685Z" fill="#AA8066"/>
<circle cx="25.9375" cy="183" r="9" fill="#E6F7FF"/>
<path d="M17.5 183C17.5 178.34 21.2776 174.562 25.9375 174.562C30.5974 174.562 34.375 178.34 34.375 183C34.375 187.66 30.5974 191.438 25.9375 191.438C21.2776 191.438 17.5 187.66 17.5 183Z" fill="white" stroke="#BDBDBD" stroke-width="1.125"/>
<rect x="83.9375" y="172" width="21" height="21" rx="6" fill="white"/>
<path d="M100.728 182.551C100.728 184.704 98.9856 186.45 96.8359 186.45C94.6862 186.45 92.9435 184.704 92.9435 182.551C92.9435 180.397 94.6862 178.651 96.8359 178.651C98.9856 178.651 100.728 180.397 100.728 182.551Z" fill="#F79F1A"/>
<path d="M95.9264 182.551C95.9264 184.704 94.1838 186.45 92.034 186.45C89.8843 186.45 88.1416 184.704 88.1416 182.551C88.1416 180.397 89.8843 178.651 92.034 178.651C94.1838 178.651 95.9264 180.397 95.9264 182.551Z" fill="#EA001B"/>
<path d="M94.435 179.481C93.5268 180.195 92.9438 181.304 92.9438 182.55C92.9438 183.796 93.5268 184.907 94.435 185.621C95.3431 184.907 95.9261 183.796 95.9261 182.55C95.9261 181.304 95.3431 180.195 94.435 179.481Z" fill="#FF5F01"/>
<path d="M114.347 177.364H116.028L119.983 187.023H120.119L124.074 177.364H125.756V189H124.438V180.159H124.324L120.688 189H119.415L115.778 180.159H115.665V189H114.347V177.364ZM130.967 189.205C130.414 189.205 129.912 189.1 129.462 188.892C129.011 188.68 128.653 188.375 128.388 187.977C128.123 187.576 127.99 187.091 127.99 186.523C127.99 186.023 128.089 185.617 128.286 185.307C128.482 184.992 128.746 184.746 129.075 184.568C129.405 184.39 129.768 184.258 130.166 184.17C130.568 184.08 130.971 184.008 131.376 183.955C131.907 183.886 132.337 183.835 132.666 183.801C133 183.763 133.242 183.701 133.393 183.614C133.549 183.527 133.626 183.375 133.626 183.159V183.114C133.626 182.553 133.473 182.117 133.166 181.807C132.863 181.496 132.403 181.341 131.786 181.341C131.145 181.341 130.643 181.481 130.28 181.761C129.916 182.042 129.661 182.341 129.513 182.659L128.24 182.205C128.467 181.674 128.77 181.261 129.149 180.966C129.532 180.667 129.948 180.458 130.399 180.341C130.854 180.22 131.301 180.159 131.74 180.159C132.02 180.159 132.342 180.193 132.706 180.261C133.073 180.326 133.428 180.46 133.768 180.665C134.113 180.869 134.399 181.178 134.626 181.591C134.854 182.004 134.967 182.557 134.967 183.25V189H133.626V187.818H133.558C133.467 188.008 133.316 188.21 133.104 188.426C132.892 188.642 132.609 188.826 132.257 188.977C131.905 189.129 131.475 189.205 130.967 189.205ZM131.172 188C131.702 188 132.149 187.896 132.513 187.688C132.88 187.479 133.157 187.21 133.342 186.881C133.532 186.551 133.626 186.205 133.626 185.841V184.614C133.57 184.682 133.445 184.744 133.251 184.801C133.062 184.854 132.842 184.902 132.592 184.943C132.346 184.981 132.106 185.015 131.871 185.045C131.64 185.072 131.452 185.095 131.308 185.114C130.96 185.159 130.634 185.233 130.331 185.335C130.032 185.434 129.789 185.583 129.604 185.784C129.422 185.981 129.331 186.25 129.331 186.591C129.331 187.057 129.503 187.409 129.848 187.648C130.196 187.883 130.638 188 131.172 188ZM143.597 182.227L142.392 182.568C142.316 182.367 142.205 182.172 142.057 181.983C141.913 181.79 141.716 181.631 141.466 181.506C141.216 181.381 140.896 181.318 140.506 181.318C139.972 181.318 139.527 181.441 139.17 181.688C138.818 181.93 138.642 182.239 138.642 182.614C138.642 182.947 138.763 183.21 139.006 183.403C139.248 183.597 139.627 183.758 140.142 183.886L141.438 184.205C142.218 184.394 142.799 184.684 143.182 185.074C143.564 185.46 143.756 185.958 143.756 186.568C143.756 187.068 143.612 187.515 143.324 187.909C143.04 188.303 142.642 188.614 142.131 188.841C141.619 189.068 141.025 189.182 140.347 189.182C139.456 189.182 138.72 188.989 138.136 188.602C137.553 188.216 137.184 187.652 137.028 186.909L138.301 186.591C138.422 187.061 138.652 187.413 138.989 187.648C139.33 187.883 139.775 188 140.324 188C140.949 188 141.445 187.867 141.812 187.602C142.184 187.333 142.369 187.011 142.369 186.636C142.369 186.333 142.263 186.08 142.051 185.875C141.839 185.667 141.513 185.511 141.074 185.409L139.619 185.068C138.82 184.879 138.233 184.585 137.858 184.188C137.487 183.786 137.301 183.284 137.301 182.682C137.301 182.189 137.439 181.754 137.716 181.375C137.996 180.996 138.377 180.699 138.858 180.483C139.343 180.267 139.892 180.159 140.506 180.159C141.369 180.159 142.047 180.348 142.54 180.727C143.036 181.106 143.388 181.606 143.597 182.227ZM149.57 180.273V181.409H145.047V180.273H149.57ZM146.365 178.182H147.706V186.5C147.706 186.879 147.761 187.163 147.871 187.352C147.984 187.538 148.128 187.663 148.303 187.727C148.481 187.788 148.668 187.818 148.865 187.818C149.013 187.818 149.134 187.811 149.229 187.795C149.323 187.777 149.399 187.761 149.456 187.75L149.729 188.955C149.638 188.989 149.511 189.023 149.348 189.057C149.185 189.095 148.979 189.114 148.729 189.114C148.35 189.114 147.979 189.032 147.615 188.869C147.255 188.706 146.956 188.458 146.717 188.125C146.482 187.792 146.365 187.371 146.365 186.864V178.182ZM155.152 189.182C154.311 189.182 153.586 188.996 152.976 188.625C152.37 188.25 151.902 187.727 151.572 187.057C151.247 186.383 151.084 185.598 151.084 184.705C151.084 183.811 151.247 183.023 151.572 182.341C151.902 181.655 152.36 181.121 152.947 180.739C153.538 180.352 154.228 180.159 155.016 180.159C155.47 180.159 155.919 180.235 156.362 180.386C156.805 180.538 157.209 180.784 157.572 181.125C157.936 181.462 158.226 181.909 158.442 182.466C158.658 183.023 158.766 183.708 158.766 184.523V185.091H152.038V183.932H157.402C157.402 183.439 157.304 183 157.107 182.614C156.913 182.227 156.637 181.922 156.277 181.699C155.921 181.475 155.5 181.364 155.016 181.364C154.482 181.364 154.019 181.496 153.629 181.761C153.243 182.023 152.946 182.364 152.737 182.784C152.529 183.205 152.425 183.655 152.425 184.136V184.909C152.425 185.568 152.538 186.127 152.766 186.585C152.997 187.04 153.317 187.386 153.726 187.625C154.135 187.86 154.61 187.977 155.152 187.977C155.504 187.977 155.822 187.928 156.107 187.83C156.394 187.727 156.643 187.576 156.851 187.375C157.059 187.17 157.22 186.917 157.334 186.614L158.629 186.977C158.493 187.417 158.264 187.803 157.942 188.136C157.62 188.466 157.222 188.723 156.749 188.909C156.275 189.091 155.743 189.182 155.152 189.182ZM160.805 189V180.273H162.101V181.591H162.192C162.351 181.159 162.639 180.809 163.055 180.54C163.472 180.271 163.942 180.136 164.464 180.136C164.563 180.136 164.686 180.138 164.834 180.142C164.982 180.146 165.093 180.152 165.169 180.159V181.523C165.124 181.511 165.019 181.494 164.857 181.472C164.697 181.445 164.529 181.432 164.351 181.432C163.927 181.432 163.548 181.521 163.214 181.699C162.885 181.873 162.624 182.116 162.43 182.426C162.241 182.733 162.146 183.083 162.146 183.477V189H160.805ZM170.038 189.182C169.22 189.182 168.516 188.989 167.925 188.602C167.334 188.216 166.879 187.684 166.561 187.006C166.243 186.328 166.084 185.553 166.084 184.682C166.084 183.795 166.247 183.013 166.572 182.335C166.902 181.653 167.36 181.121 167.947 180.739C168.538 180.352 169.228 180.159 170.016 180.159C170.629 180.159 171.182 180.273 171.675 180.5C172.167 180.727 172.571 181.045 172.885 181.455C173.199 181.864 173.394 182.341 173.47 182.886H172.129C172.027 182.489 171.8 182.136 171.447 181.83C171.099 181.519 170.629 181.364 170.038 181.364C169.516 181.364 169.057 181.5 168.663 181.773C168.273 182.042 167.968 182.422 167.749 182.915C167.533 183.403 167.425 183.977 167.425 184.636C167.425 185.311 167.531 185.898 167.743 186.398C167.959 186.898 168.262 187.286 168.652 187.562C169.046 187.839 169.508 187.977 170.038 187.977C170.387 187.977 170.703 187.917 170.987 187.795C171.271 187.674 171.512 187.5 171.709 187.273C171.906 187.045 172.046 186.773 172.129 186.455H173.47C173.394 186.97 173.207 187.434 172.908 187.847C172.612 188.256 172.22 188.581 171.732 188.824C171.247 189.062 170.682 189.182 170.038 189.182ZM177.999 189.205C177.446 189.205 176.944 189.1 176.493 188.892C176.042 188.68 175.684 188.375 175.419 187.977C175.154 187.576 175.021 187.091 175.021 186.523C175.021 186.023 175.12 185.617 175.317 185.307C175.514 184.992 175.777 184.746 176.107 184.568C176.436 184.39 176.8 184.258 177.197 184.17C177.599 184.08 178.002 184.008 178.408 183.955C178.938 183.886 179.368 183.835 179.697 183.801C180.031 183.763 180.273 183.701 180.425 183.614C180.58 183.527 180.658 183.375 180.658 183.159V183.114C180.658 182.553 180.504 182.117 180.197 181.807C179.894 181.496 179.434 181.341 178.817 181.341C178.177 181.341 177.675 181.481 177.311 181.761C176.947 182.042 176.692 182.341 176.544 182.659L175.271 182.205C175.499 181.674 175.802 181.261 176.18 180.966C176.563 180.667 176.98 180.458 177.43 180.341C177.885 180.22 178.332 180.159 178.771 180.159C179.052 180.159 179.374 180.193 179.737 180.261C180.105 180.326 180.459 180.46 180.8 180.665C181.144 180.869 181.43 181.178 181.658 181.591C181.885 182.004 181.999 182.557 181.999 183.25V189H180.658V187.818H180.589C180.499 188.008 180.347 188.21 180.135 188.426C179.923 188.642 179.641 188.826 179.288 188.977C178.936 189.129 178.506 189.205 177.999 189.205ZM178.203 188C178.733 188 179.18 187.896 179.544 187.688C179.911 187.479 180.188 187.21 180.374 186.881C180.563 186.551 180.658 186.205 180.658 185.841V184.614C180.601 184.682 180.476 184.744 180.283 184.801C180.093 184.854 179.874 184.902 179.624 184.943C179.377 184.981 179.137 185.015 178.902 185.045C178.671 185.072 178.483 185.095 178.339 185.114C177.991 185.159 177.665 185.233 177.362 185.335C177.063 185.434 176.821 185.583 176.635 185.784C176.453 185.981 176.362 186.25 176.362 186.591C176.362 187.057 176.535 187.409 176.879 187.648C177.228 187.883 177.669 188 178.203 188ZM184.446 189V180.273H185.741V181.591H185.832C185.991 181.159 186.279 180.809 186.696 180.54C187.113 180.271 187.582 180.136 188.105 180.136C188.204 180.136 188.327 180.138 188.474 180.142C188.622 180.146 188.734 180.152 188.81 180.159V181.523C188.764 181.511 188.66 181.494 188.497 181.472C188.338 181.445 188.17 181.432 187.991 181.432C187.567 181.432 187.188 181.521 186.855 181.699C186.526 181.873 186.264 182.116 186.071 182.426C185.882 182.733 185.787 183.083 185.787 183.477V189H184.446ZM193.429 189.182C192.702 189.182 192.06 188.998 191.503 188.631C190.946 188.259 190.51 187.737 190.196 187.062C189.882 186.384 189.724 185.583 189.724 184.659C189.724 183.742 189.882 182.947 190.196 182.273C190.51 181.598 190.948 181.078 191.509 180.71C192.069 180.343 192.717 180.159 193.452 180.159C194.02 180.159 194.469 180.254 194.798 180.443C195.132 180.629 195.385 180.841 195.56 181.08C195.738 181.314 195.876 181.508 195.974 181.659H196.088V177.364H197.429V189H196.134V187.659H195.974C195.876 187.818 195.736 188.019 195.554 188.261C195.372 188.5 195.113 188.714 194.776 188.903C194.438 189.089 193.99 189.182 193.429 189.182ZM193.611 187.977C194.149 187.977 194.603 187.837 194.974 187.557C195.346 187.273 195.628 186.881 195.821 186.381C196.014 185.877 196.111 185.295 196.111 184.636C196.111 183.985 196.016 183.415 195.827 182.926C195.637 182.434 195.357 182.051 194.986 181.778C194.615 181.502 194.156 181.364 193.611 181.364C193.043 181.364 192.569 181.509 192.19 181.801C191.815 182.089 191.533 182.481 191.344 182.977C191.158 183.47 191.065 184.023 191.065 184.636C191.065 185.258 191.16 185.822 191.349 186.33C191.543 186.833 191.827 187.235 192.202 187.534C192.58 187.83 193.05 187.977 193.611 187.977ZM205.548 189.091C205.268 189.091 205.027 188.991 204.827 188.79C204.626 188.589 204.526 188.348 204.526 188.068C204.526 187.788 204.626 187.547 204.827 187.347C205.027 187.146 205.268 187.045 205.548 187.045C205.829 187.045 206.069 187.146 206.27 187.347C206.471 187.547 206.571 187.788 206.571 188.068C206.571 188.254 206.524 188.424 206.429 188.58C206.338 188.735 206.215 188.86 206.06 188.955C205.908 189.045 205.738 189.091 205.548 189.091ZM209.912 189.091C209.632 189.091 209.391 188.991 209.19 188.79C208.99 188.589 208.889 188.348 208.889 188.068C208.889 187.788 208.99 187.547 209.19 187.347C209.391 187.146 209.632 187.045 209.912 187.045C210.192 187.045 210.433 187.146 210.634 187.347C210.834 187.547 210.935 187.788 210.935 188.068C210.935 188.254 210.887 188.424 210.793 188.58C210.702 188.735 210.579 188.86 210.423 188.955C210.272 189.045 210.101 189.091 209.912 189.091ZM214.276 189.091C213.995 189.091 213.755 188.991 213.554 188.79C213.353 188.589 213.253 188.348 213.253 188.068C213.253 187.788 213.353 187.547 213.554 187.347C213.755 187.146 213.995 187.045 214.276 187.045C214.556 187.045 214.796 187.146 214.997 187.347C215.198 187.547 215.298 187.788 215.298 188.068C215.298 188.254 215.251 188.424 215.156 188.58C215.065 188.735 214.942 188.86 214.787 188.955C214.635 189.045 214.465 189.091 214.276 189.091ZM226.28 177.364V189H224.871V178.841H224.803L221.962 180.727V179.295L224.871 177.364H226.28ZM229.626 189V187.977L233.467 183.773C233.918 183.28 234.289 182.852 234.581 182.489C234.873 182.121 235.089 181.777 235.229 181.455C235.373 181.129 235.445 180.788 235.445 180.432C235.445 180.023 235.346 179.669 235.149 179.369C234.956 179.07 234.691 178.839 234.354 178.676C234.017 178.513 233.638 178.432 233.217 178.432C232.77 178.432 232.38 178.525 232.047 178.71C231.717 178.892 231.462 179.148 231.28 179.477C231.102 179.807 231.013 180.193 231.013 180.636H229.672C229.672 179.955 229.829 179.356 230.143 178.841C230.458 178.326 230.886 177.924 231.428 177.636C231.973 177.348 232.585 177.205 233.263 177.205C233.945 177.205 234.549 177.348 235.075 177.636C235.602 177.924 236.015 178.312 236.314 178.801C236.613 179.29 236.763 179.833 236.763 180.432C236.763 180.86 236.685 181.278 236.53 181.688C236.378 182.093 236.113 182.545 235.734 183.045C235.359 183.542 234.839 184.148 234.172 184.864L231.558 187.659V187.75H236.967V189H229.626ZM243.246 189.159C242.496 189.159 241.827 189.03 241.24 188.773C240.657 188.515 240.193 188.157 239.848 187.699C239.507 187.237 239.321 186.701 239.291 186.091H240.723C240.753 186.466 240.882 186.79 241.109 187.062C241.337 187.331 241.634 187.54 242.001 187.688C242.369 187.835 242.776 187.909 243.223 187.909C243.723 187.909 244.166 187.822 244.553 187.648C244.939 187.473 245.242 187.231 245.462 186.92C245.681 186.61 245.791 186.25 245.791 185.841C245.791 185.413 245.685 185.036 245.473 184.71C245.261 184.381 244.95 184.123 244.541 183.938C244.132 183.752 243.632 183.659 243.041 183.659H242.109V182.409H243.041C243.503 182.409 243.909 182.326 244.257 182.159C244.609 181.992 244.884 181.758 245.081 181.455C245.282 181.152 245.382 180.795 245.382 180.386C245.382 179.992 245.295 179.65 245.121 179.358C244.946 179.066 244.7 178.839 244.382 178.676C244.068 178.513 243.696 178.432 243.268 178.432C242.867 178.432 242.488 178.506 242.132 178.653C241.78 178.797 241.492 179.008 241.268 179.284C241.045 179.557 240.924 179.886 240.905 180.273H239.541C239.564 179.663 239.748 179.129 240.092 178.67C240.437 178.208 240.888 177.848 241.445 177.591C242.005 177.333 242.621 177.205 243.291 177.205C244.011 177.205 244.628 177.35 245.143 177.642C245.659 177.93 246.054 178.311 246.331 178.784C246.607 179.258 246.746 179.769 246.746 180.318C246.746 180.973 246.573 181.532 246.229 181.994C245.888 182.456 245.424 182.777 244.837 182.955V183.045C245.571 183.167 246.145 183.479 246.558 183.983C246.971 184.483 247.178 185.102 247.178 185.841C247.178 186.473 247.005 187.042 246.661 187.545C246.32 188.045 245.854 188.439 245.263 188.727C244.672 189.015 244 189.159 243.246 189.159ZM249.229 186.614V185.455L254.342 177.364H255.183V179.159H254.615L250.751 185.273V185.364H257.638V186.614H249.229ZM254.706 189V186.261V185.722V177.364H256.047V189H254.706Z" fill="#292929"/>
<path d="M314.875 175.31H314.687C314.79 175.31 314.875 175.226 314.875 175.123V175.31H322V175.123C322 175.226 322.084 175.31 322.187 175.31H322V176.998H323.687V175.123C323.687 174.296 323.014 173.623 322.187 173.623H314.687C313.86 173.623 313.187 174.296 313.187 175.123V176.998H314.875V175.31ZM326.687 176.998H310.187C309.772 176.998 309.437 177.333 309.437 177.748V178.498C309.437 178.601 309.522 178.685 309.625 178.685H311.04L311.619 190.943C311.657 191.742 312.318 192.373 313.117 192.373H323.757C324.559 192.373 325.218 191.745 325.255 190.943L325.834 178.685H327.25C327.353 178.685 327.437 178.601 327.437 178.498V177.748C327.437 177.333 327.102 176.998 326.687 176.998ZM323.577 190.685H313.297L312.73 178.685H324.144L323.577 190.685Z" fill="#AA8066"/>
<g filter="url(#filter0_d_32_1433)">
<rect x="61.9375" y="218" width="222" height="40" rx="8" fill="white"/>
<rect x="62.4375" y="218.5" width="221" height="39" rx="7.5" stroke="#BDBDBD"/>
<path d="M120.896 243.193V237.754C120.896 237.337 120.812 236.976 120.643 236.67C120.48 236.357 120.232 236.117 119.9 235.947C119.568 235.778 119.158 235.693 118.67 235.693C118.214 235.693 117.814 235.771 117.469 235.928C117.13 236.084 116.863 236.289 116.668 236.543C116.479 236.797 116.385 237.07 116.385 237.363H114.578C114.578 236.986 114.676 236.611 114.871 236.24C115.066 235.869 115.346 235.534 115.711 235.234C116.082 234.928 116.525 234.688 117.039 234.512C117.56 234.329 118.139 234.238 118.777 234.238C119.546 234.238 120.223 234.368 120.809 234.629C121.401 234.889 121.863 235.283 122.195 235.811C122.534 236.331 122.703 236.986 122.703 237.773V242.695C122.703 243.047 122.732 243.421 122.791 243.818C122.856 244.215 122.951 244.557 123.074 244.844V245H121.189C121.098 244.792 121.027 244.515 120.975 244.17C120.923 243.818 120.896 243.493 120.896 243.193ZM121.209 238.594L121.229 239.863H119.402C118.888 239.863 118.429 239.906 118.025 239.99C117.622 240.068 117.283 240.189 117.01 240.352C116.736 240.514 116.528 240.719 116.385 240.967C116.242 241.208 116.17 241.491 116.17 241.816C116.17 242.148 116.245 242.451 116.395 242.725C116.544 242.998 116.769 243.216 117.068 243.379C117.374 243.535 117.749 243.613 118.191 243.613C118.745 243.613 119.233 243.496 119.656 243.262C120.079 243.027 120.415 242.741 120.662 242.402C120.916 242.064 121.053 241.735 121.072 241.416L121.844 242.285C121.798 242.559 121.674 242.861 121.473 243.193C121.271 243.525 121.001 243.844 120.662 244.15C120.33 244.45 119.933 244.701 119.471 244.902C119.015 245.098 118.501 245.195 117.928 245.195C117.212 245.195 116.583 245.055 116.043 244.775C115.509 244.495 115.092 244.121 114.793 243.652C114.5 243.177 114.354 242.646 114.354 242.061C114.354 241.494 114.464 240.996 114.686 240.566C114.907 240.13 115.226 239.769 115.643 239.482C116.059 239.189 116.561 238.968 117.146 238.818C117.732 238.669 118.387 238.594 119.109 238.594H121.209ZM132.205 242.949V230H134.021V245H132.361L132.205 242.949ZM125.096 239.834V239.629C125.096 238.822 125.193 238.089 125.389 237.432C125.59 236.768 125.874 236.198 126.238 235.723C126.609 235.247 127.049 234.883 127.557 234.629C128.071 234.368 128.644 234.238 129.275 234.238C129.939 234.238 130.519 234.355 131.014 234.59C131.515 234.818 131.938 235.153 132.283 235.596C132.635 236.032 132.911 236.559 133.113 237.178C133.315 237.796 133.455 238.496 133.533 239.277V240.176C133.462 240.951 133.322 241.647 133.113 242.266C132.911 242.884 132.635 243.411 132.283 243.848C131.938 244.284 131.515 244.619 131.014 244.854C130.512 245.081 129.926 245.195 129.256 245.195C128.637 245.195 128.071 245.062 127.557 244.795C127.049 244.528 126.609 244.154 126.238 243.672C125.874 243.19 125.59 242.624 125.389 241.973C125.193 241.315 125.096 240.602 125.096 239.834ZM126.912 239.629V239.834C126.912 240.361 126.964 240.856 127.068 241.318C127.179 241.781 127.348 242.188 127.576 242.539C127.804 242.891 128.094 243.167 128.445 243.369C128.797 243.564 129.217 243.662 129.705 243.662C130.304 243.662 130.796 243.535 131.18 243.281C131.57 243.027 131.883 242.692 132.117 242.275C132.352 241.859 132.534 241.406 132.664 240.918V238.564C132.586 238.206 132.472 237.861 132.322 237.529C132.179 237.191 131.99 236.891 131.756 236.631C131.528 236.364 131.245 236.152 130.906 235.996C130.574 235.84 130.18 235.762 129.725 235.762C129.23 235.762 128.803 235.866 128.445 236.074C128.094 236.276 127.804 236.556 127.576 236.914C127.348 237.266 127.179 237.676 127.068 238.145C126.964 238.607 126.912 239.102 126.912 239.629ZM143.494 242.949V230H145.311V245H143.65L143.494 242.949ZM136.385 239.834V239.629C136.385 238.822 136.482 238.089 136.678 237.432C136.88 236.768 137.163 236.198 137.527 235.723C137.898 235.247 138.338 234.883 138.846 234.629C139.36 234.368 139.933 234.238 140.564 234.238C141.229 234.238 141.808 234.355 142.303 234.59C142.804 234.818 143.227 235.153 143.572 235.596C143.924 236.032 144.201 236.559 144.402 237.178C144.604 237.796 144.744 238.496 144.822 239.277V240.176C144.751 240.951 144.611 241.647 144.402 242.266C144.201 242.884 143.924 243.411 143.572 243.848C143.227 244.284 142.804 244.619 142.303 244.854C141.801 245.081 141.215 245.195 140.545 245.195C139.926 245.195 139.36 245.062 138.846 244.795C138.338 244.528 137.898 244.154 137.527 243.672C137.163 243.19 136.88 242.624 136.678 241.973C136.482 241.315 136.385 240.602 136.385 239.834ZM138.201 239.629V239.834C138.201 240.361 138.253 240.856 138.357 241.318C138.468 241.781 138.637 242.188 138.865 242.539C139.093 242.891 139.383 243.167 139.734 243.369C140.086 243.564 140.506 243.662 140.994 243.662C141.593 243.662 142.085 243.535 142.469 243.281C142.859 243.027 143.172 242.692 143.406 242.275C143.641 241.859 143.823 241.406 143.953 240.918V238.564C143.875 238.206 143.761 237.861 143.611 237.529C143.468 237.191 143.279 236.891 143.045 236.631C142.817 236.364 142.534 236.152 142.195 235.996C141.863 235.84 141.469 235.762 141.014 235.762C140.519 235.762 140.092 235.866 139.734 236.074C139.383 236.276 139.093 236.556 138.865 236.914C138.637 237.266 138.468 237.676 138.357 238.145C138.253 238.607 138.201 239.102 138.201 239.629ZM154.891 236.689V245H153.084V234.434H154.793L154.891 236.689ZM154.461 239.316L153.709 239.287C153.715 238.564 153.823 237.897 154.031 237.285C154.24 236.667 154.533 236.13 154.91 235.674C155.288 235.218 155.737 234.867 156.258 234.619C156.785 234.365 157.368 234.238 158.006 234.238C158.527 234.238 158.995 234.31 159.412 234.453C159.829 234.59 160.184 234.811 160.477 235.117C160.776 235.423 161.004 235.82 161.16 236.309C161.316 236.79 161.395 237.38 161.395 238.076V245H159.578V238.057C159.578 237.503 159.497 237.061 159.334 236.729C159.171 236.39 158.934 236.146 158.621 235.996C158.309 235.84 157.924 235.762 157.469 235.762C157.02 235.762 156.609 235.856 156.238 236.045C155.874 236.234 155.558 236.494 155.291 236.826C155.031 237.158 154.826 237.539 154.676 237.969C154.533 238.392 154.461 238.841 154.461 239.316ZM168.523 245.195C167.788 245.195 167.12 245.072 166.521 244.824C165.929 244.57 165.418 244.215 164.988 243.76C164.565 243.304 164.24 242.764 164.012 242.139C163.784 241.514 163.67 240.83 163.67 240.088V239.678C163.67 238.818 163.797 238.053 164.051 237.383C164.305 236.706 164.65 236.133 165.086 235.664C165.522 235.195 166.017 234.84 166.57 234.6C167.124 234.359 167.697 234.238 168.289 234.238C169.044 234.238 169.695 234.368 170.242 234.629C170.796 234.889 171.248 235.254 171.6 235.723C171.951 236.185 172.212 236.732 172.381 237.363C172.55 237.988 172.635 238.672 172.635 239.414V240.225H164.744V238.75H170.828V238.613C170.802 238.145 170.704 237.689 170.535 237.246C170.372 236.803 170.112 236.439 169.754 236.152C169.396 235.866 168.908 235.723 168.289 235.723C167.879 235.723 167.501 235.811 167.156 235.986C166.811 236.156 166.515 236.41 166.268 236.748C166.02 237.087 165.828 237.5 165.691 237.988C165.555 238.477 165.486 239.04 165.486 239.678V240.088C165.486 240.589 165.555 241.061 165.691 241.504C165.835 241.94 166.04 242.324 166.307 242.656C166.58 242.988 166.909 243.249 167.293 243.438C167.684 243.626 168.126 243.721 168.621 243.721C169.259 243.721 169.799 243.59 170.242 243.33C170.685 243.07 171.072 242.721 171.404 242.285L172.498 243.154C172.27 243.499 171.98 243.828 171.629 244.141C171.277 244.453 170.844 244.707 170.33 244.902C169.822 245.098 169.22 245.195 168.523 245.195ZM177.42 243.125L180.135 234.434H181.326L181.092 236.162L178.328 245H177.166L177.42 243.125ZM175.594 234.434L177.908 243.223L178.074 245H176.854L173.787 234.434H175.594ZM183.924 243.154L186.131 234.434H187.928L184.861 245H183.65L183.924 243.154ZM181.59 234.434L184.246 242.979L184.549 245H183.396L180.555 236.143L180.32 234.434H181.59ZM198.973 243.711C199.402 243.711 199.799 243.623 200.164 243.447C200.529 243.271 200.828 243.031 201.062 242.725C201.297 242.412 201.43 242.057 201.463 241.66H203.182C203.149 242.285 202.938 242.868 202.547 243.408C202.163 243.942 201.658 244.375 201.033 244.707C200.408 245.033 199.721 245.195 198.973 245.195C198.178 245.195 197.485 245.055 196.893 244.775C196.307 244.495 195.818 244.111 195.428 243.623C195.044 243.135 194.754 242.575 194.559 241.943C194.37 241.305 194.275 240.632 194.275 239.922V239.512C194.275 238.802 194.37 238.132 194.559 237.5C194.754 236.862 195.044 236.299 195.428 235.811C195.818 235.322 196.307 234.938 196.893 234.658C197.485 234.378 198.178 234.238 198.973 234.238C199.799 234.238 200.522 234.408 201.141 234.746C201.759 235.078 202.244 235.534 202.596 236.113C202.954 236.686 203.149 237.337 203.182 238.066H201.463C201.43 237.63 201.307 237.236 201.092 236.885C200.883 236.533 200.597 236.253 200.232 236.045C199.874 235.83 199.454 235.723 198.973 235.723C198.419 235.723 197.954 235.833 197.576 236.055C197.205 236.27 196.909 236.562 196.688 236.934C196.473 237.298 196.316 237.705 196.219 238.154C196.128 238.597 196.082 239.049 196.082 239.512V239.922C196.082 240.384 196.128 240.84 196.219 241.289C196.31 241.738 196.463 242.145 196.678 242.51C196.899 242.874 197.195 243.167 197.566 243.389C197.944 243.604 198.413 243.711 198.973 243.711ZM211.443 243.193V237.754C211.443 237.337 211.359 236.976 211.189 236.67C211.027 236.357 210.779 236.117 210.447 235.947C210.115 235.778 209.705 235.693 209.217 235.693C208.761 235.693 208.361 235.771 208.016 235.928C207.677 236.084 207.41 236.289 207.215 236.543C207.026 236.797 206.932 237.07 206.932 237.363H205.125C205.125 236.986 205.223 236.611 205.418 236.24C205.613 235.869 205.893 235.534 206.258 235.234C206.629 234.928 207.072 234.688 207.586 234.512C208.107 234.329 208.686 234.238 209.324 234.238C210.092 234.238 210.77 234.368 211.355 234.629C211.948 234.889 212.41 235.283 212.742 235.811C213.081 236.331 213.25 236.986 213.25 237.773V242.695C213.25 243.047 213.279 243.421 213.338 243.818C213.403 244.215 213.497 244.557 213.621 244.844V245H211.736C211.645 244.792 211.574 244.515 211.521 244.17C211.469 243.818 211.443 243.493 211.443 243.193ZM211.756 238.594L211.775 239.863H209.949C209.435 239.863 208.976 239.906 208.572 239.99C208.169 240.068 207.83 240.189 207.557 240.352C207.283 240.514 207.075 240.719 206.932 240.967C206.788 241.208 206.717 241.491 206.717 241.816C206.717 242.148 206.792 242.451 206.941 242.725C207.091 242.998 207.316 243.216 207.615 243.379C207.921 243.535 208.296 243.613 208.738 243.613C209.292 243.613 209.78 243.496 210.203 243.262C210.626 243.027 210.962 242.741 211.209 242.402C211.463 242.064 211.6 241.735 211.619 241.416L212.391 242.285C212.345 242.559 212.221 242.861 212.02 243.193C211.818 243.525 211.548 243.844 211.209 244.15C210.877 244.45 210.48 244.701 210.018 244.902C209.562 245.098 209.048 245.195 208.475 245.195C207.758 245.195 207.13 245.055 206.59 244.775C206.056 244.495 205.639 244.121 205.34 243.652C205.047 243.177 204.9 242.646 204.9 242.061C204.9 241.494 205.011 240.996 205.232 240.566C205.454 240.13 205.773 239.769 206.189 239.482C206.606 239.189 207.107 238.968 207.693 238.818C208.279 238.669 208.934 238.594 209.656 238.594H211.756ZM217.898 236.094V245H216.092V234.434H217.85L217.898 236.094ZM221.199 234.375L221.189 236.055C221.04 236.022 220.896 236.003 220.76 235.996C220.63 235.983 220.48 235.977 220.311 235.977C219.894 235.977 219.526 236.042 219.207 236.172C218.888 236.302 218.618 236.484 218.396 236.719C218.175 236.953 217.999 237.233 217.869 237.559C217.745 237.878 217.664 238.229 217.625 238.613L217.117 238.906C217.117 238.268 217.179 237.669 217.303 237.109C217.433 236.549 217.632 236.055 217.898 235.625C218.165 235.189 218.504 234.85 218.914 234.609C219.331 234.362 219.826 234.238 220.398 234.238C220.529 234.238 220.678 234.255 220.848 234.287C221.017 234.313 221.134 234.342 221.199 234.375ZM229.334 242.949V230H231.15V245H229.49L229.334 242.949ZM222.225 239.834V239.629C222.225 238.822 222.322 238.089 222.518 237.432C222.719 236.768 223.003 236.198 223.367 235.723C223.738 235.247 224.178 234.883 224.686 234.629C225.2 234.368 225.773 234.238 226.404 234.238C227.068 234.238 227.648 234.355 228.143 234.59C228.644 234.818 229.067 235.153 229.412 235.596C229.764 236.032 230.04 236.559 230.242 237.178C230.444 237.796 230.584 238.496 230.662 239.277V240.176C230.59 240.951 230.451 241.647 230.242 242.266C230.04 242.884 229.764 243.411 229.412 243.848C229.067 244.284 228.644 244.619 228.143 244.854C227.641 245.081 227.055 245.195 226.385 245.195C225.766 245.195 225.2 245.062 224.686 244.795C224.178 244.528 223.738 244.154 223.367 243.672C223.003 243.19 222.719 242.624 222.518 241.973C222.322 241.315 222.225 240.602 222.225 239.834ZM224.041 239.629V239.834C224.041 240.361 224.093 240.856 224.197 241.318C224.308 241.781 224.477 242.188 224.705 242.539C224.933 242.891 225.223 243.167 225.574 243.369C225.926 243.564 226.346 243.662 226.834 243.662C227.433 243.662 227.924 243.535 228.309 243.281C228.699 243.027 229.012 242.692 229.246 242.275C229.48 241.859 229.663 241.406 229.793 240.918V238.564C229.715 238.206 229.601 237.861 229.451 237.529C229.308 237.191 229.119 236.891 228.885 236.631C228.657 236.364 228.374 236.152 228.035 235.996C227.703 235.84 227.309 235.762 226.854 235.762C226.359 235.762 225.932 235.866 225.574 236.074C225.223 236.276 224.933 236.556 224.705 236.914C224.477 237.266 224.308 237.676 224.197 238.145C224.093 238.607 224.041 239.102 224.041 239.629Z" fill="#575D68"/>
</g>
<defs>
<filter id="filter0_d_32_1433" x="61.9375" y="218" width="222" height="42" filterUnits="userSpaceOnUse" color-interpolation-filters="sRGB">
<feFlood flood-opacity="0" result="BackgroundImageFix"/>
<feColorMatrix in="SourceAlpha" type="matrix" values="0 0 0 0 0 0 0 0 0 0 0 0 0 0 0 0 0 0 127 0" result="hardAlpha"/>
<feOffset dy="2"/>
<feColorMatrix type="matrix" values="0 0 0 0 0 0 0 0 0 0 0 0 0 0 0 0 0 0 0.016 0"/>
<feBlend mode="normal" in2="BackgroundImageFix" result="effect1_dropShadow_32_1433"/>
<feBlend mode="normal" in="SourceGraphic" in2="effect1_dropShadow_32_1433" result="shape"/>
</filter>
</defs>
</svg>
