<svg width="360" height="300" viewBox="0 0 360 300" fill="none" xmlns="http://www.w3.org/2000/svg">
<g clip-path="url(#clip0_145_8891)">
<circle cx="286.5" cy="131.5" r="83.5" fill="#FDFDFD"/>
<path d="M168.478 127.408C168.731 155.907 159.712 172.724 153.298 194.247C146.549 216.892 148.237 234.05 121.398 239.975C104.46 243.712 86.8756 232.899 76.971 213.835C67.5588 195.717 65.8035 170.16 51.212 141.981C14.1833 70.4713 48.5616 16.661 84.0973 22.2431C140.488 31.0991 168.171 92.6974 168.478 127.411V127.408Z" fill="#FDFDFD"/>
<path d="M114.779 241.397C99.9961 241.397 85.1648 231.134 76.3472 214.158C72.1175 206.015 69.4927 196.638 66.4554 185.78C62.7916 172.691 58.6418 157.854 50.5883 142.303C26.6293 96.0316 33.1066 58.7056 47.1578 39.2033C56.6723 25.9962 70.5253 19.3974 84.2057 21.5458C116.244 26.578 136.526 47.8099 147.901 64.7353C160.856 84.0106 169.009 108.024 169.181 127.401C169.373 149.148 164.283 163.887 158.893 179.492C157.23 184.3 155.517 189.268 153.973 194.448C152.726 198.636 151.776 202.597 150.859 206.427C146.936 222.806 143.835 235.745 121.551 240.662C119.31 241.157 117.046 241.397 114.783 241.397H114.779ZM79.0936 22.5529C67.5936 22.5529 56.3558 28.8416 48.296 40.025C34.4877 59.1884 28.1671 95.9485 51.8352 141.654C59.9558 157.333 64.128 172.244 67.8078 185.4C70.8259 196.184 73.4315 205.497 77.5941 213.509C87.4667 232.512 105.012 242.871 121.244 239.287C142.668 234.558 145.529 222.62 149.487 206.098C150.411 202.249 151.364 198.271 152.623 194.045C154.174 188.837 155.897 183.853 157.563 179.031C162.912 163.545 167.966 148.915 167.774 127.414C167.605 108.299 159.542 84.5797 146.734 65.5218C135.516 48.8298 115.524 27.8888 83.9883 22.9365C82.3578 22.6808 80.7241 22.5529 79.0967 22.5529H79.0936Z" fill="#323F4B"/>
<path d="M114.962 241.141C93.2854 241.141 77.0538 224.894 67.7726 193.719C67.6607 193.348 67.8749 192.955 68.2458 192.843C68.6199 192.731 69.0099 192.945 69.1218 193.316C79.0871 226.786 97.1315 242.679 121.302 239.277C141.092 236.489 145.002 221.991 149.947 203.633C150.785 200.529 151.648 197.319 152.623 194.045C153.957 189.566 155.398 185.179 156.796 180.937C162.266 164.299 167.432 148.582 167.231 126.116C166.953 94.6504 142.246 32.0834 83.9883 22.9333C74.1221 21.3827 64.697 24.9283 56.7299 33.1895C38.8454 51.7359 31.6615 89.0331 38.8518 126.001C38.9253 126.382 38.6759 126.752 38.2955 126.826C37.915 126.899 37.5441 126.65 37.4706 126.27C30.1972 88.8701 37.5282 51.0741 55.7164 32.2112C64.0129 23.6079 73.8663 19.9248 84.2057 21.5425C116.26 26.578 136.389 47.455 147.626 64.083C160.415 83.0002 168.465 106.764 168.634 126.103C168.836 148.803 163.634 164.622 158.129 181.375C156.738 185.608 155.299 189.984 153.969 194.444C153.001 197.699 152.137 200.899 151.303 203.997C146.421 222.109 142.207 237.752 121.493 240.668C119.265 240.981 117.085 241.138 114.959 241.138L114.962 241.141Z" fill="#323F4B"/>
<path d="M112.989 202.012C112.813 202.012 112.637 201.945 112.5 201.814C107.052 196.548 94.5835 194.694 84.1099 197.594C83.739 197.696 83.3489 197.479 83.2434 197.105C83.1411 196.73 83.3585 196.344 83.7326 196.238C93.2919 193.591 107.03 194.576 113.475 200.804C113.753 201.072 113.763 201.52 113.491 201.798C113.354 201.942 113.168 202.012 112.986 202.012H112.989Z" fill="#323F4B"/>
<path d="M146.28 172.529C146.191 172.529 146.098 172.513 146.009 172.474C145.651 172.324 145.481 171.912 145.631 171.553C166.812 120.908 149.359 66.4011 120.448 49.1592C101.153 37.6529 78.9432 39.5424 70.0073 44.4435C59.6328 50.1343 52.6343 60.0677 50.3037 72.4181C47.3623 87.9847 52.0397 105.441 62.507 117.973C67.4337 123.872 78.7322 135.161 86.2294 135.669C86.6162 135.695 86.9104 136.031 86.8848 136.417C86.8592 136.804 86.5235 137.089 86.1367 137.073C78.1823 136.533 66.8614 125.381 61.4296 118.875C50.7001 106.029 45.9077 88.1286 48.9225 72.1559C51.3332 59.3835 58.5841 49.1049 69.3328 43.2062C78.5532 38.1485 101.406 36.1567 121.17 47.9475C136.558 57.1264 148.355 75.628 153.535 98.711C158.96 122.878 156.613 148.94 146.929 172.094C146.817 172.362 146.555 172.525 146.28 172.525V172.529Z" fill="#323F4B"/>
<path d="M89.6057 182.91C89.6057 182.91 89.5833 182.91 89.5706 182.91C89.1837 182.891 88.8832 182.561 88.9024 182.174C89.4683 170.326 103.791 150.136 121.51 136.213C126.011 132.677 128.569 127.073 128.908 120.004C129.483 108.018 123.52 94.2289 113.718 84.8678C103.894 75.4875 86.869 66.8266 72.6963 69.9598C63.0027 72.105 55.6974 79.3049 50.9849 91.3579C50.8442 91.7192 50.435 91.8982 50.0737 91.7575C49.7124 91.6169 49.5334 91.2076 49.6741 90.8464C54.5688 78.3329 62.2131 70.8422 72.3926 68.5882C87.1472 65.3208 104.268 73.9018 114.69 83.8511C124.777 93.4808 130.912 107.698 130.314 120.071C129.953 127.562 127.21 133.524 122.379 137.319C105.233 150.792 90.8462 170.943 90.3059 182.242C90.2867 182.619 89.9766 182.91 89.6025 182.91H89.6057Z" fill="#323F4B"/>
<path d="M52.0431 146.178C-6.84416 90.7946 38.8679 -18.1846 130.934 31.2648L125.646 41.2749C45.2652 2.31835 15.5227 85.0846 58.1495 140.778L52.0431 146.181V146.178Z" fill="#0099FF"/>
<path d="M52.0431 146.881C51.8705 146.881 51.6979 146.817 51.5604 146.689C36.614 132.632 27.3168 113.874 25.3762 93.8703C23.573 75.2664 28.3079 56.5762 38.3724 42.5954C47.5129 29.8933 60.2884 21.7407 75.318 19.02C92.3489 15.938 111.17 19.8481 131.27 30.6446C131.609 30.8269 131.74 31.2521 131.558 31.5942L126.27 41.6043C126.094 41.94 125.682 42.0742 125.343 41.908C94.0273 26.7314 67.143 28.9694 51.5764 48.0432C32.8926 70.9408 35.9618 110.623 58.7123 140.35C58.9361 140.644 58.8977 141.059 58.6196 141.302L52.5131 146.705C52.382 146.824 52.2126 146.881 52.0463 146.881H52.0431ZM86.4119 19.3845C67.3412 19.3845 50.9785 27.4859 39.5137 43.417C20.6157 69.6747 20.2001 114.824 52.0591 145.225L57.1968 140.682C34.4208 110.511 31.5082 70.41 50.483 47.1544C66.3917 27.6554 93.6533 25.1904 125.34 40.3478L129.982 31.559C114.629 23.4128 99.8461 19.3909 86.4087 19.3909L86.4119 19.3845Z" fill="#323F4B"/>
<path d="M69.7931 169.066L68.3736 169.75C64.3292 171.697 58.7791 169.61 55.9721 165.082L47.0873 150.74C44.2835 146.213 45.2874 140.964 49.3317 139.017L50.7512 138.332C54.7955 136.385 60.3457 138.473 63.1527 143L72.0374 157.342C74.8413 161.869 73.8374 167.119 69.7931 169.066Z" fill="#FDFDFD"/>
<path d="M72.3282 167.653L70.9087 168.337C66.8643 170.284 61.3142 168.197 58.5072 163.67L49.6224 149.327C46.8186 144.8 47.8225 139.551 51.8668 137.604L53.2863 136.92C57.3306 134.973 62.8808 137.06 65.6878 141.587L74.5725 155.929C77.3764 160.457 76.3725 165.706 72.3282 167.653Z" fill="#323F4B"/>
<path d="M86.9338 186.64C93.7321 179.506 92.2124 167.023 83.5395 158.758C74.8666 150.493 62.3247 149.576 55.5264 156.71C48.7282 163.844 50.2479 176.327 58.9208 184.592C67.5937 192.857 80.1356 193.774 86.9338 186.64Z" fill="#323F4B"/>
<path d="M90.9357 185.187C97.734 178.053 96.2143 165.569 87.5414 157.305C78.8684 149.04 66.3266 148.123 59.5283 155.257C52.73 162.391 54.2497 174.874 62.9226 183.139C71.5955 191.404 84.1374 192.32 90.9357 185.187Z" fill="#0099FF"/>
<path d="M79.0745 190.665C69.3682 190.665 59.4124 183.574 55.8636 173.619C53.8495 167.966 54.2139 162.128 56.8643 157.601C59.2494 153.528 63.2617 150.823 68.1597 149.989C78.79 148.17 90.6512 155.702 94.5964 166.767C96.6106 172.42 96.2461 178.257 93.5957 182.785C91.2107 186.858 87.1983 189.562 82.3004 190.397C81.2358 190.579 80.1552 190.665 79.0745 190.665ZM71.4079 151.127C70.3976 151.127 69.3905 151.21 68.393 151.38C63.9139 152.144 60.2469 154.605 58.076 158.314C55.6366 162.48 55.3106 167.886 57.1872 173.149C60.9119 183.6 72.0697 190.713 82.0606 189.012C86.5397 188.248 90.2068 185.783 92.3776 182.078C94.817 177.912 95.1399 172.506 93.2664 167.244C89.9127 157.834 80.5356 151.13 71.4079 151.13V151.127Z" fill="#323F4B"/>
<path d="M158.126 180.86C158.295 193.648 168.229 204.944 179.924 197.156C184.719 193.962 187.696 188.754 188.521 182.692C199.192 104.104 174.568 58.7343 130.935 31.2617C126.398 29.9637 124.326 31.1306 123.668 33.7107C122.929 36.6136 124.278 40.0377 126.858 42.4036C166.921 79.1413 176.132 125.678 158.129 180.857L158.126 180.86Z" fill="#323F4B"/>
<path d="M151.062 198.445C146.222 193.329 143.406 189.207 143.406 189.207C143.406 189.207 134.781 174.664 128.237 169.406C121.693 164.148 120.666 163.454 120.666 163.454C120.666 163.454 118.615 166.189 120.666 169.406C121.833 171.236 124.169 173.974 125.965 175.991C127.148 177.32 127.172 179.3 126.043 180.674C124.632 182.395 123.383 185.221 124.955 189.204C127.305 195.166 132.76 196.448 135.57 196.707C136.621 196.802 137.505 197.53 137.787 198.547C138.26 200.247 139.1 203.07 140.345 206.601L151.058 198.445H151.062Z" fill="#FDFDFD"/>
<path d="M137.554 198.612L137.555 198.613C138.038 200.355 138.875 203.166 140.115 206.68C140.143 206.758 140.204 206.815 140.278 206.838C140.305 206.845 140.329 206.848 140.352 206.848C140.398 206.848 140.454 206.832 140.504 206.795C140.504 206.795 140.505 206.795 140.506 206.794L151.215 198.642L151.215 198.641C151.27 198.599 151.305 198.537 151.311 198.469C151.315 198.391 151.287 198.321 151.244 198.276L151.243 198.274C148.861 195.756 146.962 193.468 145.657 191.809C145.005 190.979 144.501 190.306 144.16 189.839C143.989 189.606 143.859 189.425 143.771 189.301C143.727 189.239 143.694 189.192 143.671 189.16L143.646 189.123L143.639 189.113L143.637 189.111L143.637 189.11L143.637 189.11C143.637 189.11 143.637 189.109 144.049 188.826L143.637 189.109L143.628 189.096L143.619 189.082L143.616 189.077C143.418 188.744 141.24 185.094 138.297 180.867C135.326 176.601 131.615 171.805 128.39 169.214L128.39 169.214C125.144 166.606 123.253 165.118 122.168 164.278C121.626 163.859 121.286 163.602 121.081 163.45C120.88 163.3 120.81 163.253 120.807 163.251C120.807 163.251 120.807 163.251 120.807 163.251L120.803 163.248C120.695 163.175 120.549 163.197 120.466 163.306L120.466 163.306C120.394 163.401 118.338 166.212 120.458 169.538C121.634 171.38 123.992 174.144 125.784 176.154L125.784 176.154C126.886 177.392 126.909 179.229 125.855 180.517L125.855 180.518C124.442 182.238 123.09 185.144 124.726 189.295C127.095 195.3 132.482 196.674 135.55 196.953L137.554 198.612ZM137.554 198.612C137.297 197.692 136.506 197.04 135.55 196.953L137.554 198.612ZM120.972 164.472L120.443 164.36C120.01 165.339 119.553 167.201 120.873 169.276L120.874 169.277C122.048 171.115 124.401 173.868 126.149 175.829L120.972 164.472ZM120.972 164.472L121.203 164.168C122.072 164.828 123.998 166.328 128.08 169.604L128.081 169.604C131.324 172.211 135.087 177.131 138.031 181.376C139.509 183.507 140.791 185.483 141.71 186.938C142.169 187.665 142.539 188.263 142.796 188.684C143.012 189.036 143.176 189.309 143.208 189.362C143.221 189.381 143.26 189.438 143.327 189.532C143.409 189.649 143.531 189.82 143.691 190.039C144.011 190.478 144.481 191.11 145.091 191.891C146.311 193.455 148.084 195.613 150.312 198.012L150.688 198.416L150.249 198.75L141.015 205.78L140.464 206.199L140.239 205.545C139.192 202.501 138.464 200.056 138.026 198.483L138.026 198.483C137.715 197.362 136.765 196.57 135.592 196.463C135.592 196.463 135.592 196.463 135.592 196.463L135.638 195.965L120.972 164.472ZM126.149 175.829C127.412 177.249 127.451 179.351 126.235 180.836L126.149 175.829Z" fill="#323F4B" stroke="#323F4B"/>
<path d="M303.075 164.651C303.075 164.651 275.921 151.523 238.002 165.869C206.263 177.878 243.495 264.94 237.539 322.534C237.539 322.534 287.464 330.054 301.46 311.062C308.847 301.039 303.075 164.651 303.075 164.651Z" fill="#0099FF"/>
<path d="M303.184 164.429L303.185 164.429C303.266 164.468 303.32 164.55 303.323 164.639L303.323 164.642C303.441 167.43 304.865 201.615 305.327 236.367C305.558 253.744 305.549 271.256 305.016 285.052C304.75 291.951 304.353 297.912 303.792 302.458C303.511 304.732 303.19 306.642 302.827 308.134C302.459 309.643 302.062 310.665 301.659 311.212L302.061 311.508L301.659 311.212C297.75 316.516 291.098 319.798 283.437 321.75C275.786 323.698 267.203 324.3 259.527 324.3C247.891 324.3 238.396 322.915 237.503 322.782C237.369 322.761 237.278 322.642 237.291 322.511C239.696 299.285 235.153 271.798 230.774 245.309L230.767 245.268C227.537 225.719 224.539 207.57 224.773 193.386C225.009 179.17 228.483 169.208 237.913 165.64C256.717 158.525 272.98 158.198 284.571 159.661C290.367 160.392 294.996 161.572 298.188 162.575C299.784 163.077 301.021 163.535 301.866 163.87C302.288 164.037 302.612 164.174 302.834 164.271C302.944 164.319 303.03 164.357 303.089 164.384C303.118 164.398 303.141 164.408 303.157 164.416L303.177 164.425L303.182 164.428L303.184 164.428L303.184 164.429ZM303.401 163.978C303.649 164.097 303.813 164.345 303.823 164.621L303.401 163.978ZM237.857 321.847L237.811 322.328L238.289 322.391C241.35 322.795 253.843 324.282 267.168 323.51C273.831 323.125 280.722 322.173 286.754 320.229C292.782 318.286 298.003 315.336 301.26 310.917L300.857 310.621L301.26 310.917C301.674 310.355 302.018 309.473 302.318 308.36C302.621 307.234 302.892 305.821 303.134 304.157C303.618 300.827 303.992 296.455 304.273 291.292C304.836 280.966 305.03 267.438 304.984 252.685C304.893 223.177 303.84 188.736 302.846 165.127L302.833 164.814L302.546 164.689C298.976 163.144 272.944 152.918 238.09 166.106C228.588 169.7 225.375 180.059 225.246 194.033C225.116 208.043 228.081 225.979 231.252 245.158L231.257 245.186L231.75 245.105L231.257 245.186C235.617 271.554 240.101 298.723 237.857 321.847Z" fill="#323F4B" stroke="#323F4B"/>
<path d="M200.398 199.686C200.398 199.686 216.887 175.99 233.27 166.498C235.216 165.369 238.25 164.131 242.13 162.985C248.79 179.31 258.986 209.593 253.932 232.061C247.939 258.695 249.667 354.784 250.453 387.526C217.86 386.815 209.35 386.074 209.35 386.074C205.238 363.504 223.149 231.446 223.149 231.446L200.398 199.686Z" fill="#FDFDFD"/>
<path d="M209.342 386.319L209.335 386.318L209.328 386.317C209.211 386.307 209.123 386.223 209.105 386.117L209.104 386.113C208.61 383.4 208.428 379.088 208.499 373.571C208.57 368.064 208.893 361.389 209.398 353.966C210.406 339.122 212.141 321.308 214.039 303.91C217.834 269.116 222.279 236.009 222.862 231.703L222.889 231.506L222.773 231.345L200.198 199.828C200.198 199.828 200.197 199.828 200.197 199.828C200.135 199.74 200.134 199.627 200.194 199.539C200.31 199.373 204.482 193.426 210.652 186.339C216.859 179.209 225.05 170.969 233.144 166.277C235.211 165.081 238.287 163.857 242.058 162.743L242.058 162.743L242.066 162.74C242.174 162.706 242.306 162.76 242.358 162.888C245.66 170.98 249.886 182.653 252.65 195.129C255.416 207.615 256.705 220.858 254.172 232.111C252.655 238.854 251.64 250.093 250.977 263.588C250.314 277.095 250.003 292.896 249.902 308.782C249.701 340.553 250.342 372.682 250.698 387.512C250.699 387.581 250.672 387.648 250.624 387.698C250.576 387.745 250.513 387.771 250.45 387.771H250.438C234.321 387.419 224.06 387.058 217.819 386.783C214.698 386.646 212.583 386.531 211.244 386.449C210.574 386.408 210.099 386.376 209.789 386.353C209.47 386.33 209.338 386.318 209.342 386.319ZM253.689 232.004L253.201 231.894L253.689 232.004C256.19 220.885 254.935 207.852 252.252 195.603C249.567 183.346 245.44 171.825 242.155 163.708L241.984 163.284L241.546 163.418C238.185 164.443 235.308 165.603 233.394 166.711L233.394 166.711C225.9 171.055 218.356 178.427 212.412 185.09C206.46 191.762 202.078 197.761 200.911 199.391L200.702 199.683L200.911 199.974L223.348 231.298L223.348 231.298C223.386 231.351 223.401 231.412 223.392 231.473L223.391 231.477C223.303 232.133 218.912 264.654 215.001 299.983C213.046 317.647 211.21 336.017 210.091 351.459C208.974 366.876 208.567 379.439 209.492 385.446L209.558 385.87H209.972C212.39 386.039 222.611 386.66 249.673 387.257L250.197 387.269L250.184 386.745C249.822 371.439 249.198 339.409 249.416 307.868C249.525 292.097 249.845 276.452 250.512 263.083C251.181 249.703 252.196 238.637 253.689 232.004Z" fill="#323F4B" stroke="#323F4B"/>
<path d="M266.846 243.588C269.145 214.852 285.78 179.12 295.154 160.944C302.952 162.396 311.01 164.699 319.05 168.141C352.418 182.429 340.582 231.041 340.582 231.041L317.931 227.592L317.846 256.002C317.764 283.037 319.645 310.042 323.468 336.805L331.852 384.989C328.804 375.054 281.937 381.87 260.115 383.928C263.823 329.99 264.265 275.881 266.846 243.588Z" fill="#FDFDFD"/>
<path d="M331.615 385.061L331.615 385.06C331.257 383.891 330.294 383.003 328.975 382.328C327.652 381.651 325.906 381.153 323.855 380.795C319.749 380.078 314.304 379.898 308.292 380.037C296.267 380.315 281.857 381.872 271.096 383.034L271.081 383.036L270.967 383.048C267.015 383.476 263.292 383.879 260.136 384.175L260.129 384.175C260.062 384.183 259.994 384.16 259.941 384.108C259.89 384.058 259.861 383.987 259.866 383.909C261.815 355.528 262.866 326.996 263.791 301.833C264.638 278.773 265.373 258.872 266.596 243.566C268.886 214.951 285.315 179.473 294.931 160.83L294.932 160.828C294.979 160.735 295.087 160.678 295.201 160.698C303.535 162.249 311.59 164.677 319.145 167.91C332.848 173.775 340.976 186.527 342.573 204.923C343.173 211.828 342.743 218.344 342.157 223.153C341.864 225.556 341.533 227.531 341.274 228.91C341.144 229.6 341.032 230.141 340.952 230.512C340.912 230.698 340.88 230.841 340.857 230.94C340.851 230.966 340.846 230.99 340.841 231.01C340.837 231.026 340.834 231.041 340.831 231.053L340.824 231.083L340.821 231.093L340.821 231.096C340.791 231.218 340.67 231.301 340.541 231.281L318.747 227.965L318.174 227.878L318.172 228.458L318.09 256C318.012 282.93 319.901 310.102 323.711 336.767L323.712 336.775L323.713 336.782L332.093 384.945C332.116 385.075 332.034 385.199 331.906 385.23C331.885 385.235 331.867 385.237 331.85 385.237C331.743 385.236 331.648 385.169 331.615 385.061ZM271.028 382.544L270.975 382.047L271.028 382.544C284.684 381.068 297.744 379.796 308.301 379.549C313.58 379.426 318.217 379.56 321.981 380.048C325.762 380.539 328.593 381.381 330.318 382.623L331.313 383.339L331.103 382.131L323.224 336.86C323.224 336.858 323.224 336.855 323.223 336.853C319.408 310.146 317.516 282.951 317.597 256L317.682 227.59V227.589C317.682 227.517 317.713 227.448 317.77 227.4C317.83 227.349 317.898 227.333 317.957 227.343L317.957 227.343L317.968 227.345L339.929 230.688L340.395 230.759L340.493 230.297C341.116 227.345 343.391 215.182 341.701 202.112C340.01 189.042 334.334 174.954 318.954 168.368C311.597 165.218 303.76 162.837 295.659 161.289L295.065 161.176V161.663C285.461 180.356 269.355 215.34 267.092 243.609C265.867 258.904 265.135 278.808 264.289 301.841L264.288 301.854L264.281 302.046C263.365 326.916 262.328 355.045 260.422 383.067L260.382 383.656L260.969 383.599C263.74 383.331 266.902 382.989 270.236 382.63L271.028 382.544Z" fill="#323F4B" stroke="#323F4B"/>
<path d="M135.685 206.284C141.953 224.038 158.588 251.709 190.851 253.117C202.061 253.607 212.976 242.485 227.753 231.442C227.753 231.442 212.278 184.891 211.251 186.156C206.425 192.088 194.354 209.219 183.818 209.501C168.21 209.923 160.704 200.73 152.64 192.203L135.689 206.281L135.685 206.284Z" fill="#FDFDFD"/>
<path d="M191.579 253.379L191.579 253.383C191.335 253.382 191.089 253.376 190.838 253.366C172.573 252.567 159.677 243.5 150.863 233.279C142.042 223.05 137.327 211.685 135.45 206.366L135.449 206.364C135.415 206.268 135.444 206.158 135.525 206.09C135.525 206.09 135.526 206.09 135.526 206.09L152.477 192.01L152.477 192.01C152.577 191.926 152.726 191.936 152.813 192.029L152.814 192.03C153.16 192.396 153.505 192.765 153.851 193.134C154.025 193.32 154.199 193.506 154.374 193.692L154.409 193.73C161.997 201.83 169.329 209.657 183.805 209.253C186.164 209.189 188.579 208.274 190.94 206.863C193.305 205.45 195.647 203.523 197.868 201.394C202.305 197.138 206.31 192.026 209.093 188.474L209.098 188.468L209.098 188.468C210.306 186.925 211.247 185.726 211.948 184.938L211.95 184.935C212.038 184.835 212.195 184.826 212.294 184.916L212.296 184.917C212.401 185.01 212.407 185.166 212.318 185.264L212.317 185.266C211.62 186.049 210.67 187.262 209.487 188.773C206.622 192.429 202.549 197.627 197.991 201.944C193.411 206.283 188.449 209.624 183.815 209.75C169.098 210.144 161.52 202.054 154.022 194.049L154.005 194.031L154.005 194.031L152.93 192.885L152.608 192.542L152.246 192.842L136.237 206.137L135.967 206.362L136.086 206.692C138.085 212.226 142.84 223.365 151.555 233.323C160.276 243.287 172.981 252.086 190.854 252.865L190.854 252.865C195.297 253.051 199.639 251.433 204.172 248.748C208.689 246.072 213.449 242.304 218.734 238.121L218.779 238.085L218.779 238.085C220.694 236.568 222.671 235.002 224.722 233.423L224.725 233.421C224.829 233.34 224.987 233.357 225.072 233.468C225.154 233.574 225.137 233.731 225.025 233.819C222.975 235.396 220.997 236.962 219.087 238.475C213.799 242.661 209.085 246.391 204.591 249.079C200.101 251.765 195.878 253.379 191.579 253.379Z" fill="#323F4B" stroke="#323F4B"/>
<path d="M227.516 266.055H270.006C272.869 266.055 274.958 263.345 274.23 260.576L258.469 200.662C257.966 198.744 256.231 197.407 254.245 197.407H211.755C208.891 197.407 206.803 200.115 207.531 202.886L223.291 262.8C223.795 264.719 225.529 266.055 227.516 266.055Z" fill="#323F4B"/>
<path d="M223.051 262.865L223.051 262.864L207.29 202.95L207.29 202.95C206.921 201.552 207.215 200.1 208.097 198.958C208.978 197.815 210.308 197.159 211.751 197.159H254.242C256.338 197.159 258.173 198.574 258.703 200.599L258.703 200.599L274.464 260.513L274.464 260.514C274.833 261.911 274.539 263.363 273.657 264.506C272.776 265.648 271.445 266.304 270.002 266.304H227.512C225.416 266.304 223.581 264.889 223.051 262.865ZM211.748 197.656C210.462 197.657 209.273 198.242 208.489 199.258C207.703 200.276 207.44 201.579 207.768 202.821C207.768 202.821 207.768 202.821 207.768 202.821L223.529 262.734L223.529 262.734C224.005 264.542 225.642 265.804 227.512 265.804H270.002C271.286 265.804 272.48 265.219 273.263 264.201C274.047 263.183 274.311 261.881 273.982 260.639L258.222 200.726L258.222 200.726C257.745 198.918 256.108 197.656 254.238 197.656H211.751C211.75 197.656 211.749 197.656 211.748 197.656Z" fill="#323F4B" stroke="#323F4B"/>
<path d="M281.434 232.728L275.944 230.521C273.747 229.636 272.057 227.82 271.35 225.562C271.06 224.64 270.727 223.491 270.353 222.065C268.88 216.471 264.527 213.141 262.847 215.44C261.837 216.821 264.364 221.018 263.874 223.773C263.03 228.5 254.626 225.018 253.239 224.484C250.079 223.269 249.542 222.263 247.11 220.671C245.3 219.487 242.964 221.035 243.314 223.167C243.964 227.116 245.559 232.15 249.45 234.578C255.677 238.462 258.827 238.595 261.99 238.826C263.775 238.959 265.486 239.551 266.986 240.523C269.265 242.003 272.952 244.353 277.455 247.074L281.437 232.728H281.434Z" fill="#FDFDFD"/>
<path d="M266.846 240.73L266.846 240.73C269.152 242.228 272.844 244.578 277.322 247.286L277.063 247.714L277.32 247.285C277.364 247.311 277.408 247.322 277.451 247.322C277.481 247.322 277.514 247.317 277.543 247.306C277.618 247.274 277.671 247.211 277.69 247.143L277.69 247.141L281.673 232.795L281.673 232.795C281.706 232.674 281.644 232.547 281.526 232.498L266.846 240.73ZM266.846 240.73C265.372 239.774 263.683 239.202 261.966 239.073L261.697 239.052L261.696 239.052M266.846 240.73L261.696 239.052M261.696 239.052C260.123 238.937 258.568 238.822 256.639 238.265C254.711 237.709 252.388 236.704 249.316 234.787L249.052 235.211M261.696 239.052L249.052 235.211M249.052 235.211L249.316 234.787C245.355 232.316 243.723 227.197 243.066 223.206L243.066 223.205M249.052 235.211L243.066 223.205M243.066 223.205C242.884 222.108 243.345 221.06 244.273 220.458L244.274 220.458M243.066 223.205L244.274 220.458M244.274 220.458C245.192 219.859 246.325 219.861 247.241 220.461L244.274 220.458ZM244.547 220.875L244.548 220.875C244.918 220.634 245.332 220.508 245.756 220.508H245.763C246.186 220.508 246.604 220.633 246.976 220.88L244.547 220.875ZM244.547 220.875C243.961 221.259 243.379 222.053 243.559 223.127C243.867 225.003 244.405 227.2 245.343 229.229C246.28 231.257 247.631 233.148 249.583 234.367L249.583 234.367M244.547 220.875L249.583 234.367M249.583 234.367C252.559 236.223 254.842 237.221 256.77 237.779C258.694 238.336 260.246 238.45 261.726 238.559L261.738 238.56L261.739 238.56L262.01 238.58L262.01 238.58M249.583 234.367L262.01 238.58M262.01 238.58C263.809 238.713 265.578 239.314 267.125 240.317C269.281 241.717 272.653 243.866 276.742 246.352L277.307 246.695M262.01 238.58L277.307 246.695M277.307 246.695L277.484 246.058M277.307 246.695L277.484 246.058M277.484 246.058L281.021 233.307L281.14 232.877M277.484 246.058L281.14 232.877M281.14 232.877L280.726 232.71M281.14 232.877L280.726 232.71M280.726 232.71L275.855 230.751L275.855 230.751M280.726 232.71L275.855 230.751M275.855 230.751C273.572 229.834 271.846 227.969 271.116 225.634C270.799 224.619 270.461 223.439 270.119 222.13L270.119 222.129M275.855 230.751L270.119 222.129M270.119 222.129C269.603 220.173 268.721 218.495 267.743 217.258C266.782 216.042 265.669 215.18 264.66 214.99L264.659 214.99M270.119 222.129L264.659 214.99M264.659 214.99C264.248 214.913 263.902 214.962 263.616 215.101C263.338 215.237 263.162 215.438 263.052 215.586C262.871 215.833 262.851 216.158 262.855 216.392C262.86 216.657 262.904 216.959 262.963 217.263C263.079 217.861 263.272 218.543 263.43 219.102L263.44 219.137L263.44 219.138M264.659 214.99L263.44 219.138M263.44 219.138C263.902 220.76 264.367 222.441 264.12 223.817L264.119 223.818M263.44 219.138L264.119 223.818M264.119 223.818C263.943 224.809 263.454 225.508 262.67 225.949L264.119 223.818ZM276.037 230.291L281.525 232.498L247.241 220.461C248.039 220.983 248.641 221.448 249.184 221.869L249.185 221.87C250.31 222.74 251.228 223.446 253.319 224.249L253.508 224.324L253.509 224.324C256.13 225.348 258.048 225.809 259.458 225.936C260.867 226.062 261.801 225.857 262.42 225.513L262.42 225.512C263.096 225.135 263.48 224.525 263.624 223.73L263.624 223.729C263.746 223.051 263.67 222.28 263.525 221.528C263.381 220.772 263.157 219.988 262.954 219.277L262.953 219.273C262.953 219.273 262.953 219.273 262.953 219.272C262.69 218.346 262.462 217.537 262.382 216.838C262.303 216.14 262.385 215.648 262.641 215.297L262.642 215.296C263.134 214.621 263.858 214.336 264.744 214.503C265.825 214.708 267.026 215.567 268.105 216.928C269.175 218.277 270.08 220.061 270.59 222.002C270.932 223.304 271.267 224.478 271.583 225.487L271.583 225.487C272.271 227.679 273.895 229.429 276.036 230.291L276.037 230.291Z" fill="#323F4B" stroke="#323F4B"/>
<path d="M274.706 248.199C291.33 258.246 319.06 273.337 327.998 268.164C339.453 261.532 342.616 216.889 342.616 214.219L307.935 206.944L306.299 223.752C305.867 227.453 302.639 230.177 298.922 229.986C293.062 229.684 290.915 229.742 281.287 227.361L274.709 248.199H274.706Z" fill="#FDFDFD"/>
<path d="M274.577 248.411L274.575 248.41C274.478 248.352 274.434 248.233 274.467 248.129L274.468 248.126L281.046 227.287L281.046 227.287C281.085 227.163 281.214 227.09 281.344 227.122L281.344 227.122C290.18 229.307 292.674 229.434 297.612 229.677L297.612 229.677L298.932 229.741C298.932 229.741 298.933 229.741 298.933 229.741C302.515 229.935 305.636 227.281 306.051 223.725L306.051 223.725L306.052 223.716L307.521 208.616C307.521 208.616 307.521 208.615 307.521 208.615C307.534 208.486 307.642 208.383 307.796 208.391C307.93 208.408 308.027 208.526 308.015 208.663C308.015 208.663 308.015 208.664 308.015 208.664L306.546 223.774C306.095 227.601 302.74 230.426 298.906 230.236L298.905 230.236L297.589 230.171L297.589 230.171C292.743 229.934 290.265 229.812 281.909 227.77L281.454 227.659L281.313 228.105L275.123 247.712L275.005 248.088L275.342 248.291C288.941 256.485 300.38 262.338 309.231 265.681C313.655 267.353 317.451 268.404 320.559 268.801C323.652 269.196 326.136 268.952 327.874 267.947L327.874 267.947C329.325 267.107 330.616 265.672 331.768 263.848C332.922 262.019 333.958 259.767 334.887 257.252C336.744 252.22 338.192 246.079 339.298 240.035C341.509 227.95 342.368 216.162 342.368 214.219C342.368 214.08 342.477 213.971 342.616 213.971C342.755 213.971 342.864 214.08 342.864 214.219C342.864 214.218 342.864 214.221 342.864 214.227C342.863 214.243 342.861 214.288 342.857 214.369C342.851 214.47 342.843 214.614 342.831 214.799C342.808 215.168 342.772 215.699 342.722 216.37C342.623 217.71 342.467 219.61 342.242 221.899C341.792 226.478 341.065 232.611 339.958 238.948C338.85 245.289 337.364 251.815 335.4 257.189C334.418 259.876 333.322 262.26 332.102 264.185C330.88 266.113 329.553 267.549 328.121 268.378L328.121 268.378C326.87 269.104 325.225 269.453 323.226 269.453C317.666 269.453 309.713 266.75 301 262.738C292.31 258.735 282.941 253.467 274.577 248.411Z" fill="#323F4B" stroke="#323F4B"/>
<path d="M262.684 137.449C262.524 137.527 262.411 137.68 262.391 137.86L260.201 156.515C259.759 159.165 260.201 162.199 257.14 163.59L253.739 164.977C252.252 165.583 252.307 167.702 253.82 168.232C257.84 169.637 264.319 171.453 271.016 171.47C277.631 171.491 283.362 168.912 286.767 166.947C288.11 166.171 287.838 164.154 286.338 163.75L285.77 163.597C283.226 162.91 281.601 159.699 281.25 157.087L278.567 130.562C278.529 130.201 278.145 129.987 277.818 130.143L262.687 137.445L262.684 137.449Z" fill="#FDFDFD"/>
<path d="M263.008 137.571L277.635 130.509L278.278 130.199L278.35 130.909L281.005 157.13C281.197 158.542 281.74 160.06 282.562 161.309C283.388 162.563 284.465 163.5 285.706 163.835L263.008 137.571ZM263.008 137.571H262.674L262.622 138.013L260.447 156.535M263.008 137.571L260.447 156.535M260.447 156.535C260.358 157.077 260.307 157.597 260.254 158.125L260.25 158.163L260.25 158.165C260.033 160.427 259.789 162.653 257.251 163.811L253.832 165.209C253.832 165.209 253.831 165.209 253.831 165.209C252.937 165.574 252.897 166.414 252.902 166.628C252.906 166.847 252.993 167.683 253.901 167.997C258.068 169.455 264.433 171.205 271.015 171.222H271.016H271.091C277.525 171.222 283.103 168.777 286.643 166.73C287.444 166.267 287.403 165.46 287.374 165.246C287.374 165.246 287.374 165.245 287.374 165.245L286.879 165.311M260.447 156.535L286.273 163.988L286.274 163.988L286.144 164.471M286.879 165.311C286.858 165.155 286.743 164.631 286.144 164.471M286.879 165.311C286.899 165.464 286.923 165.991 286.392 166.297L286.879 165.311ZM286.144 164.471L286.273 163.988M286.144 164.471L286.273 163.988M286.273 163.988L285.706 163.835L286.273 163.988ZM259.754 158.171L259.759 158.123L259.759 158.122L259.766 158.058C259.818 157.525 259.87 156.996 259.956 156.478L259.958 156.466L259.959 156.455L262.142 137.834C262.173 137.572 262.334 137.345 262.574 137.229C262.574 137.229 262.574 137.229 262.574 137.229L277.705 129.927C277.705 129.927 277.705 129.927 277.706 129.927C277.933 129.818 278.198 129.827 278.415 129.949L278.662 129.514L278.415 129.949C278.637 130.075 278.782 130.296 278.807 130.546L278.807 130.548L281.49 157.073L281.491 157.081L281.492 157.09C281.665 158.356 282.146 159.745 282.869 160.9C283.588 162.048 284.588 163.03 285.83 163.365L285.83 163.365L286.398 163.518C286.398 163.518 286.398 163.518 286.398 163.518C287.197 163.735 287.756 164.373 287.862 165.192L287.862 165.192C287.969 166.01 287.599 166.761 286.888 167.17L286.887 167.17C283.381 169.196 277.954 171.579 271.681 171.722H271.094L271.017 171.722C271.017 171.722 271.017 171.722 271.016 171.722C264.382 171.702 257.966 169.945 253.74 168.471L253.739 168.471C252.95 168.196 252.43 167.482 252.408 166.645C252.386 165.809 252.872 165.066 253.645 164.75C253.645 164.75 253.645 164.75 253.645 164.75L257.046 163.363L257.055 163.359L257.064 163.355C258.206 162.835 258.843 162.048 259.209 161.108C259.555 160.216 259.656 159.185 259.754 158.171Z" fill="#323F4B" stroke="#323F4B"/>
<path d="M244.643 104.685L244.64 104.683C241.336 105.779 239.425 108.757 238.621 111.976C238.213 113.61 238.099 115.279 238.23 116.744C238.362 118.218 238.738 119.437 239.267 120.204C239.72 120.859 240.461 121.164 241.502 121.255C242.463 121.339 243.582 121.234 244.798 121.119C244.913 121.108 245.029 121.097 245.145 121.087C246.469 120.964 247.884 120.852 249.185 121.033C250.499 121.216 251.741 121.702 252.675 122.808L252.675 122.808C253.312 123.562 253.533 124.392 253.495 125.374C253.457 126.323 253.176 127.442 252.801 128.8C252.732 129.051 252.659 129.312 252.584 129.584C251.833 132.273 250.789 136.009 250.144 141.544L250.144 141.544C249.844 144.098 249.756 146.781 249.698 148.921C249.66 150.352 250.646 151.613 252.039 151.915L252.039 151.915C262.014 154.09 267.168 151.876 268.959 149.73L268.959 149.73C270.333 148.086 270.555 145.83 270.782 143.522C270.794 143.404 270.805 143.287 270.817 143.169C270.935 141.988 271.074 140.797 271.429 139.768C271.79 138.722 272.386 137.808 273.434 137.217L273.434 137.217C275.031 136.32 276.641 136.765 277.982 137.136L278.027 137.149C279.457 137.545 280.553 137.824 281.561 137.152C282.532 136.505 282.77 135.395 282.768 133.293C282.768 132.772 282.753 132.198 282.737 131.572C282.689 129.748 282.63 127.479 282.881 124.768C282.881 124.768 282.881 124.768 282.881 124.768L283.379 124.814C283.889 119.311 285.105 116.163 286.051 113.714C286.873 111.586 287.491 109.986 287.263 107.829L244.643 104.685ZM244.643 104.685L244.834 104.627C245.465 104.435 245.903 104.384 246.225 104.401C246.537 104.417 246.765 104.498 246.978 104.612C247.09 104.671 247.199 104.74 247.323 104.819C247.339 104.83 247.356 104.84 247.372 104.851C247.48 104.921 247.601 104.999 247.728 105.073C248.033 105.25 248.395 105.414 248.878 105.492C249.828 105.646 251.159 105.454 253.368 104.591C255.588 103.724 258.756 102.154 263.406 99.4734C265.205 98.4365 266.312 98.3655 267.009 98.6326C267.71 98.9016 268.176 99.5808 268.525 100.494C268.697 100.941 268.83 101.419 268.95 101.888C268.984 102.021 269.018 102.156 269.051 102.289C269.131 102.612 269.21 102.928 269.291 103.2C269.401 103.566 269.544 103.964 269.778 104.225C269.907 104.369 270.089 104.5 270.33 104.535C270.569 104.57 270.788 104.501 270.972 104.396L270.972 104.395C274.544 102.349 276.204 101.399 277.472 100.952C278.622 100.547 279.429 100.562 281.2 100.595C281.308 100.597 281.419 100.599 281.533 100.601L244.643 104.685Z" fill="#323F4B" stroke="#323F4B"/>
<path d="M268.244 115.577L267.404 118.845C267.009 120.383 266.72 121.947 266.54 123.525C266.203 126.488 265.584 131.579 265.023 134.402C264.197 138.551 251.204 136.885 251.204 136.885L249.926 134.759L248.405 134.531C248.113 134.487 247.824 134.382 247.592 134.198C247.011 133.735 246.82 132.977 247.062 132.327C248.378 128.777 251 120.883 251.041 114.363C251.041 114.363 259.296 109.945 268.244 115.577Z" fill="#FDFDFD"/>
<path d="M249.777 134.99L249.899 135.192L250.993 137.014C250.993 137.014 250.993 137.014 250.994 137.014C251.032 137.079 251.098 137.123 251.178 137.134C252.033 137.242 254.174 137.483 256.555 137.496L256.558 137.493H256.765C258.716 137.493 260.767 137.335 262.384 136.847C264.023 136.352 265.047 135.574 265.271 134.45L249.777 134.99ZM249.777 134.99L249.545 134.955M249.777 134.99L249.545 134.955M249.545 134.955L248.375 134.778C248 134.721 247.681 134.585 247.444 134.393L247.441 134.391M249.545 134.955L247.441 134.391M247.441 134.391C246.79 133.875 246.549 133.011 246.834 132.242C248.003 129.087 250.759 120.966 250.797 114.362H250.797M247.441 134.391L250.797 114.362M250.797 114.362V114.359M250.797 114.362V114.359M250.797 114.359C250.797 114.27 250.846 114.187 250.926 114.144C251.263 113.966 259.42 109.726 268.379 115.367C268.468 115.423 268.514 115.531 268.487 115.642C268.487 115.643 268.487 115.643 268.487 115.644L267.648 118.908L267.648 118.908M250.797 114.359L267.648 118.908M267.648 118.908C267.258 120.433 266.968 121.996 266.792 123.554M267.648 118.908L266.792 123.554M266.792 123.554C266.468 126.405 265.841 131.59 265.271 134.45L266.792 123.554ZM251.235 136.445L251.63 136.208L251.602 136.684C254.173 136.988 257.254 137.091 259.765 136.819C261.016 136.684 262.158 136.452 263.03 136.088C263.88 135.733 264.615 135.191 264.782 134.353L264.782 134.353C265.352 131.496 265.976 126.314 266.296 123.496L266.296 123.496C266.473 121.918 266.768 120.332 267.164 118.782C267.164 118.782 267.164 118.782 267.164 118.782C267.164 118.782 267.164 118.782 267.164 118.782L267.865 116.051L267.958 115.688L267.635 115.497C260.193 111.095 253.293 113.625 251.581 114.381L251.29 114.509L251.283 114.827C251.135 121.138 248.744 128.502 247.297 132.415C247.083 132.989 247.275 133.627 247.751 134.004L247.753 134.005C247.948 134.16 248.196 134.251 248.448 134.288C248.448 134.288 248.449 134.288 248.449 134.288L249.965 134.515C249.966 134.515 249.966 134.515 249.966 134.515C250.041 134.527 250.106 134.57 250.144 134.633C250.144 134.634 250.144 134.634 250.145 134.634L251.235 136.445ZM248.062 133.613C248.174 133.701 248.334 133.766 248.521 133.793L248.062 133.613Z" fill="#323F4B" stroke="#323F4B"/>
<path d="M268.588 126.201C268.588 126.201 270.594 118.345 273.965 120.035C277.335 121.725 274.91 130.32 268.588 126.201Z" fill="#FDFDFD"/>
</g>
<defs>
<clipPath id="clip0_145_8891">
<path d="M0 0H360V280C360 291.046 351.046 300 340 300H20C8.95431 300 0 291.046 0 280V0Z" fill="white"/>
</clipPath>
</defs>
</svg>
