<svg width="360" height="308" viewBox="0 0 360 308" fill="none" xmlns="http://www.w3.org/2000/svg">
<g filter="url(#filter0_d_145_8951)">
<g clip-path="url(#clip0_145_8951)">
<circle cx="286.5" cy="162.5" r="83.5" fill="#FDFDFD"/>
<path d="M206.461 107.465C206.461 107.465 165.105 157.781 114.39 157.525C63.6751 157.268 22.8098 106.53 22.8098 106.53C22.8098 106.53 64.1655 56.2139 114.881 56.4706C165.596 56.7273 206.461 107.465 206.461 107.465Z" fill="#0099FF"/>
<path d="M114.78 158.533C114.652 158.533 114.524 158.533 114.391 158.533C63.7857 158.276 22.4391 107.676 22.0311 107.163C21.7286 106.791 21.7332 106.26 22.0357 105.889C22.4528 105.384 64.0652 55.4623 114.501 55.4623C114.629 55.4623 114.757 55.4623 114.89 55.4623C165.495 55.7189 206.842 106.319 207.25 106.833C207.552 107.204 207.548 107.736 207.245 108.107C206.828 108.611 165.216 158.533 114.78 158.533ZM24.1303 106.535C29.0895 112.392 67.8374 156.278 114.4 156.512C114.524 156.512 114.657 156.512 114.78 156.512C161.196 156.512 200.146 113.245 205.146 107.456C200.187 101.603 161.444 57.7127 114.877 57.479C114.753 57.479 114.62 57.479 114.496 57.479C68.0986 57.479 29.1354 100.746 24.1303 106.535Z" fill="#323F4B"/>
<path d="M143.967 61.9287C152.812 69.9633 158.381 81.5409 158.317 94.4339C158.202 118.533 138.576 137.971 114.491 137.848C90.4007 137.724 70.9672 118.089 71.0818 93.9893C71.1459 81.0963 76.8247 69.5737 85.7485 61.6307C49.2466 74.4046 22.8143 106.525 22.8143 106.525C22.8143 106.525 63.6796 157.258 114.395 157.519C165.11 157.776 206.461 107.46 206.461 107.46C206.461 107.46 180.34 75.0692 143.962 61.9241L143.967 61.9287Z" fill="#FDFDFD"/>
<path d="M114.78 158.533C114.647 158.533 114.524 158.533 114.391 158.533C63.7811 158.276 22.4391 107.676 22.0311 107.163C21.7286 106.791 21.7332 106.26 22.0357 105.889C22.3016 105.563 49.0639 73.4016 85.4146 60.6828C85.8638 60.5223 86.3725 60.7057 86.6154 61.1228C86.8584 61.5398 86.7758 62.0669 86.4184 62.3878C77.3708 70.4407 72.1503 81.9633 72.0907 93.9947C71.9761 117.498 91.0017 136.721 114.496 136.84C114.569 136.84 114.647 136.84 114.721 136.84C126.019 136.84 136.652 132.468 144.687 124.506C152.772 116.494 157.259 105.815 157.314 94.4255C157.374 82.3896 152.263 70.8166 143.293 62.6719C142.936 62.3465 142.858 61.8194 143.105 61.4069C143.353 60.9944 143.862 60.8157 144.311 60.9807C180.533 74.0662 206.988 106.503 207.25 106.828C207.552 107.199 207.548 107.731 207.245 108.102C206.828 108.606 165.211 158.524 114.78 158.529V158.533ZM24.1303 106.535C29.0895 112.392 67.8328 156.278 114.4 156.516C161.022 156.764 200.132 113.268 205.146 107.461C201.429 103.065 178.677 77.2333 147.996 64.574C155.297 72.7737 159.376 83.4209 159.326 94.4393C159.271 106.365 154.573 117.553 146.103 125.941C137.688 134.273 126.55 138.857 114.716 138.857C114.638 138.857 114.56 138.857 114.482 138.857C89.8742 138.733 69.9549 118.603 70.074 93.9855C70.129 82.9671 74.3091 72.3612 81.6929 64.2349C50.8926 76.5825 27.8933 102.181 24.1349 106.539L24.1303 106.535Z" fill="#323F4B"/>
<path d="M188.802 89.5486C188.509 89.5486 188.216 89.4202 188.014 89.1727C187.666 88.7373 187.734 88.1048 188.17 87.7565L214.904 66.3017C215.34 65.9534 215.972 66.0221 216.321 66.4576C216.669 66.893 216.6 67.5255 216.165 67.8738L189.43 89.3286C189.242 89.4798 189.022 89.5486 188.802 89.5486Z" fill="#323F4B"/>
<path d="M156.515 66.9489C156.336 66.9489 156.157 66.903 155.992 66.8022C155.516 66.5134 155.365 65.8947 155.653 65.418L173.703 35.6536C173.991 35.1769 174.61 35.0257 175.087 35.3144C175.563 35.6032 175.715 36.2219 175.426 36.6986L157.377 66.463C157.189 66.7747 156.854 66.9489 156.515 66.9489Z" fill="#323F4B"/>
<path d="M37.8572 90.1585C37.651 90.1585 37.4447 90.0944 37.266 89.966L7.41449 68.2271C6.96532 67.8971 6.86448 67.2692 7.19449 66.82C7.52449 66.3708 8.15241 66.27 8.60158 66.6L38.4577 88.3389C38.9068 88.6689 39.0077 89.2969 38.6777 89.746C38.4806 90.0165 38.1735 90.1585 37.8618 90.1585H37.8572Z" fill="#323F4B"/>
<path d="M71.4048 68.5213C71.0702 68.5213 70.7493 68.3563 70.5523 68.0584L50.5 36.7219C50.2021 36.2544 50.3396 35.631 50.8071 35.3285C51.2746 35.026 51.8979 35.1635 52.2004 35.6356L72.2527 66.9721C72.5506 67.4396 72.4131 68.063 71.9456 68.3655C71.776 68.4755 71.5881 68.5259 71.4048 68.5259V68.5213Z" fill="#323F4B"/>
<path d="M111.768 57.4782C111.209 57.4782 110.76 57.0291 110.76 56.4699V21.0083C110.76 20.4538 111.209 20 111.768 20C112.327 20 112.776 20.4492 112.776 21.0083V56.4699C112.776 57.0245 112.327 57.4782 111.768 57.4782Z" fill="#323F4B"/>
<circle cx="115.059" cy="94.8284" r="19.2127" fill="#323F4B"/>
<circle cx="103.936" cy="79.6605" r="11.1231" fill="#0099FF"/>
<path d="M257.788 133.695C263.194 133.695 267.577 129.34 267.577 123.968C267.577 118.595 263.194 114.24 257.788 114.24C252.382 114.24 248 118.595 248 123.968C248 129.34 252.382 133.695 257.788 133.695Z" fill="#323F4B" stroke="#323F4B" stroke-width="0.6"/>
<path d="M286.23 138.289C291.636 138.289 296.018 133.934 296.018 128.562C296.018 123.19 291.636 118.835 286.23 118.835C280.824 118.835 276.442 123.19 276.442 128.562C276.442 133.934 280.824 138.289 286.23 138.289Z" fill="#323F4B" stroke="#323F4B" stroke-width="0.6"/>
<path d="M285.235 125.773C290.641 125.773 295.024 121.418 295.024 116.046C295.024 110.674 290.641 106.319 285.235 106.319C279.829 106.319 275.447 110.674 275.447 116.046C275.447 121.418 279.829 125.773 285.235 125.773Z" fill="#323F4B" stroke="#323F4B" stroke-width="0.6"/>
<path d="M274.037 119.455C279.443 119.455 283.825 115.099 283.825 109.727C283.825 104.355 279.443 100 274.037 100C268.631 100 264.249 104.355 264.249 109.727C264.249 115.099 268.631 119.455 274.037 119.455Z" fill="#323F4B" stroke="#323F4B" stroke-width="0.6"/>
<path d="M271.314 106.866C275.131 110.672 275.118 116.83 271.289 120.624C267.46 124.415 261.262 124.404 257.447 120.599C253.631 116.793 253.643 110.634 257.472 106.841C261.301 103.05 267.499 103.06 271.314 106.866Z" fill="#323F4B" stroke="#323F4B" stroke-width="0.6"/>
<path d="M285.068 140.875L289.032 167.436L291.266 167.559C291.266 167.559 286.191 183.421 272.976 185.612C259.761 187.803 261.142 172.568 261.142 172.568L268.884 169.053L266.242 147.648L285.066 140.873L285.068 140.875Z" fill="#FDFDFD"/>
<path d="M268.884 169.45C268.687 169.45 268.518 169.303 268.493 169.103L265.851 147.698C265.827 147.515 265.935 147.341 266.109 147.278L284.933 140.504C285.045 140.464 285.169 140.475 285.269 140.536C285.372 140.597 285.44 140.699 285.458 140.816L289.422 167.378C289.454 167.593 289.305 167.794 289.089 167.827C288.874 167.859 288.673 167.71 288.64 167.494L284.748 141.409L266.673 147.914L269.276 169.006C269.303 169.224 269.148 169.42 268.933 169.447C268.916 169.448 268.9 169.45 268.884 169.45Z" fill="#323F4B" stroke="#323F4B" stroke-width="0.6"/>
<path d="M284.725 136.285C285.368 134.787 287.433 134.279 288.894 134.997C290.354 135.714 291.205 137.336 291.419 138.952C291.706 141.134 290.914 143.482 289.215 144.873C287.516 146.267 284.924 146.549 283.071 145.369C279.651 149.026 274.82 152.577 269.832 152.914C267.029 153.105 264.04 152.631 261.86 150.852C260.339 149.613 259.327 147.828 258.753 145.951C258.178 144.072 258.011 142.095 257.952 140.13C257.783 134.469 258.489 128.781 260.037 123.336C260.287 122.456 260.57 121.559 261.14 120.841C261.942 119.828 263.207 119.307 264.444 118.941C267.271 118.107 270.316 117.879 273.171 118.603C276.029 119.327 278.678 121.051 280.244 123.553C281.747 125.951 284.723 136.283 284.723 136.283L284.725 136.285Z" fill="#FDFDFD"/>
<path d="M268.692 153.351C266.474 153.351 263.753 152.905 261.612 151.161C260.152 149.971 259.033 148.211 258.376 146.07C257.751 144.028 257.611 141.93 257.557 140.145C257.386 134.424 258.092 128.733 259.658 123.23C259.917 122.321 260.22 121.369 260.831 120.599C261.749 119.442 263.184 118.905 264.333 118.565C267.442 117.649 270.533 117.531 273.27 118.224C276.368 119.009 279.034 120.875 280.582 123.346C281.862 125.389 284.122 132.838 284.865 135.355C285.198 134.992 285.629 134.705 286.135 134.518C287.091 134.164 288.188 134.211 289.068 134.643C290.528 135.362 291.554 136.953 291.811 138.902C292.125 141.291 291.205 143.755 289.467 145.181C287.676 146.65 285.07 146.919 283.143 145.872C280.555 148.588 275.573 152.925 269.86 153.311C269.491 153.336 269.1 153.351 268.692 153.351ZM269.581 118.567C267.956 118.567 266.26 118.819 264.558 119.322C263.52 119.627 262.23 120.105 261.451 121.087C260.93 121.744 260.664 122.578 260.418 123.443C258.875 128.869 258.178 134.48 258.347 140.12C258.399 141.851 258.532 143.884 259.13 145.836C259.741 147.828 260.77 149.457 262.11 150.547C264.445 152.451 267.582 152.67 269.806 152.521C275.411 152.142 280.343 147.71 282.782 145.1C282.913 144.962 283.123 144.935 283.283 145.037C284.952 146.098 287.34 145.901 288.964 144.568C290.496 143.311 291.306 141.127 291.026 139.002C290.807 137.341 289.923 135.942 288.72 135.351C288.028 135.012 287.164 134.976 286.408 135.256C285.787 135.486 285.318 135.906 285.088 136.439C285.022 136.592 284.869 136.687 284.7 136.678C284.533 136.668 284.391 136.554 284.345 136.393C284.314 136.29 281.367 126.087 279.91 123.763C278.47 121.462 275.977 119.722 273.075 118.988C271.965 118.707 270.792 118.567 269.579 118.567H269.581Z" fill="#323F4B" stroke="#323F4B" stroke-width="0.6"/>
<path d="M285.582 142.278C285.562 142.278 285.541 142.278 285.521 142.273C285.305 142.239 285.158 142.038 285.192 141.822C285.429 140.306 286.505 138.968 287.931 138.413C288.134 138.334 288.364 138.435 288.443 138.638C288.522 138.841 288.421 139.071 288.218 139.15C287.049 139.604 286.167 140.701 285.973 141.944C285.943 142.14 285.774 142.278 285.584 142.278H285.582Z" fill="#323F4B" stroke="#323F4B" stroke-width="0.6"/>
<path d="M270.556 115.605C277.448 115.605 283.035 121.742 283.035 129.311C283.035 129.992 282.988 130.66 282.9 131.313L280.213 125.13L258.6 125.39C260.136 119.731 264.906 115.604 270.558 115.604L270.556 115.605Z" fill="#323F4B" stroke="#323F4B" stroke-width="0.6"/>
<path d="M164.484 207.487C172.408 201.858 175.454 195.903 176.517 191.343C174.448 188.738 172.381 186.132 170.24 183.607C161.986 173.867 151.619 164.736 138.961 163.077C136.705 162.78 134.3 162.759 132.288 163.82C130.277 164.882 128.845 167.319 129.578 169.472C131.22 174.293 139.816 172.007 142.502 176.331C138.657 174.968 134.02 178.691 134.519 182.74C131.766 184.218 130.931 188.363 132.897 190.791C131.732 193.051 132.105 196.01 133.795 197.909C135.485 199.807 138.384 200.518 140.762 199.62C142.792 203.924 145.211 208.091 147.574 212.22C152.095 212.555 158.255 211.909 164.482 207.485L164.484 207.487Z" fill="#FDFDFD"/>
<path d="M147.1 211.785C146.964 211.785 146.829 211.713 146.757 211.586L146.272 210.74C144.198 207.121 142.4 203.981 140.557 200.109C138.088 200.881 135.232 200.113 133.502 198.171C131.748 196.201 131.326 193.221 132.437 190.838C131.543 189.609 131.22 187.982 131.552 186.332C131.884 184.685 132.807 183.313 134.102 182.524C133.96 180.57 134.893 178.596 136.635 177.197C138.099 176.023 139.837 175.495 141.462 175.685C140.119 174.433 137.989 173.984 135.92 173.548C133.075 172.948 130.133 172.326 129.205 169.598C128.375 167.159 130.027 164.567 132.103 163.47C134.404 162.256 137.147 162.439 139.011 162.683C149.622 164.074 159.935 170.834 170.54 183.35C171.192 184.119 171.787 184.81 172.358 185.473C173.636 186.959 174.843 188.361 176.286 190.179C176.422 190.349 176.393 190.597 176.223 190.734C176.05 190.87 175.802 190.842 175.668 190.671C174.234 188.866 173.087 187.533 171.76 185.99C171.187 185.326 170.592 184.633 169.938 183.862C159.466 171.504 149.316 164.833 138.909 163.468C137.152 163.238 134.573 163.061 132.472 164.171C130.726 165.092 129.266 167.333 129.952 169.345C130.735 171.647 133.332 172.195 136.082 172.775C138.729 173.334 141.464 173.912 142.838 176.123C142.926 176.265 142.915 176.448 142.811 176.579C142.705 176.71 142.529 176.759 142.371 176.703C140.696 176.109 138.736 176.524 137.129 177.813C135.523 179.103 134.693 180.926 134.911 182.691C134.93 182.853 134.85 183.011 134.706 183.088C133.497 183.736 132.63 184.976 132.324 186.488C132.021 188 132.34 189.478 133.204 190.543C133.303 190.665 133.319 190.834 133.247 190.973C132.163 193.074 132.516 195.879 134.09 197.645C135.661 199.41 138.407 200.086 140.622 199.25C140.814 199.179 141.031 199.265 141.119 199.452C143.002 203.444 144.834 206.643 146.956 210.346L147.441 211.192C147.549 211.381 147.485 211.623 147.294 211.731C147.231 211.767 147.165 211.783 147.098 211.783L147.1 211.785Z" fill="#323F4B" stroke="#323F4B" stroke-width="0.6"/>
<path d="M159.922 203.731C158.632 204.394 157.048 203.879 156.398 202.582L103.496 96.78C103.261 96.3113 103.447 95.7384 103.914 95.4977C104.383 95.257 104.958 95.4384 105.202 95.9054L161.031 200.182C161.716 201.467 161.216 203.061 159.923 203.728L159.922 203.731Z" fill="#FDFDFD"/>
<path d="M158.731 204.416C158.419 204.416 158.104 204.366 157.797 204.267C157.03 204.017 156.407 203.482 156.044 202.76L103.142 96.958C102.812 96.2989 103.076 95.4871 103.733 95.1494C104.392 94.81 105.208 95.0686 105.551 95.7259L161.378 199.999C161.759 200.716 161.836 201.535 161.594 202.309C161.352 203.083 160.822 203.712 160.101 204.084C159.67 204.306 159.202 204.418 158.731 204.418V204.416ZM104.351 95.7888C104.265 95.7888 104.177 95.8085 104.096 95.8517C103.823 95.9917 103.712 96.3294 103.85 96.6042L156.752 202.406C157.018 202.938 157.477 203.331 158.043 203.516C158.611 203.701 159.212 203.653 159.742 203.38C160.274 203.107 160.664 202.641 160.841 202.072C161.019 201.503 160.964 200.897 160.682 200.371L104.852 96.0941C104.752 95.9001 104.554 95.7888 104.349 95.7888H104.351Z" fill="#323F4B"/>
<path d="M159.922 203.732H159.925M158.731 204.416C158.419 204.416 158.104 204.366 157.797 204.267C157.03 204.017 156.407 203.482 156.044 202.76L103.142 96.958C102.812 96.2989 103.076 95.4871 103.733 95.1494C104.392 94.81 105.208 95.0686 105.551 95.7259L161.378 199.999C161.759 200.716 161.836 201.535 161.594 202.309C161.352 203.083 160.822 203.712 160.101 204.084C159.67 204.306 159.202 204.418 158.731 204.418V204.416ZM104.351 95.7888C104.265 95.7888 104.177 95.8085 104.096 95.8517C103.823 95.9917 103.712 96.3294 103.85 96.6042L156.752 202.406C157.018 202.938 157.477 203.331 158.043 203.516C158.611 203.701 159.212 203.653 159.742 203.38C160.274 203.107 160.664 202.641 160.841 202.072C161.019 201.503 160.964 200.897 160.682 200.371L104.852 96.0941C104.752 95.9001 104.554 95.7888 104.349 95.7888H104.351Z" stroke="#323F4B" stroke-width="0.6"/>
<path d="M144.875 192.46C144.816 192.46 144.756 192.46 144.697 192.456C143.194 192.397 141.644 191.734 139.961 190.428C137.639 188.629 135.757 186.269 134.517 183.604C134.426 183.406 134.51 183.171 134.709 183.079C134.909 182.987 135.142 183.074 135.234 183.271C136.421 185.822 138.222 188.081 140.446 189.803C141.994 191.003 143.395 191.612 144.729 191.666C146.118 191.718 147.819 190.976 148.28 189.493C148.345 189.284 148.566 189.168 148.774 189.232C148.982 189.297 149.099 189.518 149.035 189.726C148.471 191.542 146.549 192.458 144.877 192.458L144.875 192.46Z" fill="#323F4B" stroke="#323F4B" stroke-width="0.6"/>
<path d="M141.698 196.846C140.245 196.846 138.693 196.364 137.26 195.447C135.48 194.306 134.032 192.636 132.866 191.293C132.725 191.127 132.741 190.878 132.906 190.736C133.071 190.594 133.319 190.61 133.463 190.775C134.901 192.435 136.124 193.784 137.683 194.782C139.456 195.917 141.408 196.32 143.037 195.887C144.894 195.393 146.27 193.683 146.17 191.991C146.157 191.774 146.322 191.587 146.54 191.573C146.762 191.56 146.946 191.725 146.958 191.943C147.082 193.996 145.449 196.063 143.24 196.65C142.746 196.781 142.227 196.846 141.696 196.846H141.698Z" fill="#323F4B" stroke="#323F4B" stroke-width="0.6"/>
<path d="M140.388 199.873C140.194 199.873 140.024 199.73 139.997 199.53C139.968 199.315 140.119 199.115 140.336 199.087C141.716 198.902 142.922 197.779 143.206 196.416C143.249 196.202 143.459 196.066 143.673 196.111C143.887 196.156 144.023 196.364 143.979 196.578C143.628 198.257 142.139 199.642 140.44 199.87C140.422 199.872 140.404 199.873 140.388 199.873Z" fill="#323F4B" stroke="#323F4B" stroke-width="0.6"/>
<path d="M159.672 179.702C155.631 177.621 148.014 172.782 145.383 171.119C143.903 170.185 141.922 169.999 140.942 172.037C140.042 173.908 140.552 176.083 141.391 176.899C142.016 177.506 146.105 181.807 152.58 185.859C155.858 187.91 159.935 189.608 168.999 189.951L159.672 179.704V179.702Z" fill="#FDFDFD"/>
<path d="M157.58 191.513C157.469 191.513 157.357 191.466 157.278 191.373C156.935 190.969 156.589 190.543 156.235 190.108C154.688 188.205 152.936 186.048 150.619 184.866C144.638 181.814 141.143 178.698 140.227 175.604C139.722 173.898 140.15 172.615 140.599 171.839C141.121 170.934 141.813 170.37 142.657 170.162C143.562 169.939 144.606 170.162 145.593 170.785C146.292 171.227 146.998 171.787 147.747 172.38C149.909 174.095 152.601 176.229 157.445 177.526C157.655 177.581 157.781 177.799 157.725 178.009C157.67 178.219 157.454 178.345 157.242 178.289C152.242 176.949 149.478 174.76 147.258 173C146.495 172.394 145.836 171.872 145.173 171.453C144.367 170.945 143.542 170.758 142.847 170.929C142.222 171.083 141.696 171.521 141.285 172.234C140.915 172.876 140.561 173.942 140.987 175.381C141.572 177.36 143.781 180.489 150.98 184.164C153.446 185.423 155.254 187.648 156.851 189.613C157.201 190.042 157.542 190.464 157.882 190.865C158.024 191.032 158.002 191.279 157.837 191.421C157.763 191.484 157.672 191.515 157.582 191.515L157.58 191.513Z" fill="#323F4B" stroke="#323F4B" stroke-width="0.6"/>
<path d="M329.193 170.03C311.62 162.181 293.688 163.619 293.688 163.619L290.5 160L277.5 173.566L274.601 177.396L270.578 172.549L266.189 165.038L245.516 167.067C243.58 167.256 241.75 167.635 240.001 168.165V168.156C240.001 168.156 234.428 169.58 229.981 173.566C225.68 177.421 203.363 205.742 194.446 215.465C187.29 208.887 181.974 200.484 176.667 192.084C175.255 196.843 171.758 202.917 163.428 208.242C156.881 212.425 150.476 212.643 146 211.912C152.197 225.888 159.969 239.067 169.108 251.064C173.382 256.675 178.215 262.222 184.573 264.726C190.928 267.228 198.167 266.321 204.343 263.352C210.518 260.383 215.734 255.501 220.242 250.107C225.463 243.863 230.411 239.046 234.451 233.918L226.163 302.148H284.997C284.997 302.148 332.564 242.86 339.425 229.224C346.286 215.589 351.794 180.124 329.191 170.03H329.193Z" fill="#FDFDFD"/>
<path d="M266 165.5L267.5 162.5L271 166.5L274.5 171L290.5 159L294 164L280.5 192L271 209L265 166L266 165.5Z" fill="#0099FF"/>
<path d="M284.983 303.407H226.378C226.266 303.407 226.158 303.355 226.083 303.263C226.008 303.171 225.974 303.05 225.989 302.929L234.075 235.836C232.131 238.232 229.999 240.587 227.758 243.062C225.508 245.547 223.179 248.118 220.774 251.018C215.489 257.387 210.266 261.77 204.804 264.418C198.081 267.678 190.795 268.185 184.813 265.81C178.401 263.265 173.54 257.652 169.24 251.963C160.131 239.912 152.37 226.66 146.172 212.571C146.11 212.429 146.126 212.264 146.213 212.139C146.301 212.014 146.444 211.949 146.588 211.974C150.754 212.66 157.104 212.587 163.686 208.345C172.16 202.886 175.44 196.64 176.7 192.36C176.744 192.206 176.869 192.093 177.018 192.07C177.17 192.047 177.314 192.118 177.4 192.253C182.515 200.409 187.801 208.839 194.762 215.381C198.992 210.7 205.991 202.136 212.762 193.85C220.418 184.483 227.649 175.635 229.927 173.577C234.376 169.557 239.839 168.117 240.069 168.058C240.091 168.052 240.114 168.048 240.137 168.046C241.935 167.504 243.778 167.135 245.617 166.955L265.936 164.944L267 162C267.036 161.848 267.148 161.731 267.29 161.694C267.431 161.658 267.579 161.708 267.676 161.825L274.5 170.74L288.5 159.936C288.546 159.874 288.609 159.828 288.679 159.801L291.5 159C291.704 158.925 291.925 159.038 291.997 159.256L293.908 163.472C296.33 163.332 312.997 162.684 329.158 169.958C335.974 173.025 340.751 178.591 343.358 186.497C348.267 201.383 344.084 220.881 339.544 229.973C332.768 243.544 285.755 302.661 285.28 303.257C285.205 303.351 285.096 303.405 284.982 303.405L284.983 303.407ZM226.825 302.562H284.803C287.439 299.245 332.283 242.737 338.854 229.575C343.326 220.62 347.449 201.423 342.62 186.781C340.089 179.108 335.459 173.711 328.855 170.74C311.644 162.994 293.848 164.324 293.671 164.337C293.49 164.352 293.331 164.237 293.272 164.058L291.391 159.936L289.043 160.562L274.823 171.661C274.75 171.757 274.641 171.815 274.527 171.818C274.412 171.822 274.3 171.769 274.223 171.676L267.579 162.982L266.631 165.446C266.59 165.619 266.451 165.744 266.287 165.761L245.693 167.798C243.847 167.981 242.075 168.336 240.271 168.888C240.239 168.897 240.209 168.903 240.177 168.903C239.487 169.095 234.456 170.594 230.437 174.226C228.205 176.244 220.992 185.069 213.357 194.411C206.437 202.876 199.284 211.632 195.07 216.261C194.923 216.421 194.689 216.43 194.532 216.286C187.555 209.825 182.27 201.527 177.195 193.438C175.728 197.81 172.257 203.818 164.092 209.078C157.679 213.207 151.482 213.501 147.198 212.925C153.317 226.687 160.937 239.641 169.853 251.437C174.082 257.031 178.853 262.548 185.088 265.022C190.877 267.32 197.947 266.82 204.484 263.653C209.844 261.055 214.98 256.741 220.189 250.461C222.606 247.547 224.94 244.97 227.197 242.478C229.763 239.643 232.186 236.966 234.336 234.218C234.449 234.074 234.637 234.028 234.796 234.103C234.955 234.178 235.049 234.358 235.028 234.545L226.829 302.565L226.825 302.562Z" fill="#323F4B" stroke="#323F4B" stroke-width="0.6"/>
<path d="M152.95 218.802C152.75 218.802 152.578 218.651 152.558 218.448C152.535 218.231 152.693 218.037 152.91 218.014C166.772 216.553 176.025 207.448 179.05 199.071C179.123 198.866 179.348 198.758 179.556 198.834C179.761 198.907 179.867 199.134 179.793 199.34C176.686 207.949 167.196 217.304 152.995 218.8C152.98 218.8 152.968 218.802 152.953 218.802H152.95Z" fill="#FDFDFD"/>
<path d="M335.815 312.714L331.243 258.078L287.239 254.052C280.381 272.647 266.437 310.414 265.522 312.714C264.608 315.015 312.003 313.673 335.815 312.714Z" fill="#FDFDFD" stroke="#323F4B" stroke-width="0.6"/>
<path d="M334.099 312.832L329.489 258.086L285.116 254.052C278.201 272.685 264.139 310.527 263.217 312.832C262.295 315.137 310.088 313.792 334.099 312.832Z" fill="#FDFDFD"/>
<path d="M304.931 289.123L299.157 213.703H236.294L242.07 289.123H304.931Z" fill="#323F4B" stroke="#323F4B" stroke-width="0.6"/>
<path d="M311.905 208.39C311.905 208.39 339.536 179.543 339.866 180.188C340.198 180.833 361.075 222.141 354.44 256.186C347.806 290.231 322.556 294.005 284.738 293.784C246.921 293.565 238.211 291.911 241.284 287.122C241.284 287.122 237.503 285.192 238.096 281.386C238.096 281.386 234.814 278.358 235.65 274.642C235.65 274.642 228.505 267.761 239.57 262.194L239.912 267.172C239.912 267.172 250.855 269.344 256.045 267.253C261.236 265.163 259.65 261.655 257.956 259.913C256.263 258.171 251.852 251.525 253.849 249.494C255.848 247.463 264.117 254.852 267.671 256.039C271.225 257.226 307.261 253.722 317.268 250.913C317.268 250.913 316.111 222.606 311.903 208.392L311.905 208.39Z" fill="#FDFDFD"/>
<path d="M284.738 255.867C284.535 255.867 284.363 255.712 284.345 255.506C284.325 255.288 284.487 255.096 284.704 255.078C296.222 254.074 310.829 252.23 316.86 250.613C316.716 247.472 315.434 221.706 311.526 208.504C311.465 208.295 311.583 208.074 311.792 208.013C312.002 207.951 312.221 208.071 312.282 208.279C316.456 222.376 317.65 250.611 317.663 250.895C317.67 251.078 317.551 251.242 317.375 251.292C311.497 252.943 296.525 254.843 284.774 255.867C284.763 255.867 284.751 255.867 284.74 255.867H284.738Z" fill="#323F4B" stroke="#323F4B" stroke-width="0.6"/>
<path d="M284.74 294.179H284.738C253.437 293.998 242.293 292.866 240.574 289.698C240.188 288.985 240.244 288.184 240.747 287.259C239.791 286.645 237.298 284.716 237.679 281.528C237.029 280.871 234.592 278.135 235.222 274.766C234.628 274.13 232.594 271.704 233.052 268.67C233.448 266.055 235.581 263.758 239.394 261.84C239.513 261.781 239.653 261.784 239.768 261.849C239.883 261.916 239.956 262.034 239.967 262.165L240.287 266.838C242.061 267.162 251.347 268.719 255.9 266.885C257.789 266.124 258.877 265.125 259.132 263.918C259.492 262.217 258.109 260.631 257.676 260.186C255.952 258.411 251.302 251.522 253.57 249.214C255.057 247.702 258.71 250.1 262.575 252.639C264.61 253.975 266.534 255.238 267.798 255.66C269.102 256.095 275.58 255.872 284.706 255.076C284.92 255.058 285.116 255.218 285.133 255.435C285.153 255.653 284.992 255.845 284.774 255.863C280.277 256.254 269.596 257.093 267.547 256.409C266.185 255.955 264.221 254.665 262.141 253.298C259.034 251.258 255.165 248.718 254.132 249.767C252.46 251.468 256.476 257.817 258.242 259.635C258.743 260.15 260.347 261.996 259.905 264.082C259.592 265.563 258.344 266.752 256.194 267.618C250.955 269.728 240.287 267.648 239.836 267.559C239.66 267.525 239.531 267.375 239.518 267.198L239.218 262.821C235.984 264.554 234.173 266.558 233.834 268.784C233.367 271.842 235.899 274.331 235.924 274.357C236.023 274.452 236.066 274.594 236.036 274.727C235.26 278.18 238.333 281.065 238.365 281.093C238.462 281.183 238.507 281.314 238.487 281.444C237.947 284.915 241.321 286.693 241.465 286.767C241.564 286.817 241.637 286.909 241.666 287.017C241.695 287.124 241.677 287.239 241.618 287.333C240.924 288.414 241.086 288.983 241.267 289.319C242.781 292.108 254.565 293.211 284.742 293.387C284.959 293.387 285.135 293.567 285.135 293.784C285.135 294.001 284.957 294.177 284.74 294.177V294.179Z" fill="#323F4B" stroke="#323F4B" stroke-width="0.6"/>
<path d="M287.536 294.304C286.601 294.304 285.658 294.3 284.704 294.295C284.487 294.295 284.311 294.115 284.311 293.898C284.311 293.681 284.489 293.505 284.706 293.505H284.708C304.137 293.618 319.463 292.655 331.092 287.589C343.628 282.127 350.914 272.161 354.02 256.226C360.606 222.431 339.36 179.878 339.154 179.476C339.055 179.282 339.131 179.043 339.325 178.944C339.519 178.844 339.757 178.921 339.856 179.115C339.905 179.208 346.187 190.314 350.521 205.453C354.374 218.918 358.244 238.683 354.796 256.377C351.636 272.588 344.205 282.736 331.408 288.312C320.226 293.185 305.732 294.304 287.536 294.304Z" fill="#323F4B" stroke="#323F4B" stroke-width="0.6"/>
<path d="M284.95 292.035C284.902 292.035 284.851 292.026 284.805 292.006C284.602 291.925 284.503 291.695 284.584 291.492C288.916 280.605 289.047 268.088 284.943 257.154C284.866 256.95 284.97 256.721 285.175 256.646C285.379 256.569 285.606 256.673 285.683 256.878C289.855 267.995 289.722 280.718 285.318 291.785C285.257 291.94 285.108 292.035 284.952 292.035H284.95Z" fill="#323F4B" stroke="#323F4B" stroke-width="0.6"/>
<path d="M250.831 289.517C247.44 289.517 244.048 288.804 240.968 287.412C240.768 287.322 240.68 287.089 240.77 286.89C240.86 286.692 241.092 286.602 241.293 286.692C245.565 288.619 250.46 289.203 255.074 288.334C255.287 288.294 255.496 288.434 255.535 288.648C255.576 288.862 255.435 289.068 255.221 289.109C253.777 289.382 252.304 289.515 250.833 289.515L250.831 289.517Z" fill="#323F4B" stroke="#323F4B" stroke-width="0.6"/>
<path d="M248.514 283.974C244.829 283.974 241.14 283.177 237.807 281.628C237.609 281.537 237.523 281.302 237.614 281.104C237.706 280.906 237.941 280.82 238.139 280.912C242.652 283.008 247.843 283.683 252.751 282.814C252.969 282.776 253.172 282.92 253.209 283.134C253.247 283.349 253.103 283.554 252.89 283.592C251.447 283.847 249.982 283.974 248.514 283.974Z" fill="#323F4B" stroke="#323F4B" stroke-width="0.6"/>
<path d="M247.708 279.138C243.367 279.138 239.039 277.78 235.515 275.219C235.339 275.091 235.3 274.843 235.427 274.667C235.555 274.491 235.802 274.452 235.978 274.579C240.65 277.974 246.789 279.17 252.405 277.78C252.613 277.728 252.831 277.857 252.883 278.069C252.935 278.281 252.805 278.495 252.593 278.547C250.991 278.944 249.348 279.138 247.707 279.138H247.708Z" fill="#323F4B" stroke="#323F4B" stroke-width="0.6"/>
<path d="M270.964 210.799C270.943 210.799 270.921 210.799 270.9 210.793C270.726 210.765 270.591 210.623 270.571 210.447L264.5 165.5C264.477 165.283 264.633 165.089 264.85 165.065C265.062 165.042 265.262 165.198 265.285 165.416L271.203 208.954L293.783 163.668C293.875 163.47 294.11 163.384 294.308 163.476C294.505 163.567 294.592 163.802 294.5 164L271.322 210.571C271.255 210.711 271.115 210.799 270.964 210.799Z" fill="#323F4B" stroke="#323F4B" stroke-width="0.6"/>
</g>
</g>
<defs>
<filter id="filter0_d_145_8951" x="-4" y="0" width="368" height="308" filterUnits="userSpaceOnUse" color-interpolation-filters="sRGB">
<feFlood flood-opacity="0" result="BackgroundImageFix"/>
<feColorMatrix in="SourceAlpha" type="matrix" values="0 0 0 0 0 0 0 0 0 0 0 0 0 0 0 0 0 0 127 0" result="hardAlpha"/>
<feOffset dy="4"/>
<feGaussianBlur stdDeviation="2"/>
<feComposite in2="hardAlpha" operator="out"/>
<feColorMatrix type="matrix" values="0 0 0 0 0 0 0 0 0 0 0 0 0 0 0 0 0 0 0.25 0"/>
<feBlend mode="normal" in2="BackgroundImageFix" result="effect1_dropShadow_145_8951"/>
<feBlend mode="normal" in="SourceGraphic" in2="effect1_dropShadow_145_8951" result="shape"/>
</filter>
<clipPath id="clip0_145_8951">
<path d="M0 0H360V280C360 291.046 351.046 300 340 300H20C8.95431 300 0 291.046 0 280V0Z" fill="white"/>
</clipPath>
</defs>
</svg>
