<svg width="360" height="300" viewBox="0 0 360 300" fill="none" xmlns="http://www.w3.org/2000/svg">
<g clip-path="url(#clip0_145_9337)">
<circle cx="272.5" cy="103.5" r="97.5" fill="#FDFDFD"/>
<path d="M86.7832 78.5932C87.6304 78.6523 88.4692 78.3932 89.1355 77.8666C89.8019 77.3401 90.2478 76.5838 90.386 75.7459C90.5243 74.9079 90.345 74.0485 89.8831 73.3358C89.4213 72.623 88.7102 72.1082 87.8889 71.8921C88.3813 71.3325 88.6852 70.6322 88.7575 69.8903C88.8299 69.1485 88.667 68.4027 88.2919 67.7585C87.9168 67.1144 87.3486 66.6046 86.6677 66.3013C85.9868 65.9981 85.2278 65.9167 84.4981 66.0688C84.4281 65.3387 84.1706 64.639 83.7506 64.0378C83.3306 63.4365 82.7623 62.954 82.1008 62.6371C81.4394 62.3202 80.7072 62.1796 79.9755 62.2291C79.2437 62.2785 78.5371 62.5163 77.9243 62.9192C77.0638 62.2921 76.019 61.9695 74.9548 62.0023C73.8906 62.035 72.8676 62.4213 72.0474 63.1002C71.3278 63.0098 70.5982 63.152 69.9653 63.5061C69.3324 63.8602 68.8294 64.4074 68.5298 65.0679C68.2303 65.7284 68.15 66.4674 68.3006 67.1768C68.4512 67.8862 68.8249 68.5288 69.3669 69.0106" fill="#323F4B"/>
<path d="M61.2808 82.6748L61.2799 82.6647L61.2785 82.6546C60.7513 78.7346 61.4114 75.0211 63.1496 72.197C64.8781 69.3887 67.6877 67.4315 71.5452 67.0098L72.2802 66.9704C72.2805 66.9704 72.2808 66.9704 72.2811 66.9703C75.7865 66.7962 79.229 67.9481 81.9236 70.1968C84.6184 72.4457 86.3678 75.6267 86.8236 79.1069C87.7159 86.0708 88.6302 93.7376 88.7698 97.4223C88.9063 101.118 87.1626 103.317 85.3781 104.612C84.479 105.265 83.5679 105.688 82.8801 105.947C82.5369 106.077 82.2515 106.165 82.0538 106.22C81.955 106.248 81.8784 106.267 81.8276 106.279C81.8022 106.285 81.7833 106.289 81.7714 106.292L81.7588 106.295L81.757 106.295L81.7566 106.295L81.7565 106.295L81.7564 106.295L81.3356 106.382L81.3588 106.812L81.6944 113.048L63.8788 110.388L63.7804 109.479L63.7796 109.472L61.2808 82.6748Z" fill="#FDFDFD" stroke="#323F4B"/>
<path d="M81.9587 106.778C78.356 106.959 74.777 106.103 71.6457 104.312C71.6457 104.312 74.3261 109.773 82.019 108.688L81.9587 106.778Z" fill="#FDFDFD"/>
<path d="M86.3811 75.5239C86.3811 75.5239 84.0894 70.7661 81.6904 69.7542C78.7888 68.5212 77.7233 71.6909 74.9892 71.0945C72.2552 70.4981 69.4809 69.2919 66.8206 71.5166C63.9123 73.9491 65.4066 75.4837 65.3932 78.9348C65.3262 92.9267 62.9741 97.0278 61.9287 90.4607C61.8081 89.7437 59.7844 89.2746 59.3354 86.2457C58.7591 82.3188 58.3637 77.5342 59.1076 74.693C59.7308 72.3007 60.9973 70.5986 63.3226 68.662C66.9881 65.6397 72.215 65.3114 75.7867 65.499C79.3584 65.6867 86.4012 69.4259 86.3811 75.5239Z" fill="#323F4B"/>
<path d="M61.9064 90.2466L61.9064 90.2466L61.9069 90.2516C61.9327 90.5356 61.9604 90.8397 61.989 91.1545C62.072 92.0656 62.163 93.0657 62.2402 93.9233C62.2921 94.5003 62.3377 95.0123 62.3703 95.3889C62.3795 95.495 62.3876 95.59 62.3945 95.6726C62.2909 95.6992 62.1636 95.7266 62.0175 95.7506C61.5612 95.8253 60.9568 95.8595 60.3506 95.7429C59.7483 95.6271 59.1616 95.3667 58.7006 94.8652C58.241 94.3654 57.8653 93.5816 57.7634 92.3435C57.6502 90.9437 57.9665 90.1192 58.3958 89.6242C58.8307 89.1227 59.4508 88.8793 60.1008 88.7851C60.3155 88.7572 60.5336 88.7731 60.742 88.8317C60.9513 88.8906 61.1464 88.9914 61.3156 89.1281L61.6298 88.7391L61.3156 89.1281C61.4847 89.2647 61.6243 89.4344 61.7259 89.6266C61.8275 89.8189 61.8889 90.0298 61.9064 90.2466Z" fill="#FDFDFD" stroke="#323F4B"/>
<path d="M61.996 79.9269C62.6727 80.4226 63.463 80.7406 64.2944 80.8517C64.7138 80.8916 65.1333 80.7776 65.4749 80.531C65.8164 80.2844 66.0566 79.922 66.1507 79.5114C66.1976 79.1429 66.0836 78.7207 66.3115 78.4192C66.5393 78.1176 67.1223 78.1444 67.5713 78.1712C68.3508 78.2003 69.1159 77.9565 69.7349 77.4818C70.3539 77.0072 70.7879 76.3315 70.9621 75.5712C71.2136 75.8212 71.5492 75.9686 71.9035 75.9847C72.2578 76.0008 72.6054 75.8845 72.8786 75.6583C73.3984 75.1825 73.8494 74.6367 74.2188 74.0366C74.4114 73.7384 74.6738 73.4917 74.9832 73.3177C75.2926 73.1437 75.6398 73.0478 75.9946 73.0382C76.3743 73.1483 76.7657 73.2135 77.1606 73.2325C77.8307 73.1387 78.1524 72.3077 78.2261 71.6108C78.2998 70.9139 78.34 70.1031 78.8962 69.701C79.4524 69.2989 80.1426 69.4865 80.7859 69.5536C81.4292 69.6206 82.2535 69.4195 82.3875 68.7896C82.4069 68.6198 82.3914 68.4477 82.3418 68.2841C82.2923 68.1204 82.2097 67.9686 82.0993 67.8381C81.6383 67.2172 80.9808 66.7707 80.2337 66.5712C79.4866 66.3716 78.694 66.4308 77.9848 66.7391C77.6684 65.8802 77.1077 65.1326 76.3716 64.5884C75.6355 64.0443 74.7563 63.7274 73.8424 63.6768C72.9284 63.6263 72.0196 63.8442 71.228 64.3038C70.4364 64.7634 69.7965 65.4445 69.3873 66.2633C68.7987 65.7882 68.1046 65.4613 67.3634 65.3103C66.6222 65.1592 65.8556 65.1883 65.128 65.3952C64.4004 65.602 63.7331 65.9806 63.1823 66.499C62.6314 67.0174 62.2131 67.6605 61.9625 68.3742C61.3039 68.2338 60.6186 68.2906 59.9922 68.5376C59.3659 68.7846 58.8262 69.2108 58.4408 69.7629C58.0553 70.315 57.8412 70.9684 57.8251 71.6416C57.8091 72.3147 57.9918 72.9776 58.3505 73.5474C57.868 73.8154 57.4619 74.2024 57.171 74.6715C56.8802 75.1407 56.7141 75.6765 56.6887 76.2279C56.7222 77.3269 57.848 78.3655 58.8933 78.0305C58.7302 78.4658 58.7326 78.9459 58.9002 79.3795C59.0677 79.8132 59.3887 80.1702 59.8022 80.3827C60.2157 80.5952 60.6928 80.6484 61.1429 80.5323C61.5931 80.4162 61.9849 80.1387 62.2439 79.7527" fill="#323F4B"/>
<path d="M101.746 171.927L101.802 172.198L102.061 172.294L102.094 172.206C102.061 172.294 102.061 172.294 102.061 172.294L102.061 172.295L102.062 172.295L102.066 172.296L102.082 172.302L102.142 172.325L102.372 172.41C102.57 172.483 102.854 172.588 103.196 172.714C103.881 172.966 104.802 173.301 105.746 173.637C106.69 173.973 107.659 174.31 108.439 174.563C108.777 174.673 109.083 174.768 109.338 174.841C109.215 175.002 109.062 175.195 108.882 175.419C108.258 176.195 107.322 177.309 106.171 178.654C103.871 181.344 100.722 184.948 97.5106 188.599C93.7475 192.877 89.8945 197.223 87.2249 200.235C85.3423 202.359 84.0482 203.819 83.7893 204.123C83.7167 204.208 83.5091 204.349 83.1005 204.518C82.7131 204.678 82.2103 204.837 81.6239 204.993C80.4527 205.303 78.9959 205.584 77.5658 205.822C76.1382 206.059 74.7479 206.251 73.7138 206.384C73.1969 206.451 72.7696 206.502 72.4717 206.537C72.4524 206.539 72.4336 206.542 72.4154 206.544L54.7505 149.735L54.7538 149.567C54.757 149.404 54.7621 149.164 54.7694 148.857C54.784 148.242 54.8073 147.356 54.8426 146.272C54.9132 144.105 55.0313 141.149 55.2215 137.994C55.4118 134.839 55.6739 131.488 56.0319 128.531C56.3912 125.561 56.8426 123.03 57.3992 121.485C58.8627 117.543 60.7744 113.782 63.0963 110.277L83.7649 114.49C83.7858 114.522 83.8094 114.559 83.8356 114.599C83.9553 114.783 84.1295 115.053 84.3477 115.395C84.784 116.078 85.3955 117.049 86.0957 118.198C87.4974 120.496 89.2499 123.498 90.6648 126.328C90.9999 126.998 91.4303 128.209 91.9294 129.85C92.4253 131.48 92.9802 133.503 93.5676 135.776C94.7421 140.323 96.0422 145.854 97.2543 151.211C98.4662 156.568 99.5892 161.747 100.409 165.587C100.819 167.507 101.154 169.093 101.385 170.198C101.501 170.75 101.592 171.183 101.653 171.477L101.723 171.813L101.74 171.898L101.745 171.92L101.746 171.925L101.746 171.927C101.746 171.927 101.746 171.927 102.236 171.826L101.746 171.927Z" fill="#0099FF" stroke="#323F4B"/>
<path d="M183.742 223.579L187.89 240.057C187.89 240.057 206.03 241.397 207.095 244.346L175.432 253.54L167.914 228.129L183.742 223.579Z" fill="#323F4B" stroke="#323F4B"/>
<path d="M175.432 253.539L174.762 250.946L205.366 243.105C205.366 243.105 206.954 243.307 207.082 244.345L175.432 253.539Z" fill="#FDFDFD" stroke="#323F4B"/>
<path d="M186.992 236.097C186.992 236.257 186.195 236.251 185.343 236.566C184.492 236.881 183.883 237.35 183.762 237.236C183.641 237.122 184.137 236.385 185.156 236.03C186.174 235.674 187.032 235.956 186.992 236.097Z" fill="#FDFDFD"/>
<path d="M84.8708 204.492L83.4255 204.616L84.5766 189.27L103.577 176.125L103.624 176.112L103.999 176.007C104.327 175.915 104.809 175.781 105.424 175.61C106.653 175.267 108.413 174.777 110.536 174.188C114.781 173.009 120.476 171.434 126.277 169.844C132.077 168.254 137.982 166.651 142.647 165.418C144.979 164.801 147 164.277 148.542 163.894C150.099 163.507 151.134 163.272 151.521 163.222C153.171 163.005 156.611 162.815 160.024 163.54C163.444 164.267 166.725 165.886 168.25 169.194C169.047 170.923 170.817 175.908 173.024 182.46C175.226 188.998 177.853 197.062 180.36 204.921C182.868 212.78 185.255 220.431 186.978 226.145C187.84 229.002 188.535 231.372 188.996 233.039C189.226 233.874 189.396 234.527 189.5 234.976C189.524 235.081 189.544 235.172 189.56 235.251L170.723 241.151L151.927 188.251L151.697 187.606L151.153 188.02L151.252 188.151C151.153 188.02 151.153 188.02 151.153 188.02L151.152 188.021L151.15 188.022L151.141 188.029L151.106 188.056L150.969 188.16C150.848 188.251 150.671 188.385 150.444 188.556C149.991 188.897 149.341 189.385 148.553 189.971C146.976 191.143 144.849 192.706 142.644 194.272C140.438 195.838 138.16 197.403 136.28 198.582C135.34 199.171 134.507 199.659 133.837 200.001C133.502 200.172 133.215 200.302 132.981 200.39C132.737 200.482 132.587 200.514 132.512 200.517C131.244 200.567 118.812 201.606 106.725 202.63C100.676 203.142 94.7044 203.651 90.2456 204.032C88.0161 204.222 86.1648 204.381 84.8708 204.492Z" fill="#FDFDFD" stroke="#323F4B"/>
<path d="M83.2115 120.696L83.379 120.877L83.828 121.453C84.3992 122.196 84.925 122.973 85.4028 123.779C87.1408 126.766 88.6766 129.867 89.9997 133.06C90.8709 135.07 91.7755 137.315 92.6802 139.761C93.1291 140.98 93.5982 142.24 94.0204 143.56L94.1745 144.056L94.2482 144.324L94.2818 144.458C94.2878 144.543 94.2614 144.627 94.208 144.693C93.9503 144.956 93.6571 145.181 93.3369 145.363C92.7338 145.752 92.1039 146.114 91.4606 146.469C86.3141 149.276 80.4774 152.071 74.2923 154.999L74.1382 155.073L74.0645 154.919L72.2216 151.092L67.5778 141.456C66.8362 139.902 66.1013 138.376 65.3731 136.879C65.0179 136.129 64.6628 135.385 64.3076 134.655C63.9357 133.935 63.6111 133.192 63.336 132.43C62.3259 129.523 62.4527 126.341 63.6911 123.524C64.8055 121.103 66.6907 119.118 69.052 117.882C70.991 116.858 73.1767 116.394 75.3645 116.541C77.0162 116.66 78.6198 117.15 80.0553 117.976C80.9418 118.512 81.7588 119.156 82.4878 119.892C82.7089 120.147 82.8898 120.348 83.0171 120.502C83.081 120.566 83.1393 120.636 83.1914 120.71C82.2577 119.686 81.1784 118.805 79.9882 118.096C78.5673 117.313 76.9904 116.856 75.3712 116.756C73.2218 116.639 71.0816 117.116 69.186 118.136C66.695 119.433 64.7598 121.591 63.7404 124.208C62.721 126.825 62.6868 129.723 63.6442 132.363C63.9182 133.111 64.2405 133.841 64.6092 134.547L65.6813 136.765L67.8927 141.349L72.5768 150.945C73.2067 152.285 73.8299 153.558 74.4196 154.778L74.1851 154.691C80.3635 151.769 86.2069 148.988 91.3533 146.201C91.99 145.846 92.6199 145.49 93.2096 145.115C93.4997 144.943 93.7676 144.736 94.007 144.499L93.9735 144.378L93.9132 144.137L93.759 143.641C93.3369 142.301 92.8745 141.068 92.4188 139.855C91.5209 137.422 90.6363 135.164 89.7853 133.154C88.4868 129.962 86.9918 126.853 85.3089 123.846C84.8427 123.036 84.335 122.251 83.7878 121.494C83.6136 121.246 83.4728 121.045 83.3656 120.904C83.3077 120.84 83.256 120.77 83.2115 120.696Z" fill="#323F4B"/>
<mask id="path-15-inside-1_145_9337" fill="white">
<path fill-rule="evenodd" clip-rule="evenodd" d="M91.9232 174.386C89.4036 173.133 76.4771 150.892 76.4771 150.892L92.3655 141.825L98.8254 158.517L126.915 159.233L141.813 158.417L151.08 160.213L157.48 164.234L157.011 165.071H155.671C155.671 165.071 155.597 166.217 154.907 166.365C154.437 166.465 151.957 165.474 150.344 164.83C149.585 164.527 149.018 164.301 148.943 164.301C148.708 164.301 147.288 163.808 147.288 163.808L151.315 168.201C151.315 168.201 150.933 169.809 149.023 169.192C147.113 168.576 143.173 165.681 143.173 165.681L140.921 165.299C140.921 165.299 135.484 167.485 132.578 168.206L132.579 168.221C132.579 168.221 132.458 168.244 132.23 168.288C132.045 168.329 131.874 168.362 131.719 168.387C126.051 169.477 94.2178 175.527 91.9232 174.386Z"/>
</mask>
<path fill-rule="evenodd" clip-rule="evenodd" d="M91.9232 174.386C89.4036 173.133 76.4771 150.892 76.4771 150.892L92.3655 141.825L98.8254 158.517L126.915 159.233L141.813 158.417L151.08 160.213L157.48 164.234L157.011 165.071H155.671C155.671 165.071 155.597 166.217 154.907 166.365C154.437 166.465 151.957 165.474 150.344 164.83C149.585 164.527 149.018 164.301 148.943 164.301C148.708 164.301 147.288 163.808 147.288 163.808L151.315 168.201C151.315 168.201 150.933 169.809 149.023 169.192C147.113 168.576 143.173 165.681 143.173 165.681L140.921 165.299C140.921 165.299 135.484 167.485 132.578 168.206L132.579 168.221C132.579 168.221 132.458 168.244 132.23 168.288C132.045 168.329 131.874 168.362 131.719 168.387C126.051 169.477 94.2178 175.527 91.9232 174.386Z" fill="#FDFDFD"/>
<path d="M76.4771 150.892L75.9815 150.023L75.106 150.523L75.6125 151.394L76.4771 150.892ZM91.9232 174.386L91.4779 175.281L91.9232 174.386ZM92.3655 141.825L93.2981 141.464L92.8788 140.381L91.8698 140.956L92.3655 141.825ZM98.8254 158.517L97.8928 158.878L98.1334 159.5L98.7999 159.517L98.8254 158.517ZM126.915 159.233L126.89 160.233L126.93 160.234L126.97 160.232L126.915 159.233ZM141.813 158.417L142.003 157.435L141.881 157.412L141.758 157.419L141.813 158.417ZM151.08 160.213L151.612 159.366L151.454 159.267L151.271 159.231L151.08 160.213ZM157.48 164.234L158.352 164.722L158.817 163.893L158.012 163.387L157.48 164.234ZM157.011 165.071V166.071H157.597L157.883 165.56L157.011 165.071ZM155.671 165.071V164.071H154.733L154.673 165.007L155.671 165.071ZM154.907 166.365L154.698 165.387H154.698L154.907 166.365ZM150.344 164.83L149.973 165.759V165.759L150.344 164.83ZM147.288 163.808L147.616 162.863L146.551 164.484L147.288 163.808ZM151.315 168.201L152.288 168.432L152.41 167.916L152.052 167.525L151.315 168.201ZM149.023 169.192L148.716 170.144L149.023 169.192ZM143.173 165.681L143.765 164.875L143.574 164.735L143.34 164.695L143.173 165.681ZM140.921 165.299L141.089 164.313L140.81 164.266L140.548 164.371L140.921 165.299ZM132.578 168.206L132.337 167.236L131.546 167.432L131.579 168.247L132.578 168.206ZM132.579 168.221L132.77 169.202L133.613 169.038L133.578 168.18L132.579 168.221ZM132.23 168.288L132.04 167.306L132.027 167.309L132.014 167.312L132.23 168.288ZM131.719 168.387L131.564 167.399L131.547 167.402L131.53 167.405L131.719 168.387ZM76.4771 150.892C75.6125 151.394 75.6126 151.394 75.6127 151.394C75.6128 151.395 75.613 151.395 75.6132 151.395C75.6136 151.396 75.6142 151.397 75.615 151.398C75.6166 151.401 75.619 151.405 75.6221 151.411C75.6285 151.421 75.6378 151.438 75.6502 151.459C75.6749 151.501 75.7115 151.564 75.7593 151.646C75.855 151.81 75.9954 152.05 76.175 152.356C76.5342 152.968 77.05 153.843 77.6767 154.897C78.9298 157.005 80.6278 159.83 82.4055 162.696C84.1817 165.559 86.0441 168.473 87.6247 170.755C88.4139 171.895 89.1427 172.891 89.7616 173.649C90.0705 174.027 90.3627 174.359 90.6295 174.625C90.8787 174.872 91.1703 175.128 91.4779 175.281L92.3685 173.49C92.3763 173.494 92.3491 173.481 92.2826 173.428C92.2197 173.377 92.1389 173.305 92.0396 173.206C91.8402 173.008 91.5963 172.734 91.3106 172.384C90.7403 171.686 90.0458 170.739 89.2689 169.617C87.7171 167.376 85.8755 164.495 84.1051 161.642C82.3362 158.79 80.6451 155.977 79.3958 153.875C78.7713 152.825 78.2575 151.953 77.8999 151.344C77.7211 151.039 77.5814 150.8 77.4865 150.637C77.439 150.556 77.4027 150.494 77.3784 150.452C77.3662 150.431 77.357 150.415 77.3508 150.405C77.3478 150.4 77.3455 150.396 77.3439 150.393C77.3432 150.392 77.3426 150.391 77.3422 150.39C77.342 150.39 77.3419 150.389 77.3418 150.389C77.3417 150.389 77.3417 150.389 76.4771 150.892ZM91.8698 140.956L75.9815 150.023L76.9727 151.76L92.8611 142.693L91.8698 140.956ZM99.758 158.157L93.2981 141.464L91.4329 142.186L97.8928 158.878L99.758 158.157ZM126.941 158.234L98.8508 157.518L98.7999 159.517L126.89 160.233L126.941 158.234ZM126.97 160.232L141.867 159.416L141.758 157.419L126.86 158.235L126.97 160.232ZM141.622 159.399L150.89 161.195L151.271 159.231L142.003 157.435L141.622 159.399ZM150.548 161.06L156.948 165.08L158.012 163.387L151.612 159.366L150.548 161.06ZM156.607 163.745L156.138 164.583L157.883 165.56L158.352 164.722L156.607 163.745ZM157.011 164.071H155.671V166.071H157.011V164.071ZM155.671 165.071C154.673 165.007 154.673 165.007 154.673 165.007C154.673 165.006 154.673 165.006 154.673 165.006C154.673 165.006 154.673 165.005 154.673 165.005C154.673 165.004 154.673 165.004 154.673 165.003C154.673 165.002 154.673 165.001 154.673 165.001C154.673 165 154.673 165 154.673 165C154.673 165.002 154.673 165.007 154.672 165.015C154.67 165.031 154.667 165.059 154.661 165.093C154.649 165.166 154.63 165.255 154.602 165.338C154.588 165.378 154.574 165.411 154.561 165.435C154.549 165.46 154.541 165.47 154.541 165.47C154.544 165.466 154.596 165.408 154.698 165.387L155.116 167.343C156.013 167.151 156.368 166.353 156.493 165.987C156.57 165.765 156.612 165.558 156.635 165.412C156.648 165.337 156.655 165.274 156.66 165.227C156.663 165.203 156.665 165.183 156.666 165.168C156.667 165.16 156.667 165.154 156.668 165.148C156.668 165.146 156.668 165.143 156.668 165.141C156.668 165.14 156.668 165.139 156.668 165.138C156.668 165.138 156.668 165.137 156.668 165.137C156.668 165.136 156.668 165.136 156.668 165.136C156.668 165.136 156.668 165.135 155.671 165.071ZM154.698 165.387C154.834 165.358 154.903 165.383 154.802 165.367C154.735 165.356 154.632 165.333 154.487 165.293C154.2 165.215 153.823 165.09 153.391 164.935C152.531 164.627 151.525 164.225 150.714 163.901L149.973 165.759C150.775 166.079 151.816 166.495 152.717 166.818C153.165 166.979 153.598 167.123 153.958 167.222C154.137 167.271 154.317 167.314 154.482 167.341C154.613 167.362 154.862 167.397 155.116 167.343L154.698 165.387ZM150.714 163.901C150.338 163.751 149.999 163.616 149.745 163.518C149.619 163.47 149.504 163.427 149.411 163.395C149.366 163.379 149.314 163.362 149.263 163.348C149.256 163.346 149.11 163.301 148.943 163.301V165.301C148.845 165.301 148.772 165.285 148.762 165.283C148.739 165.278 148.724 165.274 148.723 165.274C148.721 165.273 148.731 165.276 148.762 165.286C148.82 165.306 148.908 165.339 149.028 165.385C149.266 165.477 149.591 165.606 149.973 165.759L150.714 163.901ZM148.943 163.301C149.034 163.301 149.082 163.317 149.019 163.303C148.983 163.295 148.928 163.281 148.853 163.26C148.705 163.219 148.52 163.162 148.333 163.102C148.147 163.043 147.967 162.983 147.834 162.938C147.767 162.915 147.712 162.896 147.674 162.883C147.655 162.877 147.64 162.872 147.63 162.868C147.625 162.867 147.622 162.865 147.619 162.865C147.618 162.864 147.617 162.864 147.617 162.864C147.616 162.863 147.616 162.863 147.616 162.863C147.616 162.863 147.616 162.863 147.616 162.863C147.616 162.863 147.616 162.863 147.616 162.863C147.616 162.863 147.616 162.863 147.288 163.808C146.96 164.753 146.96 164.753 146.961 164.753C146.961 164.753 146.961 164.753 146.961 164.753C146.961 164.753 146.961 164.753 146.961 164.753C146.961 164.753 146.961 164.753 146.962 164.753C146.963 164.754 146.964 164.754 146.965 164.755C146.968 164.756 146.973 164.757 146.978 164.759C146.989 164.763 147.005 164.768 147.025 164.775C147.066 164.789 147.124 164.809 147.194 164.833C147.334 164.88 147.524 164.943 147.722 165.007C147.919 165.07 148.133 165.136 148.317 165.187C148.409 165.213 148.503 165.237 148.59 165.256C148.649 165.269 148.793 165.301 148.943 165.301V163.301ZM146.551 164.484L150.578 168.876L152.052 167.525L148.025 163.132L146.551 164.484ZM151.315 168.201C150.342 167.97 150.342 167.969 150.342 167.968C150.342 167.968 150.342 167.968 150.342 167.967C150.343 167.967 150.343 167.966 150.343 167.965C150.343 167.964 150.344 167.963 150.344 167.961C150.344 167.959 150.345 167.957 150.345 167.955C150.346 167.952 150.347 167.949 150.347 167.948C150.348 167.946 150.347 167.948 150.345 167.954C150.342 167.966 150.333 167.99 150.319 168.021C150.288 168.086 150.244 168.156 150.188 168.211C150.139 168.258 150.078 168.299 149.981 168.319C149.879 168.34 149.677 168.353 149.33 168.241L148.716 170.144C149.324 170.341 149.886 170.383 150.393 170.276C150.905 170.168 151.297 169.922 151.582 169.645C151.86 169.374 152.031 169.081 152.132 168.864C152.183 168.754 152.219 168.657 152.244 168.583C152.256 168.546 152.266 168.514 152.273 168.489C152.276 168.476 152.279 168.465 152.282 168.455C152.283 168.451 152.284 168.446 152.285 168.442C152.286 168.44 152.286 168.438 152.287 168.437C152.287 168.436 152.287 168.435 152.287 168.434C152.287 168.434 152.287 168.433 152.287 168.433C152.288 168.432 152.288 168.432 151.315 168.201ZM149.33 168.241C148.524 167.98 147.17 167.181 145.929 166.369C145.329 165.976 144.787 165.602 144.394 165.325C144.198 165.187 144.04 165.074 143.931 164.995C143.876 164.956 143.834 164.926 143.806 164.905C143.792 164.895 143.782 164.887 143.775 164.882C143.771 164.88 143.769 164.878 143.767 164.877C143.766 164.876 143.766 164.876 143.765 164.875C143.765 164.875 143.765 164.875 143.765 164.875C143.765 164.875 143.765 164.875 143.765 164.875C143.765 164.875 143.765 164.875 143.173 165.681C142.581 166.487 142.581 166.487 142.581 166.487C142.581 166.487 142.581 166.487 142.581 166.487C142.581 166.487 142.582 166.488 142.582 166.488C142.583 166.488 142.583 166.489 142.585 166.49C142.587 166.491 142.59 166.494 142.594 166.497C142.602 166.502 142.614 166.511 142.629 166.522C142.66 166.544 142.704 166.577 142.761 166.618C142.875 166.7 143.04 166.818 143.243 166.961C143.648 167.246 144.21 167.634 144.834 168.042C146.041 168.832 147.613 169.788 148.716 170.144L149.33 168.241ZM143.34 164.695L141.089 164.313L140.754 166.285L143.006 166.667L143.34 164.695ZM140.921 165.299C140.548 164.371 140.548 164.371 140.548 164.371C140.548 164.371 140.548 164.371 140.548 164.371C140.548 164.371 140.548 164.371 140.548 164.372C140.547 164.372 140.546 164.372 140.545 164.373C140.543 164.374 140.539 164.375 140.534 164.377C140.524 164.381 140.509 164.387 140.489 164.395C140.449 164.411 140.39 164.435 140.314 164.465C140.161 164.525 139.939 164.613 139.664 164.72C139.112 164.935 138.347 165.228 137.493 165.544C135.77 166.181 133.731 166.89 132.337 167.236L132.819 169.177C134.332 168.801 136.464 168.056 138.186 167.42C139.054 167.099 139.83 166.801 140.389 166.584C140.669 166.475 140.895 166.386 141.051 166.324C141.129 166.293 141.189 166.269 141.23 166.253C141.251 166.244 141.267 166.238 141.278 166.234C141.283 166.232 141.287 166.23 141.29 166.229C141.291 166.228 141.292 166.228 141.293 166.227C141.293 166.227 141.294 166.227 141.294 166.227C141.294 166.227 141.294 166.227 141.294 166.227C141.294 166.227 141.294 166.227 140.921 165.299ZM133.578 168.18L133.577 168.165L131.579 168.247L131.58 168.261L133.578 168.18ZM132.42 169.27C132.534 169.248 132.621 169.231 132.68 169.22C132.71 169.214 132.732 169.21 132.747 169.207C132.755 169.205 132.76 169.204 132.764 169.203C132.766 169.203 132.767 169.203 132.768 169.203C132.769 169.202 132.769 169.202 132.769 169.202C132.77 169.202 132.77 169.202 132.77 169.202C132.77 169.202 132.77 169.202 132.77 169.202C132.77 169.202 132.77 169.202 132.77 169.202L132.77 169.202C132.77 169.202 132.77 169.202 132.579 168.221C132.388 167.239 132.388 167.239 132.388 167.239C132.388 167.239 132.388 167.239 132.388 167.239C132.388 167.239 132.388 167.239 132.388 167.239C132.388 167.239 132.388 167.239 132.388 167.239C132.387 167.239 132.387 167.239 132.387 167.239C132.386 167.24 132.384 167.24 132.382 167.24C132.379 167.241 132.373 167.242 132.366 167.243C132.351 167.246 132.329 167.251 132.3 167.256C132.241 167.268 132.154 167.284 132.04 167.306L132.42 169.27ZM132.014 167.312C131.844 167.35 131.693 167.378 131.564 167.399L131.874 169.375C132.054 169.346 132.246 169.309 132.446 169.265L132.014 167.312ZM91.4779 175.281C91.8272 175.455 92.2775 175.499 92.6358 175.517C93.0452 175.538 93.5458 175.529 94.1124 175.499C95.2487 175.439 96.7298 175.288 98.436 175.075C101.853 174.649 106.241 173.963 110.722 173.209C119.687 171.701 129.072 169.914 131.908 169.369L131.53 167.405C128.698 167.949 119.332 169.733 110.39 171.237C105.917 171.989 101.563 172.67 98.1884 173.091C96.499 173.302 95.0725 173.445 94.0066 173.502C93.472 173.53 93.0479 173.535 92.7361 173.52C92.3733 173.501 92.306 173.459 92.3685 173.49L91.4779 175.281Z" fill="#323F4B" mask="url(#path-15-inside-1_145_9337)"/>
<path d="M138.737 280.425C147.09 280.425 153.862 273.653 153.862 265.3C153.862 256.947 147.09 250.176 138.737 250.176C130.384 250.176 123.613 256.947 123.613 265.3C123.613 273.653 130.384 280.425 138.737 280.425Z" fill="#0099FF" stroke="#323F4B"/>
<path d="M152.462 220.192H152.462L150.133 220.192C150.132 220.192 150.132 220.192 150.132 220.192H150.13V219.692C149.893 219.694 149.664 219.611 149.484 219.458C149.303 219.306 149.183 219.094 149.145 218.861L152.462 220.192ZM152.462 220.192C154.891 220.189 157.266 220.904 159.289 222.247C161.311 223.588 162.891 225.497 163.832 227.733C163.833 227.735 163.834 227.737 163.835 227.739L174.196 254.39C174.196 254.39 174.196 254.39 174.196 254.39C174.22 254.452 174.231 254.518 174.23 254.584C174.228 254.65 174.213 254.716 174.187 254.776C174.16 254.837 174.121 254.892 174.073 254.938L174.418 255.3L174.073 254.938C174.025 254.983 173.968 255.019 173.906 255.043L173.906 255.043L172.659 255.526L172.658 255.526C172.534 255.574 172.395 255.572 172.273 255.518C172.15 255.464 172.054 255.364 172.005 255.24L152.462 220.192Z" fill="#FDFDFD" stroke="#323F4B"/>
<path d="M138.123 213.959V191.005C138.123 189.248 137.425 187.563 136.183 186.321C134.941 185.079 133.256 184.381 131.5 184.381H124.752H124.752V183.881L138.123 213.959ZM138.123 213.959H74.0417V176.957H110.659L138.123 213.959Z" fill="#FDFDFD" stroke="#323F4B"/>
<path d="M51.3409 145.839L69.1823 144.826L71.8616 213.299L70.7013 213.235L70.6765 213.234L70.6517 213.235L59.8348 213.717L51.3409 145.839Z" fill="#FDFDFD" stroke="#323F4B"/>
<path d="M112.703 235.607C112.671 246.964 108.242 257.866 100.347 266.029C92.4519 274.191 81.703 278.98 70.3542 279.391C59.0055 279.802 47.9383 275.803 39.4734 268.233C31.0085 260.663 25.8033 250.109 24.9493 238.785C24.0953 227.461 27.6588 216.246 34.8926 207.492C42.1263 198.738 52.4685 193.124 63.7506 191.829C75.0326 190.533 86.3782 193.655 95.4083 200.542C104.438 207.428 110.452 217.543 112.187 228.766C112.535 231.03 112.707 233.317 112.703 235.607C112.703 235.83 112.792 236.043 112.949 236.2C113.106 236.357 113.319 236.445 113.541 236.445C113.763 236.445 113.976 236.357 114.133 236.2C114.29 236.043 114.379 235.83 114.379 235.607C114.373 223.751 109.776 212.357 101.551 203.816C93.3265 195.275 82.1138 190.252 70.2655 189.8C58.4172 189.347 46.8542 193.501 38.0024 201.39C29.1506 209.279 23.698 220.289 22.7887 232.111C21.8793 243.933 25.5838 255.648 33.1249 264.798C40.666 273.947 51.4577 279.821 63.2358 281.186C75.0139 282.551 86.863 279.302 96.297 272.12C105.731 264.937 112.017 254.38 113.836 242.664C114.191 240.328 114.372 237.97 114.379 235.607C114.379 235.385 114.29 235.172 114.133 235.015C113.976 234.858 113.763 234.77 113.541 234.77C113.319 234.77 113.106 234.858 112.949 235.015C112.792 235.172 112.703 235.385 112.703 235.607Z" fill="#323F4B"/>
<path d="M90.114 235.741L72.691 235.62H90.114H102.451L106.19 235.667H107.209C107.324 235.656 107.441 235.656 107.557 235.667H107.202H106.19H102.451L90.114 235.741Z" fill="#323F4B"/>
<path d="M89.5438 240.593L72.5766 236.572L89.5974 240.425L101.613 243.193L105.251 244.064L106.236 244.312C106.354 244.333 106.469 244.369 106.578 244.419C106.461 244.408 106.344 244.388 106.23 244.359L105.231 244.151L101.579 243.34L89.5438 240.593Z" fill="#323F4B"/>
<path d="M87.9158 245.123L72.2486 237.43L87.9895 245.002L99.0866 250.397L102.437 252.058L103.342 252.521C103.453 252.565 103.557 252.626 103.65 252.702L103.322 252.568L102.397 252.139L99.0464 250.531L87.9158 245.123Z" fill="#323F4B"/>
<path d="M85.3091 249.211L71.746 238.221L85.3895 249.103L95.0056 256.83L97.9072 259.195L98.6845 259.865C98.7779 259.939 98.8654 260.019 98.9459 260.107C98.8442 260.048 98.7477 259.981 98.6577 259.906L97.8469 259.282L94.9185 256.964L85.3091 249.211Z" fill="#323F4B"/>
<path d="M81.8649 252.608L71.0627 238.897L81.9587 252.528L89.6315 262.184L91.9367 265.132L92.5532 265.943C92.6278 266.036 92.695 266.135 92.7542 266.238C92.6661 266.156 92.5853 266.066 92.513 265.97L91.8429 265.186L89.4975 262.278L81.8649 252.608Z" fill="#323F4B"/>
<path d="M77.7432 255.168L70.2715 239.4L77.8706 255.107C79.9479 259.45 81.8376 263.383 83.2315 266.231L84.8196 269.615L85.2351 270.54C85.2894 270.648 85.3343 270.76 85.3691 270.875C85.3039 270.774 85.2457 270.669 85.1949 270.56C85.0877 270.352 84.9335 270.051 84.7392 269.655L83.0974 266.305L77.7432 255.168Z" fill="#323F4B"/>
<path d="M73.1667 256.736C71.0893 247.354 69.4476 239.876 69.4073 239.695L73.294 256.709C74.3528 261.4 75.3043 265.662 75.9745 268.771C76.3095 270.312 76.5776 271.566 76.7652 272.423L76.9662 273.422C76.9963 273.538 77.0165 273.657 77.0265 273.777C76.9778 273.668 76.9418 273.553 76.9193 273.435C76.8657 273.207 76.7853 272.872 76.6781 272.443C76.477 271.586 76.1889 270.339 75.8337 268.805L73.1667 256.736Z" fill="#323F4B"/>
<path d="M68.3422 257.251C68.4092 247.615 68.4562 239.983 68.4562 239.795C68.4562 239.983 68.4562 247.615 68.4562 257.251C68.4562 262.063 68.4562 266.425 68.4562 269.581C68.4562 271.163 68.4227 272.443 68.416 273.327C68.416 273.763 68.416 274.105 68.416 274.339C68.4247 274.457 68.4247 274.576 68.416 274.694C68.4002 274.577 68.4002 274.457 68.416 274.339C68.416 274.105 68.416 273.763 68.416 273.321C68.416 272.443 68.416 271.163 68.416 269.581C68.3154 266.425 68.3288 262.036 68.3422 257.251Z" fill="#323F4B"/>
<path d="M63.524 256.676C65.722 247.294 67.4643 239.869 67.5112 239.682C67.471 239.869 65.7823 247.308 63.658 256.709C62.5791 261.4 61.6075 265.648 60.8972 268.731C60.5286 270.266 60.227 271.505 60.0327 272.363C59.9188 272.792 59.8384 273.127 59.7781 273.355C59.7536 273.469 59.72 273.581 59.6776 273.69C59.6834 273.572 59.7013 273.455 59.7312 273.341C59.7781 273.114 59.8518 272.778 59.9389 272.343C60.1332 271.485 60.408 270.239 60.7497 268.697C61.4601 265.622 62.4384 261.366 63.524 256.676Z" fill="#323F4B"/>
<path d="M58.9602 255.054C63.1953 246.403 66.5459 239.554 66.6531 239.387L59.0808 255.114L53.7199 266.211C53.0498 267.625 52.4534 268.771 52.058 269.562L51.5957 270.467C51.5461 270.574 51.4878 270.677 51.4214 270.775C51.4558 270.661 51.5007 270.551 51.5554 270.446C51.6493 270.232 51.7967 269.924 51.9776 269.522L53.5859 266.171C54.9462 263.303 56.8493 259.356 58.9602 255.054Z" fill="#323F4B"/>
<path d="M54.8792 252.447L65.8758 238.884L54.9999 252.534L47.2802 262.157L44.9147 265.052L44.2446 265.829C44.1737 265.925 44.0928 266.012 44.0033 266.091C44.0033 266.091 44.0703 265.99 44.2044 265.802L44.8276 264.998L47.1462 262.063L54.8792 252.447Z" fill="#323F4B"/>
<path d="M51.4754 249.003L65.206 238.2L51.5826 249.11L41.9263 256.783L38.9778 259.088L38.1737 259.704C38.083 259.782 37.9842 259.849 37.8788 259.905C37.9587 259.82 38.0462 259.741 38.1402 259.671L38.9242 259.001L41.8325 256.649C44.2851 254.712 47.7027 251.985 51.4754 249.003Z" fill="#323F4B"/>
<path d="M48.9152 244.888C57.6267 240.76 64.5087 237.484 64.683 237.41L48.9755 245.016L37.8517 250.377L34.4676 251.971L33.5428 252.387L33.2145 252.521C33.3111 252.453 33.4144 252.394 33.5227 252.347L34.4274 251.884L37.778 250.243L48.9152 244.888Z" fill="#323F4B"/>
<path d="M47.3407 240.311L64.3816 236.572L47.3675 240.466L35.339 243.18L31.7003 243.944L30.7018 244.151L30.3533 244.205C30.4619 244.155 30.577 244.122 30.6951 244.104L31.6802 243.856L35.3256 243.012L47.3407 240.311Z" fill="#323F4B"/>
<path d="M46.8244 235.493L64.2808 235.594H46.8244H34.4943L30.7551 235.553H29.7365H29.3813C29.4995 235.542 29.6184 235.542 29.7365 235.553H30.7551H34.4943L46.8244 235.493Z" fill="#323F4B"/>
<path d="M47.3945 230.668L64.3886 234.648L47.361 230.802L35.3392 228.048L31.7005 227.19L30.7154 226.935C30.5982 226.914 30.4837 226.881 30.3737 226.835L30.7288 226.889L31.7206 227.096L35.3727 227.907L47.3945 230.668Z" fill="#323F4B"/>
<path d="M49.0225 226.105L64.6897 233.784C64.5222 233.71 57.6401 230.434 48.9621 226.225L37.8584 220.864L34.5078 219.203L33.6032 218.74C33.4958 218.691 33.3928 218.632 33.2949 218.566C33.4083 218.6 33.5182 218.645 33.6233 218.7L34.548 219.122L37.8986 220.73L49.0225 226.105Z" fill="#323F4B"/>
<path d="M51.6226 222.017L65.2057 232.994L51.5556 222.125L41.926 214.412L39.0312 212.046L38.2471 211.376C38.1537 211.303 38.0663 211.222 37.9858 211.135C38.0911 211.191 38.19 211.258 38.2806 211.336L39.0848 211.959L42.0198 214.271C44.4658 216.275 47.8699 219.002 51.6226 222.017Z" fill="#323F4B"/>
<path d="M55.0668 218.613L65.8757 232.317L54.9596 218.694L47.2801 209.044L44.9749 206.102L44.3584 205.291C44.2808 205.201 44.2134 205.102 44.1574 204.997C44.2424 205.079 44.323 205.167 44.3986 205.258C44.546 205.439 44.7605 205.707 45.0687 206.042L47.4208 208.957L55.0668 218.613Z" fill="#323F4B"/>
<path d="M59.1746 216.054C63.3159 224.765 66.586 231.647 66.6664 231.815L59.054 216.114L53.6931 204.997L52.0982 201.613C51.9173 201.211 51.7765 200.896 51.676 200.688C51.6214 200.581 51.5787 200.469 51.5487 200.353C51.6139 200.454 51.6721 200.559 51.7229 200.668L52.1853 201.572C52.574 202.363 53.1302 203.516 53.8271 204.923L59.1746 216.054Z" fill="#323F4B"/>
<path d="M63.7588 214.458L67.5315 231.499C67.4913 231.318 65.7826 223.88 63.6315 214.485C62.566 209.794 61.6212 205.532 60.9108 202.457L60.1134 198.798L59.9124 197.806C59.886 197.689 59.8681 197.57 59.8588 197.451C59.8991 197.563 59.9326 197.677 59.9593 197.793C60.0129 198.021 60.1 198.356 60.2072 198.778L61.0516 202.423C61.7485 205.526 62.7 209.768 63.7588 214.458Z" fill="#323F4B"/>
<path d="M68.5561 213.963C68.5025 223.599 68.4623 231.232 68.4556 231.386C68.4556 231.205 68.4556 223.572 68.4221 213.963C68.4221 209.145 68.4221 204.789 68.4221 201.626C68.4221 200.051 68.4221 198.771 68.4623 197.887C68.4623 197.445 68.4623 197.103 68.4623 196.875C68.4465 196.757 68.4465 196.638 68.4623 196.52C68.471 196.638 68.471 196.757 68.4623 196.875C68.4623 197.103 68.4623 197.445 68.4623 197.887C68.4623 198.771 68.4623 200.051 68.4623 201.626C68.5963 204.789 68.5896 209.145 68.5561 213.963Z" fill="#323F4B"/>
<path d="M73.3947 214.525C71.2035 223.907 69.4679 231.339 69.4277 231.52C69.4679 231.339 71.1432 223.894 73.2607 214.499C74.3396 209.808 75.3113 205.553 76.0149 202.47C76.3767 200.936 76.685 199.696 76.8793 198.831C76.9866 198.403 77.0737 198.074 77.1273 197.846C77.1498 197.729 77.1858 197.614 77.2345 197.505C77.2245 197.625 77.2043 197.743 77.1742 197.86L76.9731 198.852C76.7788 199.716 76.5041 200.962 76.1623 202.504C75.452 205.586 74.4803 209.835 73.3947 214.525Z" fill="#323F4B"/>
<path d="M77.9379 216.154C73.7028 224.805 70.3455 231.66 70.2584 231.821L77.8173 216.093L83.1782 204.989L84.8401 201.639L85.3024 200.734C85.3499 200.626 85.4083 200.523 85.4767 200.426C85.4395 200.538 85.3947 200.648 85.3426 200.754C85.2488 200.969 85.1014 201.277 84.9205 201.679L83.3122 205.03L77.9379 216.154Z" fill="#323F4B"/>
<path d="M82.0526 218.754L71.0828 232.331L81.9587 218.667C84.9675 214.908 87.6949 211.504 89.6717 209.044L92.0305 206.143L92.7006 205.359C92.7731 205.267 92.8515 205.179 92.9352 205.097C92.8792 205.203 92.8117 205.302 92.7341 205.392L92.1176 206.196L89.799 209.131L82.0526 218.754Z" fill="#323F4B"/>
<path d="M85.4566 222.191L71.7595 233.007L85.3762 222.091L95.0258 214.405L97.9676 212.1L98.7785 211.483C98.8662 211.405 98.963 211.337 99.0666 211.282C98.9867 211.368 98.8993 211.446 98.8053 211.517L98.0212 212.187L95.1129 214.539L85.4566 222.191Z" fill="#323F4B"/>
<path d="M87.9897 226.306L72.2353 233.805L87.9897 226.186L99.1001 220.825L102.451 219.237L103.375 218.814C103.483 218.76 103.595 218.715 103.711 218.68L103.402 218.855L102.491 219.317L99.1403 220.966L87.9897 226.306Z" fill="#323F4B"/>
<path d="M89.5974 230.883L72.5766 234.662L89.5907 230.756L101.619 228.028L105.271 227.237L106.27 227.03L106.618 226.976C106.509 227.023 106.394 227.057 106.277 227.077L105.291 227.325L101.653 228.176L89.5974 230.883Z" fill="#323F4B"/>
<path d="M68.4689 277.047C60.2729 277.047 52.261 274.616 45.4463 270.063C38.6315 265.509 33.3201 259.037 30.1836 251.465C27.0471 243.893 26.2265 235.561 27.8254 227.523C29.4244 219.484 33.3712 212.1 39.1666 206.305C44.9621 200.509 52.3459 196.562 60.3844 194.964C68.423 193.365 76.7551 194.185 84.3272 197.322C91.8994 200.458 98.3714 205.77 102.925 212.584C107.478 219.399 109.909 227.411 109.909 235.607C109.896 246.594 105.526 257.127 97.7576 264.896C89.9888 272.664 79.4556 277.034 68.4689 277.047ZM68.4689 197.518C60.9356 197.518 53.5715 199.752 47.3077 203.937C41.044 208.122 36.162 214.071 33.2791 221.031C30.3962 227.991 29.6419 235.649 31.1116 243.038C32.5813 250.426 36.209 257.213 41.5358 262.54C46.8627 267.867 53.6495 271.495 61.0381 272.964C68.4267 274.434 76.0852 273.68 83.045 270.797C90.0049 267.914 95.9536 263.032 100.139 256.768C104.324 250.504 106.558 243.14 106.558 235.607C106.546 225.509 102.529 215.828 95.3884 208.688C88.2479 201.547 78.567 197.53 68.4689 197.518Z" fill="#0099FF" stroke="#323F4B"/>
<path d="M73.0935 235.607C73.0935 236.521 72.8223 237.415 72.3143 238.176C71.8062 238.936 71.0841 239.529 70.2392 239.879C69.3943 240.229 68.4646 240.32 67.5677 240.142C66.6707 239.963 65.8469 239.523 65.2002 238.876C64.5536 238.23 64.1132 237.406 63.9348 236.509C63.7564 235.612 63.8479 234.682 64.1979 233.837C64.5479 232.993 65.1405 232.27 65.9009 231.762C66.6613 231.254 67.5552 230.983 68.4697 230.983C69.696 230.983 70.8721 231.47 71.7392 232.337C72.6063 233.205 73.0935 234.381 73.0935 235.607Z" fill="#323F4B"/>
<path d="M147.431 264.945C147.431 269.746 143.539 273.639 138.737 273.639C133.936 273.639 130.043 269.746 130.043 264.945C130.043 260.143 133.936 256.251 138.737 256.251C143.539 256.251 147.431 260.143 147.431 264.945Z" fill="#FDFDFD" stroke="#323F4B"/>
<path d="M143.099 247.83H150.692C150.692 247.83 151.469 251.938 150.692 253.023C150.089 253.868 143.682 262.626 140.855 266.479C140.489 266.974 139.954 267.316 139.351 267.44C138.749 267.563 138.122 267.46 137.591 267.149C137.026 266.826 136.611 266.294 136.433 265.668C136.255 265.042 136.329 264.371 136.639 263.799L143.274 251.315L143.099 247.83Z" fill="#323F4B"/>
<path d="M75.0701 174.875H135.166C135.715 174.875 136.242 175.093 136.63 175.481C137.018 175.87 137.236 176.396 137.236 176.946V177.193C137.236 177.743 137.018 178.269 136.63 178.658C136.242 179.046 135.715 179.264 135.166 179.264H73.5154V176.396C73.5154 176.193 73.5558 175.993 73.6343 175.806C73.7129 175.619 73.8279 175.45 73.9727 175.308C74.1176 175.167 74.2892 175.055 74.4777 174.981C74.6661 174.906 74.8675 174.87 75.0701 174.875Z" fill="#323F4B"/>
<path d="M195.368 252.467H170.681V259.027H195.368V252.467Z" fill="#323F4B"/>
<path d="M74.8943 154.008C74.7381 154.082 74.6009 154.146 74.4846 154.201L74.4246 154.074C74.2481 153.7 73.9916 153.158 73.6715 152.482C73.0312 151.131 72.1366 149.248 71.119 147.119C69.0842 142.86 66.5563 137.615 64.5874 133.674L64.5872 133.674C64.1088 132.718 63.7628 131.702 63.5589 130.653C62.477 125.001 65.4386 120.408 69.6122 118.314C73.7797 116.222 79.1164 116.64 82.8213 121.009L82.9606 121.193L82.9659 121.2L82.9715 121.207C85.3209 124.087 87.9585 129.669 90.0419 134.713C91.0789 137.224 91.9711 139.582 92.6133 141.374C92.9344 142.27 93.1924 143.023 93.3745 143.581C93.4656 143.861 93.5369 144.089 93.5875 144.261C93.6024 144.312 93.6153 144.357 93.6261 144.397C93.5145 144.496 93.332 144.631 93.0744 144.801C92.5578 145.141 91.8008 145.582 90.8739 146.09C89.0237 147.105 86.5371 148.367 84.0396 149.601C81.5434 150.835 79.0418 152.038 77.1639 152.932C76.225 153.38 75.4423 153.75 74.8943 154.008Z" fill="#0099FF" stroke="#323F4B"/>
<path d="M302.035 83.8172C302.035 83.8172 303.629 83.7283 305.365 87.4207C307.102 91.1131 308.625 96.1094 309.165 97.4132C309.704 98.7171 312.857 107.187 313.183 107.838L313.509 108.49C313.509 108.49 310.142 107.512 306.989 108.384C303.842 109.255 300.583 110.233 300.257 110.34C299.931 110.446 301.886 103.933 301.886 101.106C301.886 98.2786 299.065 93.5016 299.498 90.1352C299.931 86.7687 302.035 83.8113 302.035 83.8113V83.8172Z" fill="#0099FF" stroke="#323F4B" stroke-miterlimit="10" stroke-linejoin="round"/>
<path d="M292.979 198.08L297.015 246.679L300.269 246.567L295.397 197.843L292.979 198.08Z" fill="#FDFDFD" stroke="#323F4B" stroke-miterlimit="10" stroke-linejoin="round"/>
<path d="M291.242 191.21L291.894 195.638L289.28 195.709L289.517 197.481L292.001 197.599L292.119 198.838L297.027 198.66C297.027 198.66 298.093 197.89 298.153 196.77C298.212 195.644 297.264 195.175 297.264 195.175V191.098L296.315 191.275L296.375 194.885L292.943 194.589L292.587 191.098L291.236 191.216L291.242 191.21Z" fill="#323F4B" stroke="#323F4B" stroke-miterlimit="10" stroke-linejoin="round"/>
<path d="M281.09 167.397C281.09 167.397 283.822 183.014 284.865 186.914C285.908 190.819 289.031 192.378 290.851 192.9C292.67 193.421 295.924 193.552 298.526 191.857C301.128 190.162 302.562 185.74 303.208 180.276C303.854 174.811 303.208 163.361 303.208 163.361L281.084 167.397H281.09Z" fill="#323F4B" stroke="#323F4B" stroke-miterlimit="10" stroke-linejoin="round"/>
<path d="M301.306 248.51C301.306 249.974 300.121 251.166 298.651 251.166C297.181 251.166 295.996 249.98 295.996 248.51C295.996 247.041 297.181 245.855 298.651 245.855C300.121 245.855 301.306 247.041 301.306 248.51Z" fill="#FDFDFD" stroke="#323F4B" stroke-miterlimit="10" stroke-linejoin="round"/>
<path d="M296.007 252.582L297.934 259.363L301.069 259.12L302.278 252.179C302.402 251.48 301.833 250.846 301.122 250.899L296.991 251.19C296.298 251.237 295.824 251.913 296.013 252.582H296.007Z" fill="#323F4B" stroke="#323F4B" stroke-miterlimit="10" stroke-linejoin="round"/>
<path d="M277.207 74.3578C277.207 74.3578 263.73 74.2215 260.95 76.4441C258.171 78.6666 260.95 89.3644 262.479 94.7815C264.008 100.199 265.816 107.423 263.451 115.62C261.092 123.817 258.171 131.32 256.92 135.487C255.669 139.653 255.806 144.798 253.862 150.766C251.918 156.74 252.635 194.18 252.042 198.05C251.45 201.914 243.117 212.327 241.931 223.333C240.74 234.34 241.931 258.432 241.931 260.216C241.931 262 237.765 273.302 238.956 275.981C240.147 278.66 245.499 281.635 248.771 281.635C252.042 281.635 258.289 281.043 257.993 278.364C257.696 275.685 253.234 269.142 252.339 265.87C251.444 262.598 250.258 260.216 250.851 255.759C251.444 251.296 254.715 230.772 259.474 217.389C264.234 204.006 268.098 193 270.777 186.155C273.456 179.315 278.215 164.741 278.215 164.741L280.894 168.908C280.894 168.908 288.332 169.204 294.277 168.315C300.227 167.42 303.5 165 303.5 165C303.5 165 302.011 153.445 302.011 151.661C302.011 149.877 300.523 136.791 299.931 134.408C299.338 132.031 299.634 134.112 299.338 132.031C299.042 129.951 297.85 121.618 297.85 121.618C297.85 121.618 299.202 115.104 299.866 111.945C300.529 108.787 302.195 107.619 302.859 103.126C303.522 98.6339 301.525 94.9771 301.525 91.6463C301.525 88.3154 302.355 84.4926 302.023 83.8288C301.691 83.165 295.201 81.0018 289.879 78.1747C284.557 75.3476 277.201 74.3697 277.201 74.3697L277.207 74.3578Z" fill="#323F4B" stroke="#323F4B" stroke-miterlimit="10" stroke-linejoin="round"/>
<path d="M302.035 83.817C301.703 83.1532 295.213 80.9899 289.891 78.1628C284.568 75.3357 277.213 74.3578 277.213 74.3578C277.213 74.3578 263.736 74.2215 260.956 76.4441C258.176 78.6666 260.956 89.3644 262.485 94.7815C264.014 100.199 265.822 107.423 263.457 115.62C261.958 120.824 260.233 125.749 258.858 129.72C263.167 128.955 269.366 128.434 277.344 129.222C288.948 130.366 296.398 132.802 299.889 134.195C299.368 132.162 299.634 134.035 299.35 132.02C299.053 129.939 297.862 121.606 297.862 121.606C297.862 121.606 299.213 115.093 299.877 111.934C300.541 108.775 302.207 107.607 302.87 103.115C303.534 98.6221 301.537 94.9653 301.537 91.6344C301.537 88.3036 302.367 84.4808 302.035 83.817Z" fill="#0099FF" stroke="#323F4B" stroke-miterlimit="10" stroke-linejoin="round"/>
<path d="M261.336 122.679C261.336 122.679 266.29 120.699 271.447 120.302C276.603 119.905 280.959 119.71 280.959 119.71L264.311 110.985L261.336 122.679Z" fill="#323F4B" stroke="#323F4B" stroke-miterlimit="10" stroke-linejoin="round"/>
<path d="M292.256 123.669L298.799 129.222L297.856 121.606L292.256 123.669Z" fill="#323F4B" stroke="#323F4B" stroke-miterlimit="10" stroke-linejoin="round"/>
<path d="M273.201 66.6233C273.201 66.6233 274.712 70.6061 274.292 72.6864C273.877 74.7726 271.376 76.438 275.957 81.4403C280.544 86.4425 288.231 87.8827 290.566 83.7576C292.902 79.6326 287.763 74.4941 287.348 71.5722C286.933 68.6562 288.338 61.6863 288.338 61.6863C288.338 61.6863 279.051 68.0516 273.195 66.6174L273.201 66.6233Z" fill="#FDFDFD" stroke="#323F4B" stroke-miterlimit="10" stroke-linejoin="round"/>
<path d="M296.203 59.5824C295.266 54.4202 296.671 51.3679 294.324 44.321C291.977 37.28 284.231 34.5833 279.187 35.0515C274.137 35.5197 276.372 38.4535 276.372 38.4535C276.372 38.4535 270.605 35.3656 265.431 37.2503C260.257 39.1291 260.411 42.8926 261.353 46.502C262.296 50.1055 248.966 44.3091 244.421 49.9514C240.029 55.4041 243.549 59.5884 244.207 61.7516C244.225 61.8228 244.249 61.8998 244.266 61.9709C243.146 62.7888 240.479 64.4246 236.988 64.4246C232.336 64.4246 228.554 61.805 223.902 69.3676C219.249 76.9301 227.683 80.1306 222.159 82.7443C216.636 85.364 213.435 82.1635 211.687 87.6873C209.944 93.211 213.429 96.7019 213.429 96.7019C213.429 96.7019 215.468 90.8877 218.082 90.8877C220.696 90.8877 222.734 94.9594 232.039 97.2887C238.737 98.9659 241.297 98.2132 244.349 96.6841C245.138 96.287 245.961 95.9611 246.779 95.6232C255.533 92.002 251.45 81.796 254.004 78.1155C256.962 73.8601 260.121 75.3062 265.33 76.4856C271.476 77.8784 273.782 76.7227 274.718 74.1386C275.655 71.5546 274.25 68.1526 273.195 66.6294C272.14 65.1062 266.859 51.3679 270.261 47.0295C273.663 42.6852 278.126 41.9799 281.06 43.2719C283.994 44.564 285.523 55.7123 286.578 58.4149C287.633 61.1116 288.688 62.5221 288.457 64.4009C288.225 66.2797 284.936 66.6294 285.167 71.679C285.398 76.7286 288.219 80.2491 291.153 80.7174C294.087 81.1856 293.619 84.1193 290.566 83.7697C287.514 83.42 288.569 85.8796 290.566 86.9405C292.564 87.9955 296.404 87.3198 297.933 84.6172C299.457 81.9205 296.286 83.1592 296.991 80.6937C297.696 78.2281 301.193 80.7292 301.549 75.3299C301.898 69.9306 297.145 64.7565 296.203 59.5884V59.5824Z" fill="#323F4B" stroke="#323F4B" stroke-miterlimit="10" stroke-linejoin="round"/>
<path d="M276.959 40.3321C276.959 40.3321 271.091 41.6242 269.799 44.9076C268.507 48.197 267.802 55.4691 268.863 59.8135C269.918 64.1578 272.851 68.028 276.959 68.028C281.066 68.028 285.173 65.2128 286.465 64.1519C287.757 63.0969 288.344 61.6863 288.344 61.6863C288.344 61.6863 290.454 62.6228 291.159 61.5678C291.864 60.5128 291.983 58.634 290.81 58.0473C289.636 57.4605 289.049 57.2235 289.049 57.2235C289.049 57.2235 288.113 53.1162 286.584 47.8354C285.055 42.5547 279.774 39.3838 276.959 40.3262V40.3321Z" fill="#FDFDFD" stroke="#323F4B" stroke-miterlimit="10" stroke-linejoin="round"/>
<path d="M264.524 113.267C264.524 113.267 265.502 117.505 270.279 118.916C275.056 120.326 286.026 123.479 294.063 124.344C302.1 125.216 310.356 124.018 311.986 123.041C313.616 122.063 315.245 117.612 315.245 115.33C315.245 113.048 313.835 109.249 313.183 107.838C312.531 106.428 310.362 105.017 306.989 105.663C303.623 106.315 301.561 108.378 301.235 109.462C300.909 110.547 299.7 111.454 299.871 111.922C300.043 112.39 291.242 115.217 282.014 114.998C272.78 114.779 264.53 113.261 264.53 113.261L264.524 113.267Z" fill="#FDFDFD" stroke="#323F4B" stroke-miterlimit="10" stroke-linejoin="round"/>
<path d="M263.315 82.6436C264.447 83.6156 265.502 86.5257 266.474 90.7396C267.446 94.9476 268.578 101.663 268.578 101.663C268.578 101.663 283.069 106.772 290.388 108.099C297.708 109.433 295.545 109.931 304.032 110.262C312.519 110.594 313.681 110.594 314.51 111.43C315.34 112.266 316.84 114.589 316.84 115.757C316.84 116.924 317.669 118.252 317.005 120.415C316.342 122.578 315.008 120.581 314.676 120.083C314.344 119.585 313.011 117.754 311.849 117.422L310.687 117.09C310.687 117.09 311.879 119.147 312.608 120.119C313.337 121.091 314.386 124.167 313.74 124.327C313.094 124.487 310.824 120.925 310.581 120.605C310.338 120.279 307.908 119.313 307.102 119.147C306.29 118.987 304.595 119.064 302.165 118.418C299.735 117.772 297.068 116.071 297.068 116.071C297.068 116.071 287.597 117.286 277.966 116.883C268.335 116.48 262.183 113.404 261.454 113.238C260.725 113.072 258.538 113.078 257.329 111.294C256.114 109.516 253.364 101.906 253.204 100.371C253.204 100.371 252.558 93.0866 252.961 89.6846C253.364 86.2827 252.392 80.3796 254.016 78.1096C255.634 75.8456 257.821 74.1446 261.14 74.7077C264.459 75.2766 266.32 77.2147 266.32 77.2147" fill="#0099FF"/>
<path d="M263.315 82.6436C264.447 83.6156 265.502 86.5257 266.474 90.7396C267.446 94.9476 268.578 101.663 268.578 101.663C268.578 101.663 283.069 106.772 290.388 108.099C297.708 109.433 295.545 109.931 304.032 110.262C312.519 110.594 313.681 110.594 314.51 111.43C315.34 112.266 316.839 114.589 316.839 115.757C316.839 116.924 317.669 118.252 317.005 120.415C316.342 122.578 315.008 120.581 314.676 120.083C314.344 119.585 313.011 117.754 311.849 117.422L310.687 117.09C310.687 117.09 311.879 119.147 312.608 120.119C313.337 121.091 314.386 124.167 313.74 124.327C313.094 124.487 310.824 120.925 310.581 120.605C310.338 120.279 307.908 119.313 307.102 119.147C306.29 118.987 304.595 119.064 302.165 118.418C299.735 117.772 297.068 116.071 297.068 116.071C297.068 116.071 287.597 117.286 277.966 116.883C268.335 116.48 262.183 113.404 261.454 113.238C260.725 113.072 258.538 113.078 257.329 111.294C256.114 109.516 253.364 101.906 253.204 100.371C253.204 100.371 252.558 93.0866 252.961 89.6846C253.364 86.2827 252.392 80.3796 254.016 78.1096C255.634 75.8456 257.821 74.1446 261.14 74.7077C264.459 75.2766 266.32 77.2147 266.32 77.2147" stroke="#323F4B" stroke-miterlimit="10" stroke-linejoin="round"/>
<path d="M314.51 111.43C313.681 110.6 312.513 110.6 304.032 110.269C295.545 109.937 297.708 109.439 290.388 108.105C283.069 106.772 268.578 101.669 268.578 101.669C268.578 101.669 268.032 98.4505 267.381 95.0722C265.573 93.9876 263.285 93.0808 260.814 93.2527C256.131 93.5846 253.761 96.9747 253.044 98.2194C253.127 99.4995 253.204 100.377 253.204 100.377C253.364 101.912 256.12 109.522 257.329 111.3C258.544 113.078 260.731 113.078 261.454 113.244C262.177 113.41 268.335 116.48 277.966 116.889C287.597 117.292 297.068 116.077 297.068 116.077C297.068 116.077 299.741 117.778 302.165 118.424C304.595 119.07 306.29 118.993 307.102 119.153C307.914 119.313 310.338 120.285 310.581 120.611C310.824 120.937 313.088 124.493 313.74 124.333C314.386 124.173 313.337 121.097 312.608 120.125C311.879 119.153 310.688 117.096 310.688 117.096L311.849 117.428C313.011 117.76 314.344 119.591 314.676 120.089C315.008 120.587 316.342 122.584 317.006 120.421C317.669 118.258 316.84 116.93 316.84 115.763C316.84 114.595 315.34 112.272 314.51 111.436V111.43Z" fill="#FDFDFD" stroke="#323F4B" stroke-miterlimit="10" stroke-linejoin="round"/>
<path d="M310.581 114.05C310.581 114.05 312.928 114.453 314.386 115.828C315.844 117.203 317.136 119.467 317.136 119.467" stroke="#323F4B" stroke-miterlimit="10" stroke-linejoin="round"/>
<path d="M311.796 112.106C311.796 112.106 313.657 112.592 314.226 113.161C314.795 113.73 316.845 115.757 316.845 115.757" stroke="#323F4B" stroke-miterlimit="10" stroke-linejoin="round"/>
<path d="M270.013 102.024C270.013 102.024 269.349 99.1497 267.914 97.6028C266.48 96.0559 263.161 94.0645 263.493 95.5047C263.825 96.9449 264.821 98.4918 265.372 99.043C265.923 99.5942 267.914 101.586 270.018 102.03L270.013 102.024Z" fill="#FDFDFD" stroke="#323F4B" stroke-miterlimit="10" stroke-linejoin="round"/>
<path d="M252.884 159.449C252.19 172.6 252.505 195.099 252.048 198.05C251.456 201.914 243.122 212.328 241.937 223.334C240.746 234.34 241.937 258.432 241.937 260.216C241.937 262 237.771 273.302 238.962 275.981C240.153 278.66 245.505 281.636 248.777 281.636C252.048 281.636 258.295 281.043 257.999 278.364C257.702 275.685 253.24 269.142 252.345 265.87C251.45 262.599 250.264 260.216 250.857 255.759C251.45 251.296 254.721 230.772 259.48 217.389C264.24 204.007 268.104 193 270.783 186.155C273.462 179.316 278.221 164.742 278.221 164.742C278.221 164.742 274.22 160.901 264.992 158.649C259.22 157.238 255.136 158.394 252.884 159.455V159.449Z" fill="#FDFDFD" stroke="#323F4B" stroke-miterlimit="10" stroke-linejoin="round"/>
<path d="M294.069 205.381C294.069 207.414 292.884 209.062 291.414 209.062C289.944 209.062 288.759 207.414 288.759 205.381C288.759 203.349 289.944 201.701 291.414 201.701C292.884 201.701 294.069 203.349 294.069 205.381Z" fill="#0099FF" stroke="#323F4B" stroke-miterlimit="10" stroke-linejoin="round"/>
<path d="M297.934 200.379C297.934 200.379 295.765 201.102 295.403 202.429C295.042 203.757 296.126 205.689 294.562 208.338C292.991 210.994 290.703 210.994 290.46 213.044C290.217 215.095 291.302 229.811 292.268 231.619C293.234 233.427 299.143 232.828 300.471 231.862C301.798 230.896 302.403 216.903 301.917 210.028C301.437 203.153 299.748 200.017 297.934 200.379Z" fill="#0099FF" stroke="#323F4B" stroke-miterlimit="10" stroke-linejoin="round"/>
<path d="M296.127 209.014C297.768 205.861 296.755 202.329 296.755 202.329L296.862 200.871C296.257 201.221 295.581 201.742 295.398 202.43C295.036 203.757 296.121 205.69 294.556 208.339C292.991 210.988 290.698 210.994 290.455 213.045C290.212 215.095 291.296 229.812 292.262 231.619C292.517 232.099 293.134 232.408 293.91 232.585C293.768 232.301 293.525 231.809 293.098 230.961C292.09 228.94 291.587 213.803 291.587 213.803C291.587 213.803 294.491 212.162 296.127 209.009V209.014Z" fill="#FDFDFD" stroke="#323F4B" stroke-miterlimit="10" stroke-linejoin="round"/>
<path d="M248.777 281.629C252.048 281.629 258.295 281.037 257.999 278.358C257.702 275.679 253.239 269.136 252.345 265.864C252.196 265.325 252.042 264.809 251.888 264.311C250.732 263.879 249.257 263.594 247.514 263.825C243.608 264.347 243.739 268.377 241.789 268.638C240.912 268.756 240.295 268.502 239.886 268.193C239.045 271.441 238.387 274.701 238.956 275.981C240.147 278.66 245.499 281.635 248.771 281.635L248.777 281.629Z" fill="#0099FF" stroke="#323F4B" stroke-miterlimit="10" stroke-linejoin="round"/>
<path d="M246.613 278.903C243.359 278.281 240.331 275.033 238.843 273.19C238.695 274.405 238.695 275.394 238.956 275.981C240.147 278.66 245.499 281.635 248.771 281.635C252.042 281.635 258.289 281.043 257.993 278.364C257.993 278.364 251.195 279.78 246.613 278.909V278.903Z" fill="#323F4B" stroke="#323F4B" stroke-miterlimit="10" stroke-linejoin="round"/>
<path d="M304.927 258.639C304.927 258.639 294.674 257.798 294.312 258.882C293.951 259.967 292.504 269.254 292.623 270.345C292.742 271.429 292.504 271.791 295.883 272.514C299.261 273.237 305.294 273.48 305.294 273.48C305.294 273.48 314.943 275.051 318.565 274.926C322.186 274.808 324.717 273.48 323.875 271.305C323.033 269.136 322.429 270.096 318.565 267.927C314.706 265.757 311.689 263.464 309.277 261.413C306.865 259.362 304.933 258.639 304.933 258.639H304.927Z" fill="#0099FF" stroke="#323F4B" stroke-miterlimit="10" stroke-linejoin="round"/>
<path d="M304.927 258.639C304.927 258.639 294.674 257.798 294.312 258.882C294.188 259.262 293.927 260.654 293.648 262.344C294.851 263.813 297.104 265.674 300.345 264.673C303.848 263.588 305.68 261.117 306.675 259.54C305.614 258.9 304.927 258.645 304.927 258.645V258.639Z" fill="#FDFDFD" stroke="#323F4B" stroke-miterlimit="10" stroke-linejoin="round"/>
<path d="M323.863 271.305C323.774 271.08 323.691 270.896 323.608 270.736C322.743 271.311 321.386 271.998 319.3 272.573C314.736 273.842 309.912 271.702 303.149 270.825C298.562 270.232 294.68 269.74 292.653 269.485C292.617 269.888 292.605 270.191 292.623 270.339C292.742 271.423 292.505 271.785 295.883 272.508C299.261 273.231 305.295 273.474 305.295 273.474C305.295 273.474 314.943 275.045 318.565 274.92C322.186 274.802 324.717 273.474 323.875 271.299L323.863 271.305Z" fill="#323F4B" stroke="#323F4B" stroke-miterlimit="10" stroke-linejoin="round"/>
</g>
<defs>
<clipPath id="clip0_145_9337">
<path d="M0 0H360V280C360 291.046 351.046 300 340 300H20C8.95431 300 0 291.046 0 280V0Z" fill="white"/>
</clipPath>
</defs>
</svg>
