<svg width="21" height="22" viewBox="0 0 21 22" fill="none" xmlns="http://www.w3.org/2000/svg">
<path d="M6.93715 3.3103H6.74965C6.85278 3.3103 6.93715 3.22593 6.93715 3.1228V3.3103H14.0622V3.1228C14.0622 3.22593 14.1465 3.3103 14.2497 3.3103H14.0622V4.9978H15.7497V3.1228C15.7497 2.29546 15.077 1.6228 14.2497 1.6228H6.74965C5.92231 1.6228 5.24965 2.29546 5.24965 3.1228V4.9978H6.93715V3.3103ZM18.7497 4.9978H2.24965C1.83481 4.9978 1.49965 5.33296 1.49965 5.7478V6.4978C1.49965 6.60093 1.58402 6.6853 1.68715 6.6853H3.10277L3.68168 18.9431C3.71918 19.7423 4.38012 20.3728 5.17934 20.3728H15.82C16.6215 20.3728 17.2801 19.7447 17.3176 18.9431L17.8965 6.6853H19.3122C19.4153 6.6853 19.4997 6.60093 19.4997 6.4978V5.7478C19.4997 5.33296 19.1645 4.9978 18.7497 4.9978ZM15.6395 18.6853H5.35981L4.79262 6.6853H16.2067L15.6395 18.6853Z" fill="#AA8066"/>
</svg>
