<svg width="24" height="24" viewBox="0 0 24 24" fill="none" xmlns="http://www.w3.org/2000/svg">
<path d="M11.831 15.9861C11.8511 16.0117 11.8767 16.0324 11.9059 16.0466C11.9352 16.0609 11.9673 16.0683 11.9998 16.0683C12.0323 16.0683 12.0644 16.0609 12.0937 16.0466C12.1229 16.0324 12.1485 16.0117 12.1685 15.9861L15.1685 12.1905C15.2784 12.0512 15.1793 11.845 14.9998 11.845H13.015V2.78069C13.015 2.66283 12.9185 2.56641 12.8007 2.56641H11.1935C11.0757 2.56641 10.9793 2.66283 10.9793 2.78069V11.8423H8.9998C8.82033 11.8423 8.72123 12.0486 8.83105 12.1878L11.831 15.9861ZM21.8034 15.0486H20.1962C20.0784 15.0486 19.9819 15.145 19.9819 15.2628V19.3878H4.01766V15.2628C4.01766 15.145 3.92123 15.0486 3.80337 15.0486H2.19623C2.07837 15.0486 1.98194 15.145 1.98194 15.2628V20.5664C1.98194 21.0405 2.36498 21.4236 2.83908 21.4236H21.1605C21.6346 21.4236 22.0177 21.0405 22.0177 20.5664V15.2628C22.0177 15.145 21.9212 15.0486 21.8034 15.0486Z" fill="white"/>
</svg>
