<svg width="111" height="43" viewBox="0 0 682 264" fill="none" xmlns="http://www.w3.org/2000/svg">
<g clip-path="url(#clip0_83_5)">
<ellipse cx="340.5" cy="131" rx="332.5" ry="131" fill="#4D4D4D"/>
<path fill-rule="evenodd" clip-rule="evenodd" d="M320.244 0.114104C319.996 0.362521 313.529 0.720564 303.142 1.06065C242.167 3.05802 179.972 12.7934 128.042 28.4687C88.5662 40.3843 52.5582 58.094 30.8799 76.255C27.4963 79.0895 21.1917 85.2533 18.5593 88.3001C7.85401 100.691 2.44651 111.51 0.430585 124.571C-0.148657 128.325 -0.142366 136.502 0.442701 140.083C2.67602 153.751 8.79208 165.164 20.8807 178.222C32.7486 191.042 54.6703 205.934 76.7812 216.196C106.595 230.034 140.1 240.453 182.263 248.996C244.948 261.698 316.906 266.504 388.421 262.767C438.751 260.137 485.517 253.386 529.154 242.451C573.479 231.344 613.48 214.764 639.181 196.845C651.682 188.13 659.377 181.191 666.689 172.039C675.019 161.614 679.793 151.178 681.576 139.5C682.144 135.776 682.141 127.807 681.569 124.152C679.916 113.589 675.673 103.978 668.445 94.424C660.275 83.6238 649.691 74.1226 634.755 64.1822C612.441 49.3306 580.644 35.8514 543.716 25.5903C510.415 16.3363 477.509 9.97265 441.079 5.7407C423.842 3.73843 414.916 3.01183 393.78 1.89057C384.169 1.38067 375.623 0.898299 374.79 0.818526C370.18 0.377206 320.621 -0.262604 320.244 0.114104ZM320.384 12.0521C281.859 13.2408 254.619 15.5167 217.398 20.656C174.907 26.5228 127.668 38.8865 95.0718 52.6717C79.8489 59.1096 63.7315 67.3586 53.691 73.8509C46.5852 78.4458 41.1481 82.6968 33.4653 89.6658C24.0756 98.1827 16.6426 109.1 13.7664 118.599C12.223 123.697 11.894 126.094 11.9061 132.152C11.9164 137.249 11.9534 137.692 12.6499 141.016C13.8627 146.805 15.3793 150.73 18.4155 155.938C21.8124 161.766 25.2893 166.134 31.328 172.161C37.9329 178.754 43.983 183.633 52.8105 189.487C60.174 194.371 64.7926 197.023 73.7522 201.513C86.1887 207.746 93.6717 211.056 106.139 215.843C118.289 220.507 129.565 224.137 145.4 228.482C173.281 236.132 202.793 241.893 234.989 245.97C253.988 248.376 281.085 250.548 303.492 251.461C327.011 252.42 355.159 252.419 377.703 251.458C392.248 250.839 415.851 249.226 427.099 248.084C427.74 248.019 429.837 247.806 431.759 247.611C461.711 244.572 495.78 238.675 523.562 231.723C554.841 223.896 577.398 216.176 599.544 205.718C617.533 197.224 623.417 193.817 635.868 184.681C642.436 179.862 642.265 180.004 648.67 174.024C656.261 166.937 661.98 159.563 665.586 152.212C667.951 147.391 669.392 142.479 670.026 137.073C670.456 133.401 670.174 126.962 669.428 123.405C666.884 111.285 659.744 100.118 647.053 88.4107C638.098 80.1499 628.936 73.6897 615.421 66.1068C609.142 62.5837 596.75 56.6636 593.229 55.5046C592.717 55.336 592.14 55.0742 591.948 54.9229C591.411 54.5002 589.376 53.5264 588.336 53.1944C587.824 53.0307 586.356 52.3939 585.074 51.7793C580.492 49.5813 571.355 46.4261 548.726 39.2271C524.715 31.5884 491.923 24.4011 462.981 20.4337C430.013 15.9141 407.775 13.8818 374.557 12.3525C369.578 12.1233 325.923 11.8811 320.384 12.0521ZM236.918 74.0329L233.296 77.6314L233.23 74.6161L233.165 71.6008L224.278 71.5396L215.392 71.4785L215.26 72.0062C215.187 72.2963 215.123 76.6274 215.117 81.6308C215.111 86.6341 215.039 91.797 214.957 93.1039L214.808 95.4803L207.793 102.24C203.934 105.958 200.424 109.369 199.991 109.819L199.205 110.637L201.489 112.992C202.744 114.288 203.85 115.319 203.946 115.284C204.041 115.248 208.107 111.397 212.982 106.724L221.845 98.2285L221.913 88.3744C221.95 82.9545 222.053 78.4475 222.142 78.3586C222.231 78.2698 223.251 78.2719 224.409 78.3638L226.513 78.5303L226.577 82.2575L226.641 85.9845L229.258 87.1258C230.697 87.7535 232.008 88.2149 232.17 88.1507C232.333 88.0866 234.133 86.3696 236.17 84.3356L239.873 80.6371L243.264 84.866C245.129 87.1918 247.608 90.2495 248.773 91.6607C250.953 94.3005 254.942 99.3029 262.873 109.344C265.372 112.508 267.469 115.098 267.533 115.099C267.818 115.104 272.659 111.068 272.658 110.825C272.658 110.676 270.115 107.401 267.008 103.547C263.9 99.6931 260.39 95.3371 259.208 93.8671C257.166 91.3293 241.391 71.5364 240.814 70.7886C240.584 70.49 239.973 70.998 236.918 74.0329ZM405.991 74.4579L400.106 74.5244L400.166 106.302C400.199 123.779 400.254 146.659 400.288 157.147L400.349 176.216H406.521H412.693L412.702 173.942C412.712 171.378 412.849 169.217 413.011 169.055C413.071 168.995 414.056 169.787 415.2 170.813C420.997 176.017 424.258 177.5 430.517 177.778C436.208 178.031 440.761 177.13 445.429 174.826C454.309 170.443 460.726 161.793 463.1 151.006C464.097 146.474 464.302 144.272 464.294 138.195C464.284 130.275 464.152 129.621 460.388 118.766C459.819 117.124 459.146 115.549 458.893 115.267C458.64 114.984 457.852 113.849 457.142 112.744C453.201 106.614 447.1 102.69 438.789 100.941C435.819 100.316 429.091 100.379 426.632 101.055C422.557 102.174 419.387 103.923 416.249 106.782C413.286 109.482 413.625 111.446 413.625 91.5523V74.2832L412.751 74.3373C412.27 74.3672 409.229 74.4213 405.991 74.4579ZM478.399 81.3492C478.399 85.2565 478.464 88.7814 478.545 89.1824L478.69 89.9113H485.148H491.606L491.769 82.4094C491.883 77.1175 491.856 74.8328 491.678 74.6536C491.511 74.4866 489.195 74.3732 484.912 74.3224L478.399 74.2447V81.3492ZM522.388 77.8497C519.704 79.2396 515.191 81.9414 513.174 83.3657L511.485 84.5586V90.1138C511.485 93.1692 511.416 97.1026 511.333 98.8548L511.18 102.041H506.753H502.325L502.477 105.714C502.561 107.735 502.63 110.202 502.63 111.196L502.631 113.004H507.065H511.498L511.465 135.221C511.426 161.662 511.594 165.119 513.112 168.976C514.515 172.537 517.66 175.096 521.982 176.193C526.093 177.236 532.687 177.394 536.479 176.54C538.802 176.016 538.98 175.897 538.977 174.867C538.972 173.317 538.005 167.514 537.32 164.927L537.079 164.019L533.657 164.179C529.476 164.374 528.115 164.141 526.876 163.02C525.717 161.973 525.458 160.975 525.218 156.634C524.98 152.343 524.932 123.561 525.153 117.473L525.306 113.237L528.706 113.236C530.576 113.235 533.286 113.167 534.727 113.084L537.348 112.932V107.486V102.041H531.29H525.232V89.5864C525.232 78.4449 525.193 77.1173 524.864 76.9906C524.361 76.7975 524.537 76.7363 522.388 77.8497ZM312.717 100.77C308.947 101.453 304.89 103.038 302.062 104.933C301.204 105.508 299.508 106.981 298.293 108.208C297.079 109.434 296.004 110.438 295.905 110.438C295.806 110.438 295.726 108.541 295.726 106.223V102.008L289.842 102.159C286.607 102.242 283.828 102.351 283.667 102.402C283.434 102.474 283.387 109.968 283.434 139.296L283.493 176.099L290.169 176.161L296.845 176.223L296.997 173.829C297.08 172.512 297.116 162.984 297.078 152.657C297.005 133.319 297.058 131.808 297.965 127.232C299.487 119.549 303.065 115.163 309.366 113.256C313.111 112.122 317.088 112.24 319.88 113.568C322.956 115.03 324.861 117.442 325.779 121.036C326.704 124.655 326.778 127.22 326.606 149.509C326.515 161.183 326.517 171.97 326.61 173.479L326.779 176.223L333.329 176.071C336.932 175.987 339.932 175.871 339.996 175.814C340.06 175.757 340.126 166.088 340.143 154.329C340.173 132.491 340.218 130.717 340.823 127.19C341.604 122.631 343.029 119.524 345.465 117.064C348.151 114.352 351.627 112.896 356.09 112.613C361.105 112.295 365.946 114.459 367.784 117.841C368.665 119.462 369.315 122.424 369.566 125.966C369.698 127.838 369.686 135.879 369.533 147.176C369.308 163.864 369.44 175.679 369.857 176.097C370.112 176.352 381.797 176.291 382.435 176.031L383.05 175.781L383.204 171.508C383.289 169.158 383.319 157.211 383.271 144.96C383.175 120.706 383.142 120.047 381.795 115.384C379.989 109.133 377.221 105.488 372.558 103.22C365.313 99.6966 355.891 99.5436 348.948 102.836C345.657 104.397 344.098 105.565 340.775 108.959L337.709 112.09L336.522 110.122C333.64 105.345 328.217 101.82 322.114 100.754C319.686 100.33 315.099 100.338 312.717 100.77ZM232.015 101.609C222.832 102.419 214.306 106.051 208.463 111.644C201.841 117.981 198.081 125.285 196.596 134.696C196.077 137.982 195.695 144.316 195.869 146.709C196.347 153.228 199.536 162.226 203.178 167.326C205.097 170.013 207.725 172.973 209.643 174.608C216.691 180.615 226.3 183.971 236.427 183.963C245.125 183.956 252.479 181.748 259.727 176.967C263.656 174.375 268.915 168.674 271.423 164.286C278.013 152.754 278.371 135.134 272.263 122.938C269.548 117.518 264.329 111.509 259.611 108.372C253.698 104.44 247.192 102.234 239.572 101.576C236.535 101.314 235.301 101.319 232.015 101.609ZM478.399 139.23V176.401L482.302 176.303C484.448 176.248 487.489 176.144 489.059 176.07L491.913 175.936L491.962 170.886C492.042 162.535 492.037 160.799 491.847 133.064C491.74 117.473 491.752 105.579 491.874 104.49C491.989 103.463 492.018 102.558 491.94 102.478C491.861 102.398 488.782 102.271 485.098 102.196L478.399 102.059V139.23ZM157.169 104.614C150.371 105.465 144.123 107.824 139.56 111.262C133.425 115.886 129.283 123.882 127.591 134.374C127.093 137.46 126.899 145.837 127.247 149.212C127.846 155.015 129.175 159.98 131.34 164.496C132.991 167.94 134.625 170.287 137.062 172.716C141.207 176.845 146.693 179.711 153.182 181.135C155.957 181.743 161.974 181.982 164.895 181.6C169.644 180.979 174.133 179.473 177.596 177.339C184.546 173.057 191.341 162.287 191.341 155.554C191.341 153.554 192.033 153.86 185.633 153.03C179.65 152.254 178.81 152.198 178.516 152.553C178.382 152.714 177.904 154.35 177.454 156.187C176.479 160.167 175.71 161.871 173.843 164.195C170.5 168.355 165.998 170.385 160.114 170.385C157.259 170.385 154.894 169.904 152.779 168.895C147.031 166.153 143.396 160.768 141.675 152.448C141.067 149.505 140.821 140.792 141.24 136.967C142.145 128.687 145.277 122.505 150.297 119.093C155.673 115.438 163.325 114.976 169.061 117.961C172.637 119.822 174.51 122.302 176.404 127.685C176.916 129.141 177.42 130.406 177.523 130.497C177.793 130.735 190.293 128.794 190.289 128.515C190.213 123.579 186.763 116.533 182.237 112.072C178.445 108.335 172.606 105.661 166.498 104.864C163.739 104.504 159.051 104.379 157.169 104.614ZM233.19 111.385C219.434 112.983 209.275 123.096 207.171 137.284C206.794 139.821 206.865 145.858 207.3 148.342C208.571 155.605 211.742 161.729 216.677 166.449C218.978 168.65 220.795 169.892 223.814 171.332C232.917 175.67 244.368 174.829 252.624 169.215C259.024 164.865 263.857 156.486 265.105 147.578C265.561 144.323 265.449 139.159 264.855 136.121C263.378 128.558 259.08 121.12 253.902 117.167C247.912 112.593 240.531 110.533 233.19 111.385ZM429.019 112.324C420.557 113.986 415.305 120.207 413.352 130.881C412.671 134.608 412.602 144.231 413.232 147.875C414.699 156.368 418.18 161.689 424.226 164.68C426.93 166.017 428.576 166.419 431.344 166.419C441.318 166.419 448.552 158.091 450.322 144.572C451.63 134.583 449.151 123.13 444.514 117.744C442.54 115.451 438.467 113.071 435.41 112.424C433.638 112.049 430.659 112.002 429.019 112.324ZM254.485 126.089C248.092 129.563 237.954 139.39 231.538 148.331C228.069 153.165 227.885 153.383 227.522 153.081C227.355 152.943 226.754 151.853 226.185 150.658C225.062 148.3 223.888 146.812 222.793 146.358C221.816 145.953 219.842 146.168 218.479 146.829C217.165 147.466 214.874 149.579 214.874 150.154C214.874 150.367 215.481 150.953 216.222 151.457C218.146 152.764 219.134 153.964 220.429 156.56C221.628 158.964 223.715 163.989 224.209 165.661C224.369 166.206 224.573 166.652 224.661 166.652C224.923 166.652 227.704 164.803 229.144 163.672C230.27 162.787 230.953 161.875 233.44 157.93C237.859 150.919 242.161 144.554 244.379 141.746C247.037 138.381 252.37 132.63 254.318 131.031C256.472 129.261 257.98 127.542 257.98 126.857C257.98 126.55 257.877 126.299 257.751 126.299C257.625 126.299 257.457 126.037 257.376 125.716C257.169 124.889 256.544 124.97 254.485 126.089Z" fill="url(#paint0_angular_83_5)"/>
<path fill-rule="evenodd" clip-rule="evenodd" d="M320.244 0.114104C319.996 0.362521 313.529 0.720564 303.142 1.06065C242.167 3.05802 179.972 12.7934 128.042 28.4687C88.5662 40.3843 52.5582 58.094 30.8799 76.255C27.4963 79.0895 21.1917 85.2533 18.5593 88.3001C7.85401 100.691 2.44651 111.51 0.430585 124.571C-0.148657 128.325 -0.142366 136.502 0.442701 140.083C2.67602 153.751 8.79208 165.164 20.8807 178.222C32.7486 191.042 54.6703 205.934 76.7812 216.196C106.595 230.034 140.1 240.453 182.263 248.996C244.948 261.698 316.906 266.504 388.421 262.767C438.751 260.137 485.517 253.386 529.154 242.451C573.479 231.344 613.48 214.764 639.181 196.845C651.682 188.13 659.377 181.191 666.689 172.039C675.019 161.614 679.793 151.178 681.576 139.5C682.144 135.776 682.141 127.807 681.569 124.152C679.916 113.589 675.673 103.978 668.445 94.424C660.275 83.6238 649.691 74.1226 634.755 64.1822C612.441 49.3306 580.644 35.8514 543.716 25.5903C510.415 16.3363 477.509 9.97265 441.079 5.7407C423.842 3.73843 414.916 3.01183 393.78 1.89057C384.169 1.38067 375.623 0.898299 374.79 0.818526C370.18 0.377206 320.621 -0.262604 320.244 0.114104ZM320.384 12.0521C281.859 13.2408 254.619 15.5167 217.398 20.656C174.907 26.5228 127.668 38.8865 95.0718 52.6717C79.8489 59.1096 63.7315 67.3586 53.691 73.8509C46.5852 78.4458 41.1481 82.6968 33.4653 89.6658C24.0756 98.1827 16.6426 109.1 13.7664 118.599C12.223 123.697 11.894 126.094 11.9061 132.152C11.9164 137.249 11.9534 137.692 12.6499 141.016C13.8627 146.805 15.3793 150.73 18.4155 155.938C21.8124 161.766 25.2893 166.134 31.328 172.161C37.9329 178.754 43.983 183.633 52.8105 189.487C60.174 194.371 64.7926 197.023 73.7522 201.513C86.1887 207.746 93.6717 211.056 106.139 215.843C118.289 220.507 129.565 224.137 145.4 228.482C173.281 236.132 202.793 241.893 234.989 245.97C253.988 248.376 281.085 250.548 303.492 251.461C327.011 252.42 355.159 252.419 377.703 251.458C392.248 250.839 415.851 249.226 427.099 248.084C427.74 248.019 429.837 247.806 431.759 247.611C461.711 244.572 495.78 238.675 523.562 231.723C554.841 223.896 577.398 216.176 599.544 205.718C617.533 197.224 623.417 193.817 635.868 184.681C642.436 179.862 642.265 180.004 648.67 174.024C656.261 166.937 661.98 159.563 665.586 152.212C667.951 147.391 669.392 142.479 670.026 137.073C670.456 133.401 670.174 126.962 669.428 123.405C666.884 111.285 659.744 100.118 647.053 88.4107C638.098 80.1499 628.936 73.6897 615.421 66.1068C609.142 62.5837 596.75 56.6636 593.229 55.5046C592.717 55.336 592.14 55.0742 591.948 54.9229C591.411 54.5002 589.376 53.5264 588.336 53.1944C587.824 53.0307 586.356 52.3939 585.074 51.7793C580.492 49.5813 571.355 46.4261 548.726 39.2271C524.715 31.5884 491.923 24.4011 462.981 20.4337C430.013 15.9141 407.775 13.8818 374.557 12.3525C369.578 12.1233 325.923 11.8811 320.384 12.0521ZM236.918 74.0329L233.296 77.6314L233.23 74.6161L233.165 71.6008L224.278 71.5396L215.392 71.4785L215.26 72.0062C215.187 72.2963 215.123 76.6274 215.117 81.6308C215.111 86.6341 215.039 91.797 214.957 93.1039L214.808 95.4803L207.793 102.24C203.934 105.958 200.424 109.369 199.991 109.819L199.205 110.637L201.489 112.992C202.744 114.288 203.85 115.319 203.946 115.284C204.041 115.248 208.107 111.397 212.982 106.724L221.845 98.2285L221.913 88.3744C221.95 82.9545 222.053 78.4475 222.142 78.3586C222.231 78.2698 223.251 78.2719 224.409 78.3638L226.513 78.5303L226.577 82.2575L226.641 85.9845L229.258 87.1258C230.697 87.7535 232.008 88.2149 232.17 88.1507C232.333 88.0866 234.133 86.3696 236.17 84.3356L239.873 80.6371L243.264 84.866C245.129 87.1918 247.608 90.2495 248.773 91.6607C250.953 94.3005 254.942 99.3029 262.873 109.344C265.372 112.508 267.469 115.098 267.533 115.099C267.818 115.104 272.659 111.068 272.658 110.825C272.658 110.676 270.115 107.401 267.008 103.547C263.9 99.6931 260.39 95.3371 259.208 93.8671C257.166 91.3293 241.391 71.5364 240.814 70.7886C240.584 70.49 239.973 70.998 236.918 74.0329ZM405.991 74.4579L400.106 74.5244L400.166 106.302C400.199 123.779 400.254 146.659 400.288 157.147L400.349 176.216H406.521H412.693L412.702 173.942C412.712 171.378 412.849 169.217 413.011 169.055C413.071 168.995 414.056 169.787 415.2 170.813C420.997 176.017 424.258 177.5 430.517 177.778C436.208 178.031 440.761 177.13 445.429 174.826C454.309 170.443 460.726 161.793 463.1 151.006C464.097 146.474 464.302 144.272 464.294 138.195C464.284 130.275 464.152 129.621 460.388 118.766C459.819 117.124 459.146 115.549 458.893 115.267C458.64 114.984 457.852 113.849 457.142 112.744C453.201 106.614 447.1 102.69 438.789 100.941C435.819 100.316 429.091 100.379 426.632 101.055C422.557 102.174 419.387 103.923 416.249 106.782C413.286 109.482 413.625 111.446 413.625 91.5523V74.2832L412.751 74.3373C412.27 74.3672 409.229 74.4213 405.991 74.4579ZM478.399 81.3492C478.399 85.2565 478.464 88.7814 478.545 89.1824L478.69 89.9113H485.148H491.606L491.769 82.4094C491.883 77.1175 491.856 74.8328 491.678 74.6536C491.511 74.4866 489.195 74.3732 484.912 74.3224L478.399 74.2447V81.3492ZM522.388 77.8497C519.704 79.2396 515.191 81.9414 513.174 83.3657L511.485 84.5586V90.1138C511.485 93.1692 511.416 97.1026 511.333 98.8548L511.18 102.041H506.753H502.325L502.477 105.714C502.561 107.735 502.63 110.202 502.63 111.196L502.631 113.004H507.065H511.498L511.465 135.221C511.426 161.662 511.594 165.119 513.112 168.976C514.515 172.537 517.66 175.096 521.982 176.193C526.093 177.236 532.687 177.394 536.479 176.54C538.802 176.016 538.98 175.897 538.977 174.867C538.972 173.317 538.005 167.514 537.32 164.927L537.079 164.019L533.657 164.179C529.476 164.374 528.115 164.141 526.876 163.02C525.717 161.973 525.458 160.975 525.218 156.634C524.98 152.343 524.932 123.561 525.153 117.473L525.306 113.237L528.706 113.236C530.576 113.235 533.286 113.167 534.727 113.084L537.348 112.932V107.486V102.041H531.29H525.232V89.5864C525.232 78.4449 525.193 77.1173 524.864 76.9906C524.361 76.7975 524.537 76.7363 522.388 77.8497ZM312.717 100.77C308.947 101.453 304.89 103.038 302.062 104.933C301.204 105.508 299.508 106.981 298.293 108.208C297.079 109.434 296.004 110.438 295.905 110.438C295.806 110.438 295.726 108.541 295.726 106.223V102.008L289.842 102.159C286.607 102.242 283.828 102.351 283.667 102.402C283.434 102.474 283.387 109.968 283.434 139.296L283.493 176.099L290.169 176.161L296.845 176.223L296.997 173.829C297.08 172.512 297.116 162.984 297.078 152.657C297.005 133.319 297.058 131.808 297.965 127.232C299.487 119.549 303.065 115.163 309.366 113.256C313.111 112.122 317.088 112.24 319.88 113.568C322.956 115.03 324.861 117.442 325.779 121.036C326.704 124.655 326.778 127.22 326.606 149.509C326.515 161.183 326.517 171.97 326.61 173.479L326.779 176.223L333.329 176.071C336.932 175.987 339.932 175.871 339.996 175.814C340.06 175.757 340.126 166.088 340.143 154.329C340.173 132.491 340.218 130.717 340.823 127.19C341.604 122.631 343.029 119.524 345.465 117.064C348.151 114.352 351.627 112.896 356.09 112.613C361.105 112.295 365.946 114.459 367.784 117.841C368.665 119.462 369.315 122.424 369.566 125.966C369.698 127.838 369.686 135.879 369.533 147.176C369.308 163.864 369.44 175.679 369.857 176.097C370.112 176.352 381.797 176.291 382.435 176.031L383.05 175.781L383.204 171.508C383.289 169.158 383.319 157.211 383.271 144.96C383.175 120.706 383.142 120.047 381.795 115.384C379.989 109.133 377.221 105.488 372.558 103.22C365.313 99.6966 355.891 99.5436 348.948 102.836C345.657 104.397 344.098 105.565 340.775 108.959L337.709 112.09L336.522 110.122C333.64 105.345 328.217 101.82 322.114 100.754C319.686 100.33 315.099 100.338 312.717 100.77ZM232.015 101.609C222.832 102.419 214.306 106.051 208.463 111.644C201.841 117.981 198.081 125.285 196.596 134.696C196.077 137.982 195.695 144.316 195.869 146.709C196.347 153.228 199.536 162.226 203.178 167.326C205.097 170.013 207.725 172.973 209.643 174.608C216.691 180.615 226.3 183.971 236.427 183.963C245.125 183.956 252.479 181.748 259.727 176.967C263.656 174.375 268.915 168.674 271.423 164.286C278.013 152.754 278.371 135.134 272.263 122.938C269.548 117.518 264.329 111.509 259.611 108.372C253.698 104.44 247.192 102.234 239.572 101.576C236.535 101.314 235.301 101.319 232.015 101.609ZM478.399 139.23V176.401L482.302 176.303C484.448 176.248 487.489 176.144 489.059 176.07L491.913 175.936L491.962 170.886C492.042 162.535 492.037 160.799 491.847 133.064C491.74 117.473 491.752 105.579 491.874 104.49C491.989 103.463 492.018 102.558 491.94 102.478C491.861 102.398 488.782 102.271 485.098 102.196L478.399 102.059V139.23ZM157.169 104.614C150.371 105.465 144.123 107.824 139.56 111.262C133.425 115.886 129.283 123.882 127.591 134.374C127.093 137.46 126.899 145.837 127.247 149.212C127.846 155.015 129.175 159.98 131.34 164.496C132.991 167.94 134.625 170.287 137.062 172.716C141.207 176.845 146.693 179.711 153.182 181.135C155.957 181.743 161.974 181.982 164.895 181.6C169.644 180.979 174.133 179.473 177.596 177.339C184.546 173.057 191.341 162.287 191.341 155.554C191.341 153.554 192.033 153.86 185.633 153.03C179.65 152.254 178.81 152.198 178.516 152.553C178.382 152.714 177.904 154.35 177.454 156.187C176.479 160.167 175.71 161.871 173.843 164.195C170.5 168.355 165.998 170.385 160.114 170.385C157.259 170.385 154.894 169.904 152.779 168.895C147.031 166.153 143.396 160.768 141.675 152.448C141.067 149.505 140.821 140.792 141.24 136.967C142.145 128.687 145.277 122.505 150.297 119.093C155.673 115.438 163.325 114.976 169.061 117.961C172.637 119.822 174.51 122.302 176.404 127.685C176.916 129.141 177.42 130.406 177.523 130.497C177.793 130.735 190.293 128.794 190.289 128.515C190.213 123.579 186.763 116.533 182.237 112.072C178.445 108.335 172.606 105.661 166.498 104.864C163.739 104.504 159.051 104.379 157.169 104.614ZM233.19 111.385C219.434 112.983 209.275 123.096 207.171 137.284C206.794 139.821 206.865 145.858 207.3 148.342C208.571 155.605 211.742 161.729 216.677 166.449C218.978 168.65 220.795 169.892 223.814 171.332C232.917 175.67 244.368 174.829 252.624 169.215C259.024 164.865 263.857 156.486 265.105 147.578C265.561 144.323 265.449 139.159 264.855 136.121C263.378 128.558 259.08 121.12 253.902 117.167C247.912 112.593 240.531 110.533 233.19 111.385ZM429.019 112.324C420.557 113.986 415.305 120.207 413.352 130.881C412.671 134.608 412.602 144.231 413.232 147.875C414.699 156.368 418.18 161.689 424.226 164.68C426.93 166.017 428.576 166.419 431.344 166.419C441.318 166.419 448.552 158.091 450.322 144.572C451.63 134.583 449.151 123.13 444.514 117.744C442.54 115.451 438.467 113.071 435.41 112.424C433.638 112.049 430.659 112.002 429.019 112.324ZM254.485 126.089C248.092 129.563 237.954 139.39 231.538 148.331C228.069 153.165 227.885 153.383 227.522 153.081C227.355 152.943 226.754 151.853 226.185 150.658C225.062 148.3 223.888 146.812 222.793 146.358C221.816 145.953 219.842 146.168 218.479 146.829C217.165 147.466 214.874 149.579 214.874 150.154C214.874 150.367 215.481 150.953 216.222 151.457C218.146 152.764 219.134 153.964 220.429 156.56C221.628 158.964 223.715 163.989 224.209 165.661C224.369 166.206 224.573 166.652 224.661 166.652C224.923 166.652 227.704 164.803 229.144 163.672C230.27 162.787 230.953 161.875 233.44 157.93C237.859 150.919 242.161 144.554 244.379 141.746C247.037 138.381 252.37 132.63 254.318 131.031C256.472 129.261 257.98 127.542 257.98 126.857C257.98 126.55 257.877 126.299 257.751 126.299C257.625 126.299 257.457 126.037 257.376 125.716C257.169 124.889 256.544 124.97 254.485 126.089Z" fill="url(#paint1_angular_83_5)"/>
</g>
<defs>
<radialGradient id="paint0_angular_83_5" cx="0" cy="0" r="1" gradientUnits="userSpaceOnUse" gradientTransform="translate(341.005 163.408) rotate(101.393) scale(165.728 415.322)">
<stop offset="0.150288" stop-color="#E3A455"/>
<stop offset="0.244792" stop-color="#F6DBA6"/>
<stop offset="0.389646" stop-color="#FFEBC4"/>
<stop offset="0.444964" stop-color="#F0BE79"/>
<stop offset="0.537073" stop-color="#8F653B"/>
<stop offset="0.708863" stop-color="#BA7F3B"/>
<stop offset="0.773898" stop-color="#EEBC70"/>
<stop offset="0.996495" stop-color="#E3A455"/>
</radialGradient>
<radialGradient id="paint1_angular_83_5" cx="0" cy="0" r="1" gradientUnits="userSpaceOnUse" gradientTransform="translate(392.032 156.994) rotate(118.494) scale(238.048 596.805)">
<stop offset="0.123031" stop-color="#E3A455"/>
<stop offset="0.244792" stop-color="#F6DBA6"/>
<stop offset="0.400703" stop-color="#FDE0A6"/>
<stop offset="0.508116" stop-color="#F0BE79"/>
<stop offset="0.567413" stop-color="#BA7F3B"/>
<stop offset="0.773898" stop-color="#EEBC70"/>
<stop offset="0.996495" stop-color="#F6DBA6"/>
</radialGradient>
<clipPath id="clip0_83_5">
<rect width="682" height="264" fill="white"/>
</clipPath>
</defs>
</svg>