<svg width="14" height="14" viewBox="0 0 14 14" fill="none" xmlns="http://www.w3.org/2000/svg">
<path d="M12.4136 10.4321C12.1189 9.73394 11.6911 9.09977 11.1543 8.56492C10.619 8.02853 9.98493 7.60086 9.28707 7.30554C9.28082 7.30242 9.27457 7.30086 9.26832 7.29773C10.2418 6.59461 10.8746 5.44929 10.8746 4.1571C10.8746 2.01648 9.14019 0.282104 6.99957 0.282104C4.85894 0.282104 3.12457 2.01648 3.12457 4.1571C3.12457 5.44929 3.75738 6.5946 4.73082 7.29929C4.72457 7.30242 4.71832 7.30398 4.71207 7.30711C4.01207 7.60242 3.38394 8.02586 2.84488 8.56648C2.30849 9.10174 1.88082 9.73581 1.5855 10.4337C1.29538 11.1169 1.13891 11.8494 1.12457 12.5915C1.12415 12.6082 1.12707 12.6247 1.13317 12.6403C1.13926 12.6558 1.14841 12.67 1.16005 12.6819C1.1717 12.6938 1.18562 12.7033 1.201 12.7098C1.21637 12.7163 1.23288 12.7196 1.24957 12.7196H2.18707C2.25582 12.7196 2.3105 12.6649 2.31207 12.5977C2.34332 11.3915 2.82769 10.2618 3.68394 9.40554C4.56988 8.51961 5.74644 8.03211 6.99957 8.03211C8.25269 8.03211 9.42925 8.51961 10.3152 9.40554C11.1714 10.2618 11.6558 11.3915 11.6871 12.5977C11.6886 12.6665 11.7433 12.7196 11.8121 12.7196H12.7496C12.7662 12.7196 12.7828 12.7163 12.7981 12.7098C12.8135 12.7033 12.8274 12.6938 12.8391 12.6819C12.8507 12.67 12.8599 12.6558 12.866 12.6403C12.8721 12.6247 12.875 12.6082 12.8746 12.5915C12.8589 11.8446 12.7043 11.118 12.4136 10.4321ZM6.99957 6.84461C6.28238 6.84461 5.60738 6.56492 5.09957 6.05711C4.59175 5.54929 4.31207 4.87429 4.31207 4.1571C4.31207 3.43992 4.59175 2.76492 5.09957 2.2571C5.60738 1.74929 6.28238 1.4696 6.99957 1.4696C7.71675 1.4696 8.39175 1.74929 8.89957 2.2571C9.40738 2.76492 9.68707 3.43992 9.68707 4.1571C9.68707 4.87429 9.40738 5.54929 8.89957 6.05711C8.39175 6.56492 7.71675 6.84461 6.99957 6.84461Z" fill="white"/>
</svg>
