<svg width="25" height="24" viewBox="0 0 25 24" fill="none" xmlns="http://www.w3.org/2000/svg">
<path d="M12.4998 1.5C6.70132 1.5 1.99976 6.20156 1.99976 12C1.99976 17.7984 6.70132 22.5 12.4998 22.5C18.2982 22.5 22.9998 17.7984 22.9998 12C22.9998 6.20156 18.2982 1.5 12.4998 1.5ZM12.4998 18.0938C11.9818 18.0938 11.5623 17.6742 11.5623 17.1562C11.5623 16.6383 11.9818 16.2188 12.4998 16.2188C13.0177 16.2188 13.4373 16.6383 13.4373 17.1562C13.4373 17.6742 13.0177 18.0938 12.4998 18.0938ZM13.974 12.9492C13.7617 13.0312 13.5791 13.1752 13.4499 13.3625C13.3207 13.5498 13.251 13.7717 13.2498 13.9992V14.5312C13.2498 14.6344 13.1654 14.7188 13.0623 14.7188H11.9373C11.8341 14.7188 11.7498 14.6344 11.7498 14.5312V14.0273C11.7498 13.4859 11.9068 12.9516 12.2162 12.5062C12.5185 12.0703 12.9404 11.7375 13.4373 11.5477C14.2341 11.2406 14.7498 10.5727 14.7498 9.84375C14.7498 8.81016 13.7396 7.96875 12.4998 7.96875C11.2599 7.96875 10.2498 8.81016 10.2498 9.84375V10.0219C10.2498 10.125 10.1654 10.2094 10.0623 10.2094H8.93726C8.83413 10.2094 8.74976 10.125 8.74976 10.0219V9.84375C8.74976 8.92266 9.15288 8.0625 9.88413 7.42266C10.5873 6.80625 11.5154 6.46875 12.4998 6.46875C13.4841 6.46875 14.4123 6.80859 15.1154 7.42266C15.8466 8.0625 16.2498 8.92266 16.2498 9.84375C16.2498 11.1984 15.3568 12.4172 13.974 12.9492Z" fill="#AA8066"/>
</svg>
